G75*
G70*
%OFA0B0*%
%FSLAX24Y24*%
%IPPOS*%
%LPD*%
%AMOC8*
5,1,8,0,0,1.08239X$1,22.5*
%
%ADD10C,0.0000*%
%ADD11C,0.0040*%
%ADD12C,0.0030*%
%ADD13C,0.0060*%
%ADD14R,0.0079X0.0079*%
%ADD15R,0.0059X0.0098*%
%ADD16R,0.0079X0.0079*%
%ADD17R,0.0004X0.0004*%
%ADD18R,0.0216X0.0004*%
%ADD19R,0.1534X0.0004*%
%ADD20R,0.0212X0.0004*%
%ADD21R,0.1751X0.0004*%
%ADD22R,0.1746X0.0004*%
%ADD23R,0.0207X0.0004*%
%ADD24R,0.1530X0.0004*%
%ADD25R,0.0203X0.0004*%
%ADD26R,0.1526X0.0004*%
%ADD27R,0.0198X0.0004*%
%ADD28R,0.1521X0.0004*%
%ADD29R,0.0194X0.0004*%
%ADD30R,0.1517X0.0004*%
%ADD31R,0.0190X0.0004*%
%ADD32R,0.1512X0.0004*%
%ADD33R,0.0185X0.0004*%
%ADD34R,0.1508X0.0004*%
%ADD35R,0.0181X0.0004*%
%ADD36R,0.1504X0.0004*%
%ADD37R,0.0176X0.0004*%
%ADD38R,0.1499X0.0004*%
%ADD39R,0.0172X0.0004*%
%ADD40R,0.1495X0.0004*%
%ADD41R,0.0168X0.0004*%
%ADD42R,0.1490X0.0004*%
%ADD43R,0.0163X0.0004*%
%ADD44R,0.1486X0.0004*%
%ADD45R,0.1482X0.0004*%
%ADD46R,0.0154X0.0004*%
%ADD47R,0.1477X0.0004*%
%ADD48R,0.1473X0.0004*%
%ADD49R,0.0150X0.0004*%
%ADD50R,0.1468X0.0004*%
%ADD51R,0.0146X0.0004*%
%ADD52R,0.0141X0.0004*%
%ADD53R,0.1464X0.0004*%
%ADD54R,0.0137X0.0004*%
%ADD55R,0.1460X0.0004*%
%ADD56R,0.0132X0.0004*%
%ADD57R,0.1455X0.0004*%
%ADD58R,0.0128X0.0004*%
%ADD59R,0.1451X0.0004*%
%ADD60R,0.0123X0.0004*%
%ADD61R,0.1446X0.0004*%
%ADD62R,0.0119X0.0004*%
%ADD63R,0.1442X0.0004*%
%ADD64R,0.0115X0.0004*%
%ADD65R,0.1437X0.0004*%
%ADD66R,0.0110X0.0004*%
%ADD67R,0.1433X0.0004*%
%ADD68R,0.0106X0.0004*%
%ADD69R,0.1429X0.0004*%
%ADD70R,0.0101X0.0004*%
%ADD71R,0.1424X0.0004*%
%ADD72R,0.0097X0.0004*%
%ADD73R,0.1420X0.0004*%
%ADD74R,0.1415X0.0004*%
%ADD75R,0.0093X0.0004*%
%ADD76R,0.1411X0.0004*%
%ADD77R,0.0088X0.0004*%
%ADD78R,0.1407X0.0004*%
%ADD79R,0.0084X0.0004*%
%ADD80R,0.1402X0.0004*%
%ADD81R,0.0079X0.0004*%
%ADD82R,0.0075X0.0004*%
%ADD83R,0.1398X0.0004*%
%ADD84R,0.0071X0.0004*%
%ADD85R,0.1393X0.0004*%
%ADD86R,0.0066X0.0004*%
%ADD87R,0.1389X0.0004*%
%ADD88R,0.0062X0.0004*%
%ADD89R,0.1385X0.0004*%
%ADD90R,0.0057X0.0004*%
%ADD91R,0.1380X0.0004*%
%ADD92R,0.0053X0.0004*%
%ADD93R,0.1376X0.0004*%
%ADD94R,0.0049X0.0004*%
%ADD95R,0.1371X0.0004*%
%ADD96R,0.0044X0.0004*%
%ADD97R,0.1367X0.0004*%
%ADD98R,0.0040X0.0004*%
%ADD99R,0.1363X0.0004*%
%ADD100R,0.0035X0.0004*%
%ADD101R,0.1358X0.0004*%
%ADD102R,0.0031X0.0004*%
%ADD103R,0.1354X0.0004*%
%ADD104R,0.0026X0.0004*%
%ADD105R,0.1349X0.0004*%
%ADD106R,0.1345X0.0004*%
%ADD107R,0.0022X0.0004*%
%ADD108R,0.1340X0.0004*%
%ADD109R,0.0013X0.0004*%
%ADD110R,0.1336X0.0004*%
%ADD111R,0.0009X0.0004*%
%ADD112R,0.1332X0.0004*%
%ADD113R,0.1327X0.0004*%
%ADD114R,0.1323X0.0004*%
%ADD115R,0.1318X0.0004*%
%ADD116R,0.1314X0.0004*%
%ADD117R,0.1310X0.0004*%
%ADD118R,0.0018X0.0004*%
%ADD119R,0.1305X0.0004*%
%ADD120R,0.1301X0.0004*%
%ADD121R,0.1296X0.0004*%
%ADD122R,0.1292X0.0004*%
%ADD123R,0.1288X0.0004*%
%ADD124R,0.1283X0.0004*%
%ADD125R,0.1279X0.0004*%
%ADD126R,0.1274X0.0004*%
%ADD127R,0.1270X0.0004*%
%ADD128R,0.1266X0.0004*%
%ADD129R,0.1261X0.0004*%
%ADD130R,0.1257X0.0004*%
%ADD131R,0.1252X0.0004*%
%ADD132R,0.1248X0.0004*%
%ADD133R,0.1243X0.0004*%
%ADD134R,0.1239X0.0004*%
%ADD135R,0.1235X0.0004*%
%ADD136R,0.1230X0.0004*%
%ADD137R,0.1226X0.0004*%
%ADD138R,0.1221X0.0004*%
%ADD139R,0.1217X0.0004*%
%ADD140R,0.1213X0.0004*%
%ADD141R,0.1208X0.0004*%
%ADD142R,0.1204X0.0004*%
%ADD143R,0.1195X0.0004*%
%ADD144R,0.1191X0.0004*%
%ADD145R,0.1186X0.0004*%
%ADD146R,0.1182X0.0004*%
%ADD147R,0.1177X0.0004*%
%ADD148R,0.1173X0.0004*%
%ADD149R,0.1169X0.0004*%
%ADD150R,0.0159X0.0004*%
%ADD151R,0.1164X0.0004*%
%ADD152R,0.1160X0.0004*%
%ADD153R,0.1054X0.0004*%
%ADD154R,0.0370X0.0004*%
%ADD155R,0.0657X0.0004*%
%ADD156R,0.0842X0.0004*%
%ADD157R,0.0419X0.0004*%
%ADD158R,0.0273X0.0004*%
%ADD159R,0.0833X0.0004*%
%ADD160R,0.0459X0.0004*%
%ADD161R,0.0326X0.0004*%
%ADD162R,0.0661X0.0004*%
%ADD163R,0.0825X0.0004*%
%ADD164R,0.0485X0.0004*%
%ADD165R,0.0375X0.0004*%
%ADD166R,0.0666X0.0004*%
%ADD167R,0.0820X0.0004*%
%ADD168R,0.0498X0.0004*%
%ADD169R,0.0397X0.0004*%
%ADD170R,0.0670X0.0004*%
%ADD171R,0.0811X0.0004*%
%ADD172R,0.0525X0.0004*%
%ADD173R,0.0432X0.0004*%
%ADD174R,0.0675X0.0004*%
%ADD175R,0.0803X0.0004*%
%ADD176R,0.0538X0.0004*%
%ADD177R,0.0794X0.0004*%
%ADD178R,0.0551X0.0004*%
%ADD179R,0.0481X0.0004*%
%ADD180R,0.0683X0.0004*%
%ADD181R,0.0789X0.0004*%
%ADD182R,0.0564X0.0004*%
%ADD183R,0.0503X0.0004*%
%ADD184R,0.0780X0.0004*%
%ADD185R,0.0578X0.0004*%
%ADD186R,0.0520X0.0004*%
%ADD187R,0.0688X0.0004*%
%ADD188R,0.0772X0.0004*%
%ADD189R,0.0586X0.0004*%
%ADD190R,0.0692X0.0004*%
%ADD191R,0.0763X0.0004*%
%ADD192R,0.0595X0.0004*%
%ADD193R,0.0556X0.0004*%
%ADD194R,0.0697X0.0004*%
%ADD195R,0.0754X0.0004*%
%ADD196R,0.0604X0.0004*%
%ADD197R,0.0573X0.0004*%
%ADD198R,0.0701X0.0004*%
%ADD199R,0.0220X0.0004*%
%ADD200R,0.0745X0.0004*%
%ADD201R,0.0613X0.0004*%
%ADD202R,0.0706X0.0004*%
%ADD203R,0.0225X0.0004*%
%ADD204R,0.0736X0.0004*%
%ADD205R,0.0622X0.0004*%
%ADD206R,0.0600X0.0004*%
%ADD207R,0.0710X0.0004*%
%ADD208R,0.0229X0.0004*%
%ADD209R,0.0728X0.0004*%
%ADD210R,0.0631X0.0004*%
%ADD211R,0.0617X0.0004*%
%ADD212R,0.0234X0.0004*%
%ADD213R,0.0719X0.0004*%
%ADD214R,0.0635X0.0004*%
%ADD215R,0.0626X0.0004*%
%ADD216R,0.0714X0.0004*%
%ADD217R,0.0238X0.0004*%
%ADD218R,0.0644X0.0004*%
%ADD219R,0.0639X0.0004*%
%ADD220R,0.0243X0.0004*%
%ADD221R,0.0648X0.0004*%
%ADD222R,0.0653X0.0004*%
%ADD223R,0.0723X0.0004*%
%ADD224R,0.0247X0.0004*%
%ADD225R,0.0732X0.0004*%
%ADD226R,0.0251X0.0004*%
%ADD227R,0.0679X0.0004*%
%ADD228R,0.0256X0.0004*%
%ADD229R,0.0741X0.0004*%
%ADD230R,0.0260X0.0004*%
%ADD231R,0.0265X0.0004*%
%ADD232R,0.0269X0.0004*%
%ADD233R,0.0750X0.0004*%
%ADD234R,0.0278X0.0004*%
%ADD235R,0.0758X0.0004*%
%ADD236R,0.0282X0.0004*%
%ADD237R,0.0287X0.0004*%
%ADD238R,0.0291X0.0004*%
%ADD239R,0.0767X0.0004*%
%ADD240R,0.0295X0.0004*%
%ADD241R,0.0300X0.0004*%
%ADD242R,0.0428X0.0004*%
%ADD243R,0.0344X0.0004*%
%ADD244R,0.0340X0.0004*%
%ADD245R,0.0304X0.0004*%
%ADD246R,0.0335X0.0004*%
%ADD247R,0.0309X0.0004*%
%ADD248R,0.0569X0.0004*%
%ADD249R,0.0313X0.0004*%
%ADD250R,0.0560X0.0004*%
%ADD251R,0.0317X0.0004*%
%ADD252R,0.0547X0.0004*%
%ADD253R,0.0322X0.0004*%
%ADD254R,0.0529X0.0004*%
%ADD255R,0.0331X0.0004*%
%ADD256R,0.0516X0.0004*%
%ADD257R,0.0507X0.0004*%
%ADD258R,0.0348X0.0004*%
%ADD259R,0.0489X0.0004*%
%ADD260R,0.0353X0.0004*%
%ADD261R,0.0357X0.0004*%
%ADD262R,0.0472X0.0004*%
%ADD263R,0.0362X0.0004*%
%ADD264R,0.0463X0.0004*%
%ADD265R,0.0366X0.0004*%
%ADD266R,0.0454X0.0004*%
%ADD267R,0.0445X0.0004*%
%ADD268R,0.0437X0.0004*%
%ADD269R,0.0379X0.0004*%
%ADD270R,0.0384X0.0004*%
%ADD271R,0.0388X0.0004*%
%ADD272R,0.0414X0.0004*%
%ADD273R,0.0406X0.0004*%
%ADD274R,0.0392X0.0004*%
%ADD275R,0.0401X0.0004*%
%ADD276R,0.0410X0.0004*%
%ADD277R,0.0423X0.0004*%
%ADD278R,0.0441X0.0004*%
%ADD279R,0.0450X0.0004*%
%ADD280R,0.0467X0.0004*%
%ADD281R,0.0476X0.0004*%
%ADD282R,0.0511X0.0004*%
%ADD283R,0.0534X0.0004*%
%ADD284R,0.0542X0.0004*%
%ADD285R,0.0582X0.0004*%
%ADD286R,0.0591X0.0004*%
%ADD287R,0.0944X0.0004*%
%ADD288R,0.0609X0.0004*%
%ADD289R,0.0935X0.0004*%
%ADD290R,0.0930X0.0004*%
%ADD291R,0.0926X0.0004*%
%ADD292R,0.0785X0.0004*%
%ADD293R,0.0798X0.0004*%
%ADD294R,0.0807X0.0004*%
%ADD295R,0.0816X0.0004*%
%ADD296R,0.0829X0.0004*%
%ADD297R,0.0838X0.0004*%
%ADD298R,0.0847X0.0004*%
%ADD299R,0.0851X0.0004*%
%ADD300R,0.0855X0.0004*%
%ADD301R,0.0860X0.0004*%
%ADD302R,0.0864X0.0004*%
%ADD303R,0.0869X0.0004*%
%ADD304R,0.0873X0.0004*%
%ADD305R,0.0877X0.0004*%
%ADD306R,0.0882X0.0004*%
%ADD307R,0.0886X0.0004*%
%ADD308R,0.0891X0.0004*%
%ADD309R,0.0895X0.0004*%
%ADD310R,0.0900X0.0004*%
%ADD311R,0.0904X0.0004*%
%ADD312R,0.0908X0.0004*%
%ADD313R,0.0494X0.0004*%
%ADD314R,0.1900X0.0004*%
%ADD315R,0.1896X0.0004*%
%ADD316R,0.1892X0.0004*%
%ADD317R,0.1887X0.0004*%
%ADD318R,0.1883X0.0004*%
%ADD319R,0.1878X0.0004*%
%ADD320R,0.1874X0.0004*%
%ADD321R,0.1870X0.0004*%
%ADD322R,0.1865X0.0004*%
%ADD323R,0.1861X0.0004*%
%ADD324R,0.1856X0.0004*%
%ADD325R,0.1852X0.0004*%
%ADD326R,0.1848X0.0004*%
%ADD327R,0.1843X0.0004*%
%ADD328R,0.1839X0.0004*%
%ADD329R,0.1834X0.0004*%
%ADD330R,0.1830X0.0004*%
%ADD331R,0.1826X0.0004*%
%ADD332R,0.1821X0.0004*%
%ADD333R,0.1817X0.0004*%
%ADD334R,0.1812X0.0004*%
%ADD335R,0.1808X0.0004*%
%ADD336R,0.1799X0.0004*%
%ADD337R,0.1795X0.0004*%
%ADD338R,0.1790X0.0004*%
%ADD339R,0.1786X0.0004*%
%ADD340R,0.1781X0.0004*%
%ADD341R,0.1777X0.0004*%
%ADD342R,0.1768X0.0004*%
%ADD343R,0.0970X0.0004*%
%ADD344R,0.0974X0.0004*%
%ADD345R,0.0979X0.0004*%
%ADD346R,0.0983X0.0004*%
%ADD347R,0.0988X0.0004*%
%ADD348R,0.0992X0.0004*%
%ADD349R,0.0997X0.0004*%
%ADD350R,0.1001X0.0004*%
%ADD351R,0.1005X0.0004*%
%ADD352R,0.1010X0.0004*%
%ADD353R,0.1014X0.0004*%
%ADD354R,0.1019X0.0004*%
%ADD355R,0.1023X0.0004*%
%ADD356R,0.1027X0.0004*%
%ADD357R,0.1032X0.0004*%
%ADD358R,0.1036X0.0004*%
%ADD359R,0.1041X0.0004*%
%ADD360R,0.1045X0.0004*%
%ADD361R,0.1049X0.0004*%
%ADD362R,0.1058X0.0004*%
%ADD363R,0.1063X0.0004*%
%ADD364R,0.1067X0.0004*%
%ADD365R,0.1071X0.0004*%
%ADD366R,0.1076X0.0004*%
%ADD367R,0.1080X0.0004*%
%ADD368R,0.1085X0.0004*%
D10*
X000150Y001058D02*
X000150Y026922D01*
X000152Y026976D01*
X000157Y027029D01*
X000166Y027082D01*
X000179Y027134D01*
X000195Y027186D01*
X000215Y027236D01*
X000238Y027284D01*
X000265Y027331D01*
X000294Y027376D01*
X000327Y027419D01*
X000362Y027459D01*
X000400Y027497D01*
X000440Y027532D01*
X000483Y027565D01*
X000528Y027594D01*
X000575Y027621D01*
X000623Y027644D01*
X000673Y027664D01*
X000725Y027680D01*
X000777Y027693D01*
X000830Y027702D01*
X000883Y027707D01*
X000937Y027709D01*
X019835Y027709D01*
X019889Y027707D01*
X019942Y027702D01*
X019995Y027693D01*
X020047Y027680D01*
X020099Y027664D01*
X020149Y027644D01*
X020197Y027621D01*
X020244Y027594D01*
X020289Y027565D01*
X020332Y027532D01*
X020372Y027497D01*
X020410Y027459D01*
X020445Y027419D01*
X020478Y027376D01*
X020507Y027331D01*
X020534Y027284D01*
X020557Y027236D01*
X020577Y027186D01*
X020593Y027134D01*
X020606Y027082D01*
X020615Y027029D01*
X020620Y026976D01*
X020622Y026922D01*
X020622Y001058D01*
X020620Y001004D01*
X020615Y000950D01*
X020605Y000896D01*
X020593Y000844D01*
X020576Y000792D01*
X020556Y000741D01*
X020533Y000692D01*
X020506Y000645D01*
X020476Y000600D01*
X020444Y000556D01*
X020408Y000515D01*
X020370Y000477D01*
X020329Y000441D01*
X020285Y000409D01*
X020240Y000379D01*
X020193Y000352D01*
X020144Y000329D01*
X020093Y000309D01*
X020041Y000292D01*
X019989Y000280D01*
X019935Y000270D01*
X019881Y000265D01*
X019827Y000263D01*
X000945Y000263D01*
X000891Y000265D01*
X000837Y000270D01*
X000783Y000280D01*
X000731Y000292D01*
X000679Y000309D01*
X000628Y000329D01*
X000579Y000352D01*
X000532Y000379D01*
X000487Y000409D01*
X000443Y000441D01*
X000402Y000477D01*
X000364Y000515D01*
X000328Y000556D01*
X000296Y000600D01*
X000266Y000645D01*
X000239Y000692D01*
X000216Y000741D01*
X000196Y000792D01*
X000179Y000844D01*
X000167Y000896D01*
X000157Y000950D01*
X000152Y001004D01*
X000150Y001058D01*
X001095Y026134D02*
X001097Y026184D01*
X001103Y026234D01*
X001113Y026283D01*
X001127Y026331D01*
X001144Y026378D01*
X001165Y026423D01*
X001190Y026467D01*
X001218Y026508D01*
X001250Y026547D01*
X001284Y026584D01*
X001321Y026618D01*
X001361Y026648D01*
X001403Y026675D01*
X001447Y026699D01*
X001493Y026720D01*
X001540Y026736D01*
X001588Y026749D01*
X001638Y026758D01*
X001687Y026763D01*
X001738Y026764D01*
X001788Y026761D01*
X001837Y026754D01*
X001886Y026743D01*
X001934Y026728D01*
X001980Y026710D01*
X002025Y026688D01*
X002068Y026662D01*
X002109Y026633D01*
X002148Y026601D01*
X002184Y026566D01*
X002216Y026528D01*
X002246Y026488D01*
X002273Y026445D01*
X002296Y026401D01*
X002315Y026355D01*
X002331Y026307D01*
X002343Y026258D01*
X002351Y026209D01*
X002355Y026159D01*
X002355Y026109D01*
X002351Y026059D01*
X002343Y026010D01*
X002331Y025961D01*
X002315Y025913D01*
X002296Y025867D01*
X002273Y025823D01*
X002246Y025780D01*
X002216Y025740D01*
X002184Y025702D01*
X002148Y025667D01*
X002109Y025635D01*
X002068Y025606D01*
X002025Y025580D01*
X001980Y025558D01*
X001934Y025540D01*
X001886Y025525D01*
X001837Y025514D01*
X001788Y025507D01*
X001738Y025504D01*
X001687Y025505D01*
X001638Y025510D01*
X001588Y025519D01*
X001540Y025532D01*
X001493Y025548D01*
X001447Y025569D01*
X001403Y025593D01*
X001361Y025620D01*
X001321Y025650D01*
X001284Y025684D01*
X001250Y025721D01*
X001218Y025760D01*
X001190Y025801D01*
X001165Y025845D01*
X001144Y025890D01*
X001127Y025937D01*
X001113Y025985D01*
X001103Y026034D01*
X001097Y026084D01*
X001095Y026134D01*
X018418Y005662D02*
X018420Y005712D01*
X018426Y005762D01*
X018436Y005811D01*
X018450Y005859D01*
X018467Y005906D01*
X018488Y005951D01*
X018513Y005995D01*
X018541Y006036D01*
X018573Y006075D01*
X018607Y006112D01*
X018644Y006146D01*
X018684Y006176D01*
X018726Y006203D01*
X018770Y006227D01*
X018816Y006248D01*
X018863Y006264D01*
X018911Y006277D01*
X018961Y006286D01*
X019010Y006291D01*
X019061Y006292D01*
X019111Y006289D01*
X019160Y006282D01*
X019209Y006271D01*
X019257Y006256D01*
X019303Y006238D01*
X019348Y006216D01*
X019391Y006190D01*
X019432Y006161D01*
X019471Y006129D01*
X019507Y006094D01*
X019539Y006056D01*
X019569Y006016D01*
X019596Y005973D01*
X019619Y005929D01*
X019638Y005883D01*
X019654Y005835D01*
X019666Y005786D01*
X019674Y005737D01*
X019678Y005687D01*
X019678Y005637D01*
X019674Y005587D01*
X019666Y005538D01*
X019654Y005489D01*
X019638Y005441D01*
X019619Y005395D01*
X019596Y005351D01*
X019569Y005308D01*
X019539Y005268D01*
X019507Y005230D01*
X019471Y005195D01*
X019432Y005163D01*
X019391Y005134D01*
X019348Y005108D01*
X019303Y005086D01*
X019257Y005068D01*
X019209Y005053D01*
X019160Y005042D01*
X019111Y005035D01*
X019061Y005032D01*
X019010Y005033D01*
X018961Y005038D01*
X018911Y005047D01*
X018863Y005060D01*
X018816Y005076D01*
X018770Y005097D01*
X018726Y005121D01*
X018684Y005148D01*
X018644Y005178D01*
X018607Y005212D01*
X018573Y005249D01*
X018541Y005288D01*
X018513Y005329D01*
X018488Y005373D01*
X018467Y005418D01*
X018450Y005465D01*
X018436Y005513D01*
X018426Y005562D01*
X018420Y005612D01*
X018418Y005662D01*
D11*
X016005Y007131D02*
X016031Y007151D01*
X016054Y007173D01*
X016075Y007198D01*
X016093Y007225D01*
X016108Y007254D01*
X016119Y007285D01*
X016127Y007316D01*
X016132Y007348D01*
X016133Y007381D01*
X016130Y007413D01*
X016124Y007445D01*
X016114Y007476D01*
X016101Y007506D01*
X016085Y007534D01*
X016065Y007560D01*
X015675Y007615D02*
X015649Y007595D01*
X015626Y007573D01*
X015605Y007548D01*
X015587Y007521D01*
X015572Y007492D01*
X015561Y007461D01*
X015553Y007430D01*
X015548Y007398D01*
X015547Y007365D01*
X015550Y007333D01*
X015556Y007301D01*
X015566Y007270D01*
X015579Y007240D01*
X015595Y007212D01*
X015615Y007186D01*
X015705Y005040D02*
X015725Y005014D01*
X015741Y004986D01*
X015754Y004956D01*
X015764Y004925D01*
X015770Y004893D01*
X015773Y004861D01*
X015772Y004828D01*
X015767Y004796D01*
X015759Y004765D01*
X015748Y004734D01*
X015733Y004705D01*
X015715Y004678D01*
X015694Y004653D01*
X015671Y004631D01*
X015645Y004611D01*
X015255Y004666D02*
X015235Y004692D01*
X015219Y004720D01*
X015206Y004750D01*
X015196Y004781D01*
X015190Y004813D01*
X015187Y004845D01*
X015188Y004878D01*
X015193Y004910D01*
X015201Y004941D01*
X015212Y004972D01*
X015227Y005001D01*
X015245Y005028D01*
X015266Y005053D01*
X015289Y005075D01*
X015315Y005095D01*
X014367Y003160D02*
X014344Y003183D01*
X014318Y003203D01*
X014290Y003220D01*
X014261Y003234D01*
X014230Y003245D01*
X014199Y003252D01*
X014166Y003256D01*
X014134Y003256D01*
X014101Y003252D01*
X014070Y003245D01*
X014039Y003234D01*
X014010Y003220D01*
X013982Y003203D01*
X013956Y003183D01*
X013933Y003160D01*
X013933Y002766D02*
X013956Y002743D01*
X013982Y002723D01*
X014010Y002706D01*
X014039Y002692D01*
X014070Y002681D01*
X014101Y002674D01*
X014134Y002670D01*
X014166Y002670D01*
X014199Y002674D01*
X014230Y002681D01*
X014261Y002692D01*
X014290Y002706D01*
X014318Y002723D01*
X014344Y002743D01*
X014367Y002766D01*
X014170Y002243D02*
X014170Y001783D01*
X014170Y001936D02*
X014400Y002090D01*
X014554Y002166D02*
X014630Y002243D01*
X014784Y002243D01*
X014861Y002166D01*
X014861Y002090D01*
X014554Y001783D01*
X014861Y001783D01*
X015170Y001783D02*
X015170Y002243D01*
X015400Y002090D02*
X015170Y001936D01*
X015400Y001783D01*
X015554Y001859D02*
X015630Y001783D01*
X015784Y001783D01*
X015861Y001859D01*
X015861Y001936D01*
X015784Y002013D01*
X015707Y002013D01*
X015784Y002013D02*
X015861Y002090D01*
X015861Y002166D01*
X015784Y002243D01*
X015630Y002243D01*
X015554Y002166D01*
X016170Y002243D02*
X016170Y001783D01*
X016170Y001936D02*
X016400Y002090D01*
X016554Y002013D02*
X016861Y002013D01*
X016784Y001783D02*
X016784Y002243D01*
X016554Y002013D01*
X016400Y001783D02*
X016170Y001936D01*
X014400Y001783D02*
X014170Y001936D01*
X013861Y001783D02*
X013554Y001783D01*
X013707Y001783D02*
X013707Y002243D01*
X013554Y002090D01*
X013400Y002090D02*
X013170Y001936D01*
X013400Y001783D01*
X013170Y001783D02*
X013170Y002243D01*
X012861Y002166D02*
X012861Y001859D01*
X012784Y001783D01*
X012630Y001783D01*
X012554Y001859D01*
X012861Y002166D01*
X012784Y002243D01*
X012630Y002243D01*
X012554Y002166D01*
X012554Y001859D01*
X012400Y001783D02*
X012170Y001936D01*
X012400Y002090D01*
X012170Y002243D02*
X012170Y001783D01*
X010877Y002766D02*
X010854Y002743D01*
X010828Y002723D01*
X010800Y002706D01*
X010771Y002692D01*
X010740Y002681D01*
X010709Y002674D01*
X010676Y002670D01*
X010644Y002670D01*
X010611Y002674D01*
X010580Y002681D01*
X010549Y002692D01*
X010520Y002706D01*
X010492Y002723D01*
X010466Y002743D01*
X010443Y002766D01*
X010443Y003160D02*
X010466Y003183D01*
X010492Y003203D01*
X010520Y003220D01*
X010549Y003234D01*
X010580Y003245D01*
X010611Y003252D01*
X010644Y003256D01*
X010676Y003256D01*
X010709Y003252D01*
X010740Y003245D01*
X010771Y003234D01*
X010800Y003220D01*
X010828Y003203D01*
X010854Y003183D01*
X010877Y003160D01*
X010577Y002243D02*
X010577Y001783D01*
X010577Y002013D02*
X010270Y002013D01*
X010270Y001783D02*
X010270Y002243D01*
X009577Y002166D02*
X009500Y002243D01*
X009347Y002243D01*
X009270Y002166D01*
X009270Y001859D01*
X009347Y001783D01*
X009500Y001783D01*
X009577Y001859D01*
X009577Y002013D01*
X009423Y002013D01*
X008677Y002243D02*
X008370Y002243D01*
X008370Y001783D01*
X008370Y002013D02*
X008523Y002013D01*
X007577Y002243D02*
X007270Y002243D01*
X007270Y001783D01*
X007577Y001783D01*
X007423Y002013D02*
X007270Y002013D01*
X006577Y001859D02*
X006577Y002166D01*
X006500Y002243D01*
X006270Y002243D01*
X006270Y001783D01*
X006500Y001783D01*
X006577Y001859D01*
X007233Y002766D02*
X007256Y002743D01*
X007282Y002723D01*
X007310Y002706D01*
X007339Y002692D01*
X007370Y002681D01*
X007401Y002674D01*
X007434Y002670D01*
X007466Y002670D01*
X007499Y002674D01*
X007530Y002681D01*
X007561Y002692D01*
X007590Y002706D01*
X007618Y002723D01*
X007644Y002743D01*
X007667Y002766D01*
X007667Y003160D02*
X007644Y003183D01*
X007618Y003203D01*
X007590Y003220D01*
X007561Y003234D01*
X007530Y003245D01*
X007499Y003252D01*
X007466Y003256D01*
X007434Y003256D01*
X007401Y003252D01*
X007370Y003245D01*
X007339Y003234D01*
X007310Y003220D01*
X007282Y003203D01*
X007256Y003183D01*
X007233Y003160D01*
X005577Y002166D02*
X005500Y002243D01*
X005347Y002243D01*
X005270Y002166D01*
X005270Y001859D01*
X005347Y001783D01*
X005500Y001783D01*
X005577Y001859D01*
X004577Y001859D02*
X004500Y001783D01*
X004270Y001783D01*
X004270Y002243D01*
X004500Y002243D01*
X004577Y002166D01*
X004577Y002090D01*
X004500Y002013D01*
X004270Y002013D01*
X004500Y002013D02*
X004577Y001936D01*
X004577Y001859D01*
X004067Y002766D02*
X004044Y002743D01*
X004018Y002723D01*
X003990Y002706D01*
X003961Y002692D01*
X003930Y002681D01*
X003899Y002674D01*
X003866Y002670D01*
X003834Y002670D01*
X003801Y002674D01*
X003770Y002681D01*
X003739Y002692D01*
X003710Y002706D01*
X003682Y002723D01*
X003656Y002743D01*
X003633Y002766D01*
X003633Y003160D02*
X003656Y003183D01*
X003682Y003203D01*
X003710Y003220D01*
X003739Y003234D01*
X003770Y003245D01*
X003801Y003252D01*
X003834Y003256D01*
X003866Y003256D01*
X003899Y003252D01*
X003930Y003245D01*
X003961Y003234D01*
X003990Y003220D01*
X004018Y003203D01*
X004044Y003183D01*
X004067Y003160D01*
X003423Y002243D02*
X003577Y002090D01*
X003577Y001783D01*
X003577Y002013D02*
X003270Y002013D01*
X003270Y002090D02*
X003423Y002243D01*
X003270Y002090D02*
X003270Y001783D01*
X002745Y004776D02*
X002725Y004802D01*
X002709Y004830D01*
X002696Y004860D01*
X002686Y004891D01*
X002680Y004923D01*
X002677Y004955D01*
X002678Y004988D01*
X002683Y005020D01*
X002691Y005051D01*
X002702Y005082D01*
X002717Y005111D01*
X002735Y005138D01*
X002756Y005163D01*
X002779Y005185D01*
X002805Y005205D01*
X003195Y005150D02*
X003215Y005124D01*
X003231Y005096D01*
X003244Y005066D01*
X003254Y005035D01*
X003260Y005003D01*
X003263Y004971D01*
X003262Y004938D01*
X003257Y004906D01*
X003249Y004875D01*
X003238Y004844D01*
X003223Y004815D01*
X003205Y004788D01*
X003184Y004763D01*
X003161Y004741D01*
X003135Y004721D01*
X003085Y007266D02*
X003065Y007292D01*
X003049Y007320D01*
X003036Y007350D01*
X003026Y007381D01*
X003020Y007413D01*
X003017Y007445D01*
X003018Y007478D01*
X003023Y007510D01*
X003031Y007541D01*
X003042Y007572D01*
X003057Y007601D01*
X003075Y007628D01*
X003096Y007653D01*
X003119Y007675D01*
X003145Y007695D01*
X003535Y007640D02*
X003555Y007614D01*
X003571Y007586D01*
X003584Y007556D01*
X003594Y007525D01*
X003600Y007493D01*
X003603Y007461D01*
X003602Y007428D01*
X003597Y007396D01*
X003589Y007365D01*
X003578Y007334D01*
X003563Y007305D01*
X003545Y007278D01*
X003524Y007253D01*
X003501Y007231D01*
X003475Y007211D01*
X002334Y008683D02*
X002334Y009143D01*
X002104Y008913D01*
X002411Y008913D01*
X001950Y008990D02*
X001720Y008836D01*
X001950Y008683D01*
X001720Y008683D02*
X001720Y009143D01*
X001720Y009683D02*
X001720Y010143D01*
X001950Y009990D02*
X001720Y009836D01*
X001950Y009683D01*
X002104Y009759D02*
X002180Y009683D01*
X002334Y009683D01*
X002411Y009759D01*
X002411Y009836D01*
X002334Y009913D01*
X002257Y009913D01*
X002334Y009913D02*
X002411Y009990D01*
X002411Y010066D01*
X002334Y010143D01*
X002180Y010143D01*
X002104Y010066D01*
X002104Y010683D02*
X002411Y010990D01*
X002411Y011066D01*
X002334Y011143D01*
X002180Y011143D01*
X002104Y011066D01*
X001950Y010990D02*
X001720Y010836D01*
X001950Y010683D01*
X002104Y010683D02*
X002411Y010683D01*
X001720Y010683D02*
X001720Y011143D01*
X001720Y011683D02*
X001720Y012143D01*
X001950Y011990D02*
X001720Y011836D01*
X001950Y011683D01*
X002104Y011683D02*
X002411Y011683D01*
X002257Y011683D02*
X002257Y012143D01*
X002104Y011990D01*
X002180Y012683D02*
X002104Y012759D01*
X002411Y013066D01*
X002411Y012759D01*
X002334Y012683D01*
X002180Y012683D01*
X002104Y012759D02*
X002104Y013066D01*
X002180Y013143D01*
X002334Y013143D01*
X002411Y013066D01*
X001950Y012990D02*
X001720Y012836D01*
X001950Y012683D01*
X001720Y012683D02*
X001720Y013143D01*
X001873Y013683D02*
X001720Y013836D01*
X001720Y014143D01*
X002027Y014143D02*
X002027Y013836D01*
X001873Y013683D01*
X002180Y013759D02*
X002180Y014066D01*
X002257Y014143D01*
X002411Y014143D01*
X002487Y014066D01*
X002641Y014066D02*
X002641Y013759D01*
X002718Y013683D01*
X002871Y013683D01*
X002948Y013759D01*
X002948Y014066D02*
X002871Y014143D01*
X002718Y014143D01*
X002641Y014066D01*
X002487Y013759D02*
X002411Y013683D01*
X002257Y013683D01*
X002180Y013759D01*
X002027Y014683D02*
X002027Y015143D01*
X002027Y014913D02*
X001720Y014913D01*
X001720Y014683D02*
X001720Y015143D01*
X001797Y015683D02*
X001950Y015683D01*
X002027Y015759D01*
X002027Y015913D01*
X001873Y015913D01*
X001720Y016066D02*
X001720Y015759D01*
X001797Y015683D01*
X001720Y016066D02*
X001797Y016143D01*
X001950Y016143D01*
X002027Y016066D01*
X001720Y016683D02*
X001720Y017143D01*
X002027Y017143D01*
X001873Y016913D02*
X001720Y016913D01*
X001720Y017683D02*
X002027Y017683D01*
X001873Y017913D02*
X001720Y017913D01*
X001720Y018143D02*
X001720Y017683D01*
X001720Y018143D02*
X002027Y018143D01*
X001950Y018683D02*
X001720Y018683D01*
X001720Y019143D01*
X001950Y019143D01*
X002027Y019066D01*
X002027Y018759D01*
X001950Y018683D01*
X001950Y019683D02*
X001797Y019683D01*
X001720Y019759D01*
X001720Y020066D01*
X001797Y020143D01*
X001950Y020143D01*
X002027Y020066D01*
X002027Y019759D02*
X001950Y019683D01*
X001950Y020683D02*
X001720Y020683D01*
X001720Y021143D01*
X001950Y021143D01*
X002027Y021066D01*
X002027Y020990D01*
X001950Y020913D01*
X001720Y020913D01*
X001950Y020913D02*
X002027Y020836D01*
X002027Y020759D01*
X001950Y020683D01*
X002027Y021683D02*
X002027Y021990D01*
X001873Y022143D01*
X001720Y021990D01*
X001720Y021683D01*
X001720Y021913D02*
X002027Y021913D01*
X004745Y019225D02*
X004719Y019205D01*
X004696Y019183D01*
X004675Y019158D01*
X004657Y019131D01*
X004642Y019102D01*
X004631Y019071D01*
X004623Y019040D01*
X004618Y019008D01*
X004617Y018975D01*
X004620Y018943D01*
X004626Y018911D01*
X004636Y018880D01*
X004649Y018850D01*
X004665Y018822D01*
X004685Y018796D01*
X005075Y018741D02*
X005101Y018761D01*
X005124Y018783D01*
X005145Y018808D01*
X005163Y018835D01*
X005178Y018864D01*
X005189Y018895D01*
X005197Y018926D01*
X005202Y018958D01*
X005203Y018991D01*
X005200Y019023D01*
X005194Y019055D01*
X005184Y019086D01*
X005171Y019116D01*
X005155Y019144D01*
X005135Y019170D01*
X005045Y021376D02*
X005025Y021402D01*
X005009Y021430D01*
X004996Y021460D01*
X004986Y021491D01*
X004980Y021523D01*
X004977Y021555D01*
X004978Y021588D01*
X004983Y021620D01*
X004991Y021651D01*
X005002Y021682D01*
X005017Y021711D01*
X005035Y021738D01*
X005056Y021763D01*
X005079Y021785D01*
X005105Y021805D01*
X005495Y021750D02*
X005515Y021724D01*
X005531Y021696D01*
X005544Y021666D01*
X005554Y021635D01*
X005560Y021603D01*
X005563Y021571D01*
X005562Y021538D01*
X005557Y021506D01*
X005549Y021475D01*
X005538Y021444D01*
X005523Y021415D01*
X005505Y021388D01*
X005484Y021363D01*
X005461Y021341D01*
X005435Y021321D01*
X005425Y023976D02*
X005405Y024002D01*
X005389Y024030D01*
X005376Y024060D01*
X005366Y024091D01*
X005360Y024123D01*
X005357Y024155D01*
X005358Y024188D01*
X005363Y024220D01*
X005371Y024251D01*
X005382Y024282D01*
X005397Y024311D01*
X005415Y024338D01*
X005436Y024363D01*
X005459Y024385D01*
X005485Y024405D01*
X005875Y024350D02*
X005895Y024324D01*
X005911Y024296D01*
X005924Y024266D01*
X005934Y024235D01*
X005940Y024203D01*
X005943Y024171D01*
X005942Y024138D01*
X005937Y024106D01*
X005929Y024075D01*
X005918Y024044D01*
X005903Y024015D01*
X005885Y023988D01*
X005864Y023963D01*
X005841Y023941D01*
X005815Y023921D01*
X006733Y025766D02*
X006756Y025743D01*
X006782Y025723D01*
X006810Y025706D01*
X006839Y025692D01*
X006870Y025681D01*
X006901Y025674D01*
X006934Y025670D01*
X006966Y025670D01*
X006999Y025674D01*
X007030Y025681D01*
X007061Y025692D01*
X007090Y025706D01*
X007118Y025723D01*
X007144Y025743D01*
X007167Y025766D01*
X007167Y026160D02*
X007144Y026183D01*
X007118Y026203D01*
X007090Y026220D01*
X007061Y026234D01*
X007030Y026245D01*
X006999Y026252D01*
X006966Y026256D01*
X006934Y026256D01*
X006901Y026252D01*
X006870Y026245D01*
X006839Y026234D01*
X006810Y026220D01*
X006782Y026203D01*
X006756Y026183D01*
X006733Y026160D01*
X010233Y026160D02*
X010256Y026183D01*
X010282Y026203D01*
X010310Y026220D01*
X010339Y026234D01*
X010370Y026245D01*
X010401Y026252D01*
X010434Y026256D01*
X010466Y026256D01*
X010499Y026252D01*
X010530Y026245D01*
X010561Y026234D01*
X010590Y026220D01*
X010618Y026203D01*
X010644Y026183D01*
X010667Y026160D01*
X010667Y025766D02*
X010644Y025743D01*
X010618Y025723D01*
X010590Y025706D01*
X010561Y025692D01*
X010530Y025681D01*
X010499Y025674D01*
X010466Y025670D01*
X010434Y025670D01*
X010401Y025674D01*
X010370Y025681D01*
X010339Y025692D01*
X010310Y025706D01*
X010282Y025723D01*
X010256Y025743D01*
X010233Y025766D01*
X013633Y026160D02*
X013656Y026183D01*
X013682Y026203D01*
X013710Y026220D01*
X013739Y026234D01*
X013770Y026245D01*
X013801Y026252D01*
X013834Y026256D01*
X013866Y026256D01*
X013899Y026252D01*
X013930Y026245D01*
X013961Y026234D01*
X013990Y026220D01*
X014018Y026203D01*
X014044Y026183D01*
X014067Y026160D01*
X014067Y025766D02*
X014044Y025743D01*
X014018Y025723D01*
X013990Y025706D01*
X013961Y025692D01*
X013930Y025681D01*
X013899Y025674D01*
X013866Y025670D01*
X013834Y025670D01*
X013801Y025674D01*
X013770Y025681D01*
X013739Y025692D01*
X013710Y025706D01*
X013682Y025723D01*
X013656Y025743D01*
X013633Y025766D01*
X017133Y026160D02*
X017156Y026183D01*
X017182Y026203D01*
X017210Y026220D01*
X017239Y026234D01*
X017270Y026245D01*
X017301Y026252D01*
X017334Y026256D01*
X017366Y026256D01*
X017399Y026252D01*
X017430Y026245D01*
X017461Y026234D01*
X017490Y026220D01*
X017518Y026203D01*
X017544Y026183D01*
X017567Y026160D01*
X017567Y025766D02*
X017544Y025743D01*
X017518Y025723D01*
X017490Y025706D01*
X017461Y025692D01*
X017430Y025681D01*
X017399Y025674D01*
X017366Y025670D01*
X017334Y025670D01*
X017301Y025674D01*
X017270Y025681D01*
X017239Y025692D01*
X017210Y025706D01*
X017182Y025723D01*
X017156Y025743D01*
X017133Y025766D01*
X018385Y024230D02*
X018405Y024204D01*
X018421Y024176D01*
X018434Y024146D01*
X018444Y024115D01*
X018450Y024083D01*
X018453Y024051D01*
X018452Y024018D01*
X018447Y023986D01*
X018439Y023955D01*
X018428Y023924D01*
X018413Y023895D01*
X018395Y023868D01*
X018374Y023843D01*
X018351Y023821D01*
X018325Y023801D01*
X017935Y023856D02*
X017915Y023882D01*
X017899Y023910D01*
X017886Y023940D01*
X017876Y023971D01*
X017870Y024003D01*
X017867Y024035D01*
X017868Y024068D01*
X017873Y024100D01*
X017881Y024131D01*
X017892Y024162D01*
X017907Y024191D01*
X017925Y024218D01*
X017946Y024243D01*
X017969Y024265D01*
X017995Y024285D01*
X018823Y022143D02*
X018977Y021990D01*
X018977Y021683D01*
X018977Y021913D02*
X018670Y021913D01*
X018670Y021990D02*
X018823Y022143D01*
X018670Y021990D02*
X018670Y021683D01*
X018670Y021143D02*
X018900Y021143D01*
X018977Y021066D01*
X018977Y020990D01*
X018900Y020913D01*
X018670Y020913D01*
X018670Y020683D02*
X018670Y021143D01*
X018900Y020913D02*
X018977Y020836D01*
X018977Y020759D01*
X018900Y020683D01*
X018670Y020683D01*
X018747Y020143D02*
X018670Y020066D01*
X018670Y019759D01*
X018747Y019683D01*
X018900Y019683D01*
X018977Y019759D01*
X018977Y020066D02*
X018900Y020143D01*
X018747Y020143D01*
X018670Y019143D02*
X018900Y019143D01*
X018977Y019066D01*
X018977Y018759D01*
X018900Y018683D01*
X018670Y018683D01*
X018670Y019143D01*
X018670Y018143D02*
X018670Y017683D01*
X018977Y017683D01*
X018823Y017913D02*
X018670Y017913D01*
X018670Y018143D02*
X018977Y018143D01*
X018977Y017143D02*
X018670Y017143D01*
X018670Y016683D01*
X018670Y016913D02*
X018823Y016913D01*
X018747Y016143D02*
X018670Y016066D01*
X018670Y015759D01*
X018747Y015683D01*
X018900Y015683D01*
X018977Y015759D01*
X018977Y015913D01*
X018823Y015913D01*
X018977Y016066D02*
X018900Y016143D01*
X018747Y016143D01*
X018670Y015143D02*
X018670Y014683D01*
X018670Y014913D02*
X018977Y014913D01*
X018977Y015143D02*
X018977Y014683D01*
X018774Y013964D02*
X018641Y013887D01*
X018613Y013783D01*
X018766Y013517D01*
X018871Y013489D01*
X019004Y013565D01*
X019032Y013670D01*
X018879Y013936D02*
X018774Y013964D01*
X018480Y013706D02*
X018375Y013734D01*
X018242Y013657D01*
X018214Y013552D01*
X018368Y013287D01*
X018472Y013258D01*
X018605Y013335D01*
X018633Y013440D01*
X018470Y013143D02*
X018470Y012683D01*
X018470Y012836D02*
X018700Y012990D01*
X018854Y012990D02*
X019007Y013143D01*
X019007Y012683D01*
X018854Y012683D02*
X019161Y012683D01*
X018700Y012683D02*
X018470Y012836D01*
X018140Y013067D02*
X018196Y013276D01*
X018043Y013542D01*
X017777Y013389D02*
X017931Y013123D01*
X018140Y013067D01*
X018470Y012143D02*
X018470Y011683D01*
X018470Y011836D02*
X018700Y011990D01*
X018854Y012066D02*
X018930Y012143D01*
X019084Y012143D01*
X019161Y012066D01*
X019161Y011990D01*
X018854Y011683D01*
X019161Y011683D01*
X018700Y011683D02*
X018470Y011836D01*
X018470Y011143D02*
X018470Y010683D01*
X018470Y010836D02*
X018700Y010990D01*
X018854Y011066D02*
X018930Y011143D01*
X019084Y011143D01*
X019161Y011066D01*
X019161Y010990D01*
X019084Y010913D01*
X019161Y010836D01*
X019161Y010759D01*
X019084Y010683D01*
X018930Y010683D01*
X018854Y010759D01*
X018700Y010683D02*
X018470Y010836D01*
X018470Y010143D02*
X018470Y009683D01*
X018470Y009836D02*
X018700Y009990D01*
X018854Y009913D02*
X019161Y009913D01*
X019084Y009683D02*
X019084Y010143D01*
X018854Y009913D01*
X018700Y009683D02*
X018470Y009836D01*
X019007Y010913D02*
X019084Y010913D01*
X016725Y012321D02*
X016751Y012341D01*
X016774Y012363D01*
X016795Y012388D01*
X016813Y012415D01*
X016828Y012444D01*
X016839Y012475D01*
X016847Y012506D01*
X016852Y012538D01*
X016853Y012571D01*
X016850Y012603D01*
X016844Y012635D01*
X016834Y012666D01*
X016821Y012696D01*
X016805Y012724D01*
X016785Y012750D01*
X016395Y012805D02*
X016369Y012785D01*
X016346Y012763D01*
X016325Y012738D01*
X016307Y012711D01*
X016292Y012682D01*
X016281Y012651D01*
X016273Y012620D01*
X016268Y012588D01*
X016267Y012555D01*
X016270Y012523D01*
X016276Y012491D01*
X016286Y012460D01*
X016299Y012430D01*
X016315Y012402D01*
X016335Y012376D01*
X015967Y014266D02*
X015944Y014243D01*
X015918Y014223D01*
X015890Y014206D01*
X015861Y014192D01*
X015830Y014181D01*
X015799Y014174D01*
X015766Y014170D01*
X015734Y014170D01*
X015701Y014174D01*
X015670Y014181D01*
X015639Y014192D01*
X015610Y014206D01*
X015582Y014223D01*
X015556Y014243D01*
X015533Y014266D01*
X015533Y014660D02*
X015556Y014683D01*
X015582Y014703D01*
X015610Y014720D01*
X015639Y014734D01*
X015670Y014745D01*
X015701Y014752D01*
X015734Y014756D01*
X015766Y014756D01*
X015799Y014752D01*
X015830Y014745D01*
X015861Y014734D01*
X015890Y014720D01*
X015918Y014703D01*
X015944Y014683D01*
X015967Y014660D01*
X017245Y016021D02*
X017271Y016041D01*
X017294Y016063D01*
X017315Y016088D01*
X017333Y016115D01*
X017348Y016144D01*
X017359Y016175D01*
X017367Y016206D01*
X017372Y016238D01*
X017373Y016271D01*
X017370Y016303D01*
X017364Y016335D01*
X017354Y016366D01*
X017341Y016396D01*
X017325Y016424D01*
X017305Y016450D01*
X016915Y016505D02*
X016889Y016485D01*
X016866Y016463D01*
X016845Y016438D01*
X016827Y016411D01*
X016812Y016382D01*
X016801Y016351D01*
X016793Y016320D01*
X016788Y016288D01*
X016787Y016255D01*
X016790Y016223D01*
X016796Y016191D01*
X016806Y016160D01*
X016819Y016130D01*
X016835Y016102D01*
X016855Y016076D01*
X017615Y018621D02*
X017641Y018641D01*
X017664Y018663D01*
X017685Y018688D01*
X017703Y018715D01*
X017718Y018744D01*
X017729Y018775D01*
X017737Y018806D01*
X017742Y018838D01*
X017743Y018871D01*
X017740Y018903D01*
X017734Y018935D01*
X017724Y018966D01*
X017711Y018996D01*
X017695Y019024D01*
X017675Y019050D01*
X017285Y019105D02*
X017259Y019085D01*
X017236Y019063D01*
X017215Y019038D01*
X017197Y019011D01*
X017182Y018982D01*
X017171Y018951D01*
X017163Y018920D01*
X017158Y018888D01*
X017157Y018855D01*
X017160Y018823D01*
X017166Y018791D01*
X017176Y018760D01*
X017189Y018730D01*
X017205Y018702D01*
X017225Y018676D01*
X017965Y021221D02*
X017991Y021241D01*
X018014Y021263D01*
X018035Y021288D01*
X018053Y021315D01*
X018068Y021344D01*
X018079Y021375D01*
X018087Y021406D01*
X018092Y021438D01*
X018093Y021471D01*
X018090Y021503D01*
X018084Y021535D01*
X018074Y021566D01*
X018061Y021596D01*
X018045Y021624D01*
X018025Y021650D01*
X017635Y021705D02*
X017609Y021685D01*
X017586Y021663D01*
X017565Y021638D01*
X017547Y021611D01*
X017532Y021582D01*
X017521Y021551D01*
X017513Y021520D01*
X017508Y021488D01*
X017507Y021455D01*
X017510Y021423D01*
X017516Y021391D01*
X017526Y021360D01*
X017539Y021330D01*
X017555Y021302D01*
X017575Y021276D01*
X012467Y014660D02*
X012444Y014683D01*
X012418Y014703D01*
X012390Y014720D01*
X012361Y014734D01*
X012330Y014745D01*
X012299Y014752D01*
X012266Y014756D01*
X012234Y014756D01*
X012201Y014752D01*
X012170Y014745D01*
X012139Y014734D01*
X012110Y014720D01*
X012082Y014703D01*
X012056Y014683D01*
X012033Y014660D01*
X012033Y014266D02*
X012056Y014243D01*
X012082Y014223D01*
X012110Y014206D01*
X012139Y014192D01*
X012170Y014181D01*
X012201Y014174D01*
X012234Y014170D01*
X012266Y014170D01*
X012299Y014174D01*
X012330Y014181D01*
X012361Y014192D01*
X012390Y014206D01*
X012418Y014223D01*
X012444Y014243D01*
X012467Y014266D01*
X009167Y014660D02*
X009144Y014683D01*
X009118Y014703D01*
X009090Y014720D01*
X009061Y014734D01*
X009030Y014745D01*
X008999Y014752D01*
X008966Y014756D01*
X008934Y014756D01*
X008901Y014752D01*
X008870Y014745D01*
X008839Y014734D01*
X008810Y014720D01*
X008782Y014703D01*
X008756Y014683D01*
X008733Y014660D01*
X008733Y014266D02*
X008756Y014243D01*
X008782Y014223D01*
X008810Y014206D01*
X008839Y014192D01*
X008870Y014181D01*
X008901Y014174D01*
X008934Y014170D01*
X008966Y014170D01*
X008999Y014174D01*
X009030Y014181D01*
X009061Y014192D01*
X009090Y014206D01*
X009118Y014223D01*
X009144Y014243D01*
X009167Y014266D01*
X005667Y014660D02*
X005644Y014683D01*
X005618Y014703D01*
X005590Y014720D01*
X005561Y014734D01*
X005530Y014745D01*
X005499Y014752D01*
X005466Y014756D01*
X005434Y014756D01*
X005401Y014752D01*
X005370Y014745D01*
X005339Y014734D01*
X005310Y014720D01*
X005282Y014703D01*
X005256Y014683D01*
X005233Y014660D01*
X005233Y014266D02*
X005256Y014243D01*
X005282Y014223D01*
X005310Y014206D01*
X005339Y014192D01*
X005370Y014181D01*
X005401Y014174D01*
X005434Y014170D01*
X005466Y014170D01*
X005499Y014174D01*
X005530Y014181D01*
X005561Y014192D01*
X005590Y014206D01*
X005618Y014223D01*
X005644Y014243D01*
X005667Y014266D01*
X004325Y016176D02*
X004305Y016202D01*
X004289Y016230D01*
X004276Y016260D01*
X004266Y016291D01*
X004260Y016323D01*
X004257Y016355D01*
X004258Y016388D01*
X004263Y016420D01*
X004271Y016451D01*
X004282Y016482D01*
X004297Y016511D01*
X004315Y016538D01*
X004336Y016563D01*
X004359Y016585D01*
X004385Y016605D01*
X004775Y016550D02*
X004795Y016524D01*
X004811Y016496D01*
X004824Y016466D01*
X004834Y016435D01*
X004840Y016403D01*
X004843Y016371D01*
X004842Y016338D01*
X004837Y016306D01*
X004829Y016275D01*
X004818Y016244D01*
X004803Y016215D01*
X004785Y016188D01*
X004764Y016163D01*
X004741Y016141D01*
X004715Y016121D01*
X003885Y012905D02*
X003859Y012885D01*
X003836Y012863D01*
X003815Y012838D01*
X003797Y012811D01*
X003782Y012782D01*
X003771Y012751D01*
X003763Y012720D01*
X003758Y012688D01*
X003757Y012655D01*
X003760Y012623D01*
X003766Y012591D01*
X003776Y012560D01*
X003789Y012530D01*
X003805Y012502D01*
X003825Y012476D01*
X004215Y012421D02*
X004241Y012441D01*
X004264Y012463D01*
X004285Y012488D01*
X004303Y012515D01*
X004318Y012544D01*
X004329Y012575D01*
X004337Y012606D01*
X004342Y012638D01*
X004343Y012671D01*
X004340Y012703D01*
X004334Y012735D01*
X004324Y012766D01*
X004311Y012796D01*
X004295Y012824D01*
X004275Y012850D01*
X003505Y010305D02*
X003479Y010285D01*
X003456Y010263D01*
X003435Y010238D01*
X003417Y010211D01*
X003402Y010182D01*
X003391Y010151D01*
X003383Y010120D01*
X003378Y010088D01*
X003377Y010055D01*
X003380Y010023D01*
X003386Y009991D01*
X003396Y009960D01*
X003409Y009930D01*
X003425Y009902D01*
X003445Y009876D01*
X003835Y009821D02*
X003861Y009841D01*
X003884Y009863D01*
X003905Y009888D01*
X003923Y009915D01*
X003938Y009944D01*
X003949Y009975D01*
X003957Y010006D01*
X003962Y010038D01*
X003963Y010071D01*
X003960Y010103D01*
X003954Y010135D01*
X003944Y010166D01*
X003931Y010196D01*
X003915Y010224D01*
X003895Y010250D01*
X016365Y009721D02*
X016391Y009741D01*
X016414Y009763D01*
X016435Y009788D01*
X016453Y009815D01*
X016468Y009844D01*
X016479Y009875D01*
X016487Y009906D01*
X016492Y009938D01*
X016493Y009971D01*
X016490Y010003D01*
X016484Y010035D01*
X016474Y010066D01*
X016461Y010096D01*
X016445Y010124D01*
X016425Y010150D01*
X016035Y010205D02*
X016009Y010185D01*
X015986Y010163D01*
X015965Y010138D01*
X015947Y010111D01*
X015932Y010082D01*
X015921Y010051D01*
X015913Y010020D01*
X015908Y009988D01*
X015907Y009955D01*
X015910Y009923D01*
X015916Y009891D01*
X015926Y009860D01*
X015939Y009830D01*
X015955Y009802D01*
X015975Y009776D01*
X018133Y002660D02*
X018156Y002683D01*
X018182Y002703D01*
X018210Y002720D01*
X018239Y002734D01*
X018270Y002745D01*
X018301Y002752D01*
X018334Y002756D01*
X018366Y002756D01*
X018399Y002752D01*
X018430Y002745D01*
X018461Y002734D01*
X018490Y002720D01*
X018518Y002703D01*
X018544Y002683D01*
X018567Y002660D01*
X018567Y002266D02*
X018544Y002243D01*
X018518Y002223D01*
X018490Y002206D01*
X018461Y002192D01*
X018430Y002181D01*
X018399Y002174D01*
X018366Y002170D01*
X018334Y002170D01*
X018301Y002174D01*
X018270Y002181D01*
X018239Y002192D01*
X018210Y002206D01*
X018182Y002223D01*
X018156Y002243D01*
X018133Y002266D01*
D12*
X018181Y002048D02*
X018326Y002048D01*
X018375Y001999D01*
X018375Y001806D01*
X018326Y001758D01*
X018181Y001758D01*
X018181Y002048D01*
X018080Y002048D02*
X017886Y002048D01*
X017886Y001758D01*
X018080Y001758D01*
X017983Y001903D02*
X017886Y001903D01*
X017785Y001758D02*
X017592Y001758D01*
X017592Y002048D01*
X018476Y001999D02*
X018524Y002048D01*
X018621Y002048D01*
X018669Y001999D01*
X018669Y001951D01*
X018621Y001903D01*
X018669Y001854D01*
X018669Y001806D01*
X018621Y001758D01*
X018524Y001758D01*
X018476Y001806D01*
X018572Y001903D02*
X018621Y001903D01*
X018770Y001999D02*
X018819Y002048D01*
X018915Y002048D01*
X018964Y001999D01*
X018770Y001806D01*
X018819Y001758D01*
X018915Y001758D01*
X018964Y001806D01*
X018964Y001999D01*
X018770Y001999D02*
X018770Y001806D01*
X018753Y003628D02*
X018849Y003628D01*
X018898Y003676D01*
X018898Y003724D01*
X018849Y003773D01*
X018704Y003773D01*
X018704Y003676D01*
X018753Y003628D01*
X018603Y003628D02*
X018410Y003628D01*
X018506Y003628D02*
X018506Y003918D01*
X018410Y003821D01*
X018308Y003773D02*
X018260Y003724D01*
X018115Y003724D01*
X018115Y003628D02*
X018115Y003918D01*
X018260Y003918D01*
X018308Y003869D01*
X018308Y003773D01*
X018212Y003724D02*
X018308Y003628D01*
X018704Y003773D02*
X018801Y003869D01*
X018898Y003918D01*
X016645Y006703D02*
X016672Y006895D01*
X016686Y006995D02*
X016713Y007187D01*
X016727Y007287D02*
X016439Y007327D01*
X016460Y007471D01*
X016514Y007512D01*
X016706Y007485D01*
X016747Y007431D01*
X016727Y007287D01*
X016556Y007111D02*
X016542Y007015D01*
X016398Y007036D02*
X016425Y007227D01*
X016398Y007036D02*
X016686Y006995D01*
X016645Y006703D02*
X016357Y006744D01*
X016480Y007619D02*
X016507Y007811D01*
X016555Y007804D01*
X016720Y007585D01*
X016768Y007579D01*
X017005Y009293D02*
X016717Y009334D01*
X017005Y009293D02*
X017032Y009485D01*
X017046Y009585D02*
X017073Y009777D01*
X017087Y009877D02*
X017107Y010021D01*
X017066Y010075D01*
X016874Y010102D01*
X016820Y010061D01*
X016799Y009917D01*
X017087Y009877D01*
X016916Y009701D02*
X016902Y009605D01*
X016758Y009626D02*
X016785Y009817D01*
X016758Y009626D02*
X017046Y009585D01*
X016984Y010189D02*
X017011Y010381D01*
X016861Y010353D02*
X016984Y010189D01*
X017148Y010312D02*
X016861Y010353D01*
X017077Y011734D02*
X017365Y011693D01*
X017392Y011885D01*
X017406Y011985D02*
X017433Y012177D01*
X017447Y012277D02*
X017159Y012317D01*
X017180Y012461D01*
X017234Y012502D01*
X017426Y012475D01*
X017467Y012421D01*
X017447Y012277D01*
X017276Y012101D02*
X017262Y012005D01*
X017118Y012026D02*
X017406Y011985D01*
X017118Y012026D02*
X017145Y012217D01*
X017344Y012589D02*
X017364Y012733D01*
X017419Y012774D01*
X017467Y012767D01*
X017508Y012712D01*
X017495Y012617D01*
X017440Y012575D01*
X017344Y012589D01*
X017262Y012698D01*
X017227Y012801D01*
X017208Y014278D02*
X017112Y014374D01*
X017160Y014374D02*
X017015Y014374D01*
X017015Y014278D02*
X017015Y014568D01*
X017160Y014568D01*
X017208Y014519D01*
X017208Y014423D01*
X017160Y014374D01*
X017310Y014326D02*
X017310Y014278D01*
X017310Y014326D02*
X017503Y014519D01*
X017503Y014568D01*
X017310Y014568D01*
X016394Y015652D02*
X016421Y015843D01*
X016435Y015943D02*
X016462Y016135D01*
X016476Y016235D02*
X016496Y016379D01*
X016455Y016434D01*
X016263Y016460D01*
X016209Y016419D01*
X016188Y016276D01*
X016476Y016235D01*
X016305Y016059D02*
X016291Y015964D01*
X016147Y015984D02*
X016435Y015943D01*
X016394Y015652D02*
X016106Y015692D01*
X016147Y015984D02*
X016174Y016175D01*
X016277Y016561D02*
X016236Y016615D01*
X016250Y016711D01*
X016304Y016752D01*
X016352Y016746D01*
X016517Y016527D01*
X016544Y016719D01*
X016510Y016825D02*
X016565Y016867D01*
X016578Y016962D01*
X016537Y017017D01*
X016441Y017031D01*
X016386Y016989D01*
X016380Y016942D01*
X016414Y016839D01*
X016270Y016859D01*
X016297Y017051D01*
X016476Y018242D02*
X016764Y018202D01*
X016791Y018393D01*
X016805Y018493D02*
X016517Y018534D01*
X016544Y018725D01*
X016558Y018826D02*
X016579Y018969D01*
X016633Y019010D01*
X016825Y018984D01*
X016866Y018929D01*
X016846Y018785D01*
X016558Y018826D01*
X016675Y018609D02*
X016661Y018514D01*
X016805Y018493D02*
X016832Y018685D01*
X016887Y019077D02*
X016722Y019296D01*
X016674Y019302D01*
X016620Y019261D01*
X016606Y019165D01*
X016647Y019111D01*
X016887Y019077D02*
X016914Y019269D01*
X016880Y019375D02*
X016935Y019417D01*
X016948Y019512D01*
X016907Y019567D01*
X016859Y019574D01*
X016804Y019533D01*
X016784Y019389D01*
X016880Y019375D01*
X016784Y019389D02*
X016702Y019498D01*
X016667Y019601D01*
X016826Y020842D02*
X017114Y020802D01*
X017141Y020993D01*
X017155Y021093D02*
X017182Y021285D01*
X017196Y021385D02*
X017216Y021529D01*
X017175Y021584D01*
X016983Y021610D01*
X016929Y021569D01*
X016908Y021426D01*
X017196Y021385D01*
X017025Y021209D02*
X017011Y021114D01*
X016867Y021134D02*
X017155Y021093D01*
X016867Y021134D02*
X016894Y021325D01*
X016997Y021711D02*
X016956Y021765D01*
X016970Y021861D01*
X017024Y021902D01*
X017072Y021896D01*
X017237Y021677D01*
X017264Y021869D01*
X017278Y021969D02*
X017230Y021975D01*
X017065Y022194D01*
X017017Y022201D01*
X016990Y022009D01*
X017186Y023322D02*
X017474Y023282D01*
X017501Y023473D01*
X017515Y023573D02*
X017542Y023765D01*
X017556Y023865D02*
X017576Y024009D01*
X017535Y024064D01*
X017343Y024090D01*
X017289Y024049D01*
X017268Y023906D01*
X017556Y023865D01*
X017385Y023689D02*
X017371Y023594D01*
X017227Y023614D02*
X017254Y023805D01*
X017227Y023614D02*
X017515Y023573D01*
X017597Y024157D02*
X017624Y024349D01*
X017610Y024253D02*
X017323Y024293D01*
X017405Y024184D01*
X017494Y024469D02*
X017514Y024613D01*
X017569Y024654D01*
X017617Y024647D01*
X017658Y024592D01*
X017645Y024497D01*
X017590Y024455D01*
X017494Y024469D01*
X017412Y024578D01*
X017377Y024681D01*
X017399Y026478D02*
X017448Y026526D01*
X017448Y026719D01*
X017399Y026768D01*
X017254Y026768D01*
X017254Y026478D01*
X017399Y026478D01*
X017549Y026478D02*
X017742Y026478D01*
X017646Y026478D02*
X017646Y026768D01*
X017549Y026671D01*
X017153Y026768D02*
X016960Y026768D01*
X016960Y026478D01*
X017153Y026478D01*
X017056Y026623D02*
X016960Y026623D01*
X016858Y026478D02*
X016665Y026478D01*
X016665Y026768D01*
X018715Y026718D02*
X018715Y026428D01*
X018715Y026524D02*
X018860Y026524D01*
X018908Y026573D01*
X018908Y026669D01*
X018860Y026718D01*
X018715Y026718D01*
X018812Y026524D02*
X018908Y026428D01*
X019010Y026476D02*
X019058Y026428D01*
X019155Y026428D01*
X019203Y026476D01*
X019203Y026524D01*
X019155Y026573D01*
X019106Y026573D01*
X019155Y026573D02*
X019203Y026621D01*
X019203Y026669D01*
X019155Y026718D01*
X019058Y026718D01*
X019010Y026669D01*
X014142Y026671D02*
X014142Y026719D01*
X014094Y026768D01*
X013997Y026768D01*
X013949Y026719D01*
X013848Y026719D02*
X013799Y026768D01*
X013654Y026768D01*
X013654Y026478D01*
X013799Y026478D01*
X013848Y026526D01*
X013848Y026719D01*
X013949Y026478D02*
X014142Y026671D01*
X014142Y026478D02*
X013949Y026478D01*
X013553Y026478D02*
X013360Y026478D01*
X013360Y026768D01*
X013553Y026768D01*
X013456Y026623D02*
X013360Y026623D01*
X013258Y026478D02*
X013065Y026478D01*
X013065Y026768D01*
X010742Y026719D02*
X010742Y026671D01*
X010694Y026623D01*
X010742Y026574D01*
X010742Y026526D01*
X010694Y026478D01*
X010597Y026478D01*
X010549Y026526D01*
X010448Y026526D02*
X010448Y026719D01*
X010399Y026768D01*
X010254Y026768D01*
X010254Y026478D01*
X010399Y026478D01*
X010448Y026526D01*
X010549Y026719D02*
X010597Y026768D01*
X010694Y026768D01*
X010742Y026719D01*
X010694Y026623D02*
X010646Y026623D01*
X010153Y026768D02*
X009960Y026768D01*
X009960Y026478D01*
X010153Y026478D01*
X010056Y026623D02*
X009960Y026623D01*
X009858Y026478D02*
X009665Y026478D01*
X009665Y026768D01*
X007537Y026719D02*
X007489Y026768D01*
X007392Y026768D01*
X007344Y026719D01*
X007537Y026719D02*
X007537Y026671D01*
X007344Y026478D01*
X007537Y026478D01*
X007242Y026478D02*
X007049Y026478D01*
X007146Y026478D02*
X007146Y026768D01*
X007049Y026671D01*
X006948Y026719D02*
X006899Y026768D01*
X006754Y026768D01*
X006754Y026478D01*
X006899Y026478D01*
X006948Y026526D01*
X006948Y026719D01*
X006653Y026768D02*
X006460Y026768D01*
X006460Y026478D01*
X006653Y026478D01*
X006556Y026623D02*
X006460Y026623D01*
X006358Y026478D02*
X006165Y026478D01*
X006165Y026768D01*
X005116Y024819D02*
X004924Y024846D01*
X004869Y024805D01*
X004856Y024709D01*
X004897Y024655D01*
X004945Y024648D01*
X005000Y024689D01*
X005020Y024833D01*
X005116Y024819D02*
X005157Y024765D01*
X005143Y024669D01*
X005089Y024628D01*
X005122Y024521D02*
X005096Y024329D01*
X005109Y024425D02*
X004822Y024466D01*
X004904Y024356D01*
X004842Y024263D02*
X004787Y024222D01*
X004767Y024078D01*
X005055Y024038D01*
X005075Y024181D01*
X005034Y024236D01*
X004842Y024263D01*
X004753Y023978D02*
X004726Y023786D01*
X005014Y023746D01*
X005040Y023937D01*
X004883Y023862D02*
X004870Y023766D01*
X004999Y023646D02*
X004973Y023454D01*
X004685Y023494D01*
X004496Y022253D02*
X004469Y022062D01*
X004613Y022041D01*
X004578Y022144D01*
X004585Y022192D01*
X004640Y022233D01*
X004736Y022219D01*
X004777Y022165D01*
X004763Y022069D01*
X004709Y022028D01*
X004742Y021921D02*
X004716Y021729D01*
X004729Y021825D02*
X004442Y021866D01*
X004524Y021756D01*
X004462Y021663D02*
X004407Y021622D01*
X004387Y021478D01*
X004675Y021438D01*
X004695Y021581D01*
X004654Y021636D01*
X004462Y021663D01*
X004373Y021378D02*
X004346Y021186D01*
X004634Y021146D01*
X004660Y021337D01*
X004503Y021262D02*
X004490Y021166D01*
X004619Y021046D02*
X004593Y020854D01*
X004305Y020894D01*
X004136Y019673D02*
X004184Y019666D01*
X004349Y019448D01*
X004397Y019441D01*
X004382Y019341D02*
X004356Y019149D01*
X004369Y019245D02*
X004082Y019286D01*
X004164Y019176D01*
X004102Y019083D02*
X004294Y019056D01*
X004335Y019001D01*
X004315Y018858D01*
X004027Y018898D01*
X004047Y019042D01*
X004102Y019083D01*
X004013Y018798D02*
X003986Y018606D01*
X004274Y018566D01*
X004300Y018757D01*
X004143Y018682D02*
X004130Y018586D01*
X004259Y018466D02*
X004233Y018274D01*
X003945Y018314D01*
X003824Y017546D02*
X003872Y017540D01*
X003913Y017485D01*
X003900Y017389D01*
X003845Y017348D01*
X003797Y017355D01*
X003756Y017409D01*
X003769Y017505D01*
X003824Y017546D01*
X003913Y017485D02*
X003968Y017526D01*
X004016Y017519D01*
X004057Y017465D01*
X004043Y017369D01*
X003989Y017328D01*
X003941Y017335D01*
X003900Y017389D01*
X004022Y017221D02*
X003996Y017029D01*
X004009Y017125D02*
X003722Y017166D01*
X003804Y017056D01*
X003742Y016963D02*
X003687Y016922D01*
X003667Y016778D01*
X003955Y016738D01*
X003975Y016881D01*
X003934Y016936D01*
X003742Y016963D01*
X003653Y016678D02*
X003626Y016486D01*
X003914Y016446D01*
X003940Y016637D01*
X003783Y016562D02*
X003770Y016466D01*
X003899Y016346D02*
X003873Y016154D01*
X003585Y016194D01*
X003214Y016156D02*
X003165Y016108D01*
X003069Y016108D01*
X003020Y016156D01*
X003020Y016253D02*
X003117Y016301D01*
X003165Y016301D01*
X003214Y016253D01*
X003214Y016156D01*
X003020Y016253D02*
X003020Y016398D01*
X003214Y016398D01*
X002919Y016349D02*
X002919Y016253D01*
X002871Y016204D01*
X002726Y016204D01*
X002726Y016108D02*
X002726Y016398D01*
X002871Y016398D01*
X002919Y016349D01*
X002822Y016204D02*
X002919Y016108D01*
X002876Y015098D02*
X002925Y015049D01*
X002925Y014953D01*
X002876Y014904D01*
X002731Y014904D01*
X002731Y014808D02*
X002731Y015098D01*
X002876Y015098D01*
X003026Y015001D02*
X003122Y015098D01*
X003122Y014808D01*
X003026Y014808D02*
X003219Y014808D01*
X003320Y014808D02*
X003514Y014808D01*
X003417Y014808D02*
X003417Y015098D01*
X003320Y015001D01*
X002925Y014808D02*
X002828Y014904D01*
X003424Y013446D02*
X003472Y013440D01*
X003513Y013385D01*
X003568Y013426D01*
X003616Y013419D01*
X003657Y013365D01*
X003643Y013269D01*
X003589Y013228D01*
X003622Y013121D02*
X003596Y012929D01*
X003609Y013025D02*
X003322Y013066D01*
X003404Y012956D01*
X003342Y012863D02*
X003287Y012822D01*
X003267Y012678D01*
X003555Y012638D01*
X003575Y012781D01*
X003534Y012836D01*
X003342Y012863D01*
X003253Y012578D02*
X003226Y012386D01*
X003514Y012346D01*
X003540Y012537D01*
X003383Y012462D02*
X003370Y012366D01*
X003499Y012246D02*
X003473Y012054D01*
X003185Y012094D01*
X003397Y013255D02*
X003356Y013309D01*
X003369Y013405D01*
X003424Y013446D01*
X003513Y013385D02*
X003506Y013337D01*
X004765Y015028D02*
X004958Y015028D01*
X005060Y015028D02*
X005060Y015318D01*
X005253Y015318D01*
X005354Y015318D02*
X005499Y015318D01*
X005548Y015269D01*
X005548Y015076D01*
X005499Y015028D01*
X005354Y015028D01*
X005354Y015318D01*
X005156Y015173D02*
X005060Y015173D01*
X005060Y015028D02*
X005253Y015028D01*
X005649Y015076D02*
X005697Y015028D01*
X005794Y015028D01*
X005842Y015076D01*
X005842Y015269D01*
X005794Y015318D01*
X005697Y015318D01*
X005649Y015269D01*
X005649Y015221D01*
X005697Y015173D01*
X005842Y015173D01*
X004765Y015318D02*
X004765Y015028D01*
X007326Y012098D02*
X007519Y012098D01*
X007422Y012098D02*
X007422Y011808D01*
X007620Y011808D02*
X007814Y011808D01*
X007717Y011808D02*
X007717Y012098D01*
X007620Y012001D01*
X007620Y010498D02*
X007814Y010498D01*
X007814Y010449D01*
X007620Y010256D01*
X007620Y010208D01*
X007422Y010208D02*
X007422Y010498D01*
X007326Y010498D02*
X007519Y010498D01*
X007519Y008998D02*
X007326Y008998D01*
X007422Y008998D02*
X007422Y008708D01*
X007620Y008853D02*
X007814Y008853D01*
X007765Y008708D02*
X007765Y008998D01*
X007620Y008853D01*
X007669Y007398D02*
X007765Y007398D01*
X007814Y007349D01*
X007814Y007301D01*
X007765Y007253D01*
X007669Y007253D01*
X007620Y007301D01*
X007620Y007349D01*
X007669Y007398D01*
X007669Y007253D02*
X007620Y007204D01*
X007620Y007156D01*
X007669Y007108D01*
X007765Y007108D01*
X007814Y007156D01*
X007814Y007204D01*
X007765Y007253D01*
X007519Y007398D02*
X007326Y007398D01*
X007422Y007398D02*
X007422Y007108D01*
X009305Y006158D02*
X009305Y005868D01*
X009305Y005964D02*
X009450Y005964D01*
X009498Y006013D01*
X009498Y006109D01*
X009450Y006158D01*
X009305Y006158D01*
X009402Y005964D02*
X009498Y005868D01*
X009600Y005868D02*
X009793Y005868D01*
X009696Y005868D02*
X009696Y006158D01*
X009600Y006061D01*
X009894Y006013D02*
X009894Y006158D01*
X010088Y006158D01*
X010039Y006061D02*
X010088Y006013D01*
X010088Y005916D01*
X010039Y005868D01*
X009943Y005868D01*
X009894Y005916D01*
X009894Y006013D02*
X009991Y006061D01*
X010039Y006061D01*
X010155Y007448D02*
X010155Y007738D01*
X010010Y007593D01*
X010204Y007593D01*
X009909Y007448D02*
X009716Y007448D01*
X009812Y007448D02*
X009812Y007738D01*
X009716Y007641D01*
X009615Y007593D02*
X009566Y007544D01*
X009421Y007544D01*
X009421Y007448D02*
X009421Y007738D01*
X009566Y007738D01*
X009615Y007689D01*
X009615Y007593D01*
X009518Y007544D02*
X009615Y007448D01*
X009605Y008948D02*
X009508Y009044D01*
X009556Y009044D02*
X009411Y009044D01*
X009411Y008948D02*
X009411Y009238D01*
X009556Y009238D01*
X009605Y009189D01*
X009605Y009093D01*
X009556Y009044D01*
X009706Y008948D02*
X009899Y008948D01*
X009802Y008948D02*
X009802Y009238D01*
X009706Y009141D01*
X010000Y009189D02*
X010049Y009238D01*
X010145Y009238D01*
X010194Y009189D01*
X010194Y009141D01*
X010145Y009093D01*
X010194Y009044D01*
X010194Y008996D01*
X010145Y008948D01*
X010049Y008948D01*
X010000Y008996D01*
X010097Y009093D02*
X010145Y009093D01*
X010194Y010558D02*
X010000Y010558D01*
X010194Y010751D01*
X010194Y010799D01*
X010145Y010848D01*
X010049Y010848D01*
X010000Y010799D01*
X009802Y010848D02*
X009802Y010558D01*
X009706Y010558D02*
X009899Y010558D01*
X009706Y010751D02*
X009802Y010848D01*
X009605Y010799D02*
X009605Y010703D01*
X009556Y010654D01*
X009411Y010654D01*
X009411Y010558D02*
X009411Y010848D01*
X009556Y010848D01*
X009605Y010799D01*
X009508Y010654D02*
X009605Y010558D01*
X009537Y015028D02*
X009344Y015028D01*
X009440Y015028D02*
X009440Y015318D01*
X009344Y015221D01*
X009242Y015221D02*
X009242Y015269D01*
X009194Y015318D01*
X009097Y015318D01*
X009049Y015269D01*
X008948Y015269D02*
X008899Y015318D01*
X008754Y015318D01*
X008754Y015028D01*
X008899Y015028D01*
X008948Y015076D01*
X008948Y015269D01*
X009049Y015028D02*
X009242Y015221D01*
X009242Y015028D02*
X009049Y015028D01*
X008653Y015028D02*
X008460Y015028D01*
X008460Y015318D01*
X008653Y015318D01*
X008556Y015173D02*
X008460Y015173D01*
X008358Y015028D02*
X008165Y015028D01*
X008165Y015318D01*
X010035Y017728D02*
X010035Y018098D01*
X010220Y018098D01*
X010282Y018036D01*
X010282Y017913D01*
X010220Y017851D01*
X010035Y017851D01*
X010158Y017851D02*
X010282Y017728D01*
X010403Y017728D02*
X010650Y017728D01*
X010527Y017728D02*
X010527Y018098D01*
X010403Y017974D01*
X010772Y018036D02*
X010772Y017789D01*
X011019Y018036D01*
X011019Y017789D01*
X010957Y017728D01*
X010833Y017728D01*
X010772Y017789D01*
X010772Y018036D02*
X010833Y018098D01*
X010957Y018098D01*
X011019Y018036D01*
X010688Y019328D02*
X010565Y019328D01*
X010503Y019389D01*
X010382Y019328D02*
X010258Y019451D01*
X010320Y019451D02*
X010135Y019451D01*
X010135Y019328D02*
X010135Y019698D01*
X010320Y019698D01*
X010382Y019636D01*
X010382Y019513D01*
X010320Y019451D01*
X010503Y019574D02*
X010565Y019513D01*
X010750Y019513D01*
X010750Y019636D02*
X010750Y019389D01*
X010688Y019328D01*
X010503Y019574D02*
X010503Y019636D01*
X010565Y019698D01*
X010688Y019698D01*
X010750Y019636D01*
X010658Y020928D02*
X010535Y020928D01*
X010473Y020989D01*
X010473Y021051D01*
X010535Y021113D01*
X010658Y021113D01*
X010720Y021051D01*
X010720Y020989D01*
X010658Y020928D01*
X010658Y021113D02*
X010720Y021174D01*
X010720Y021236D01*
X010658Y021298D01*
X010535Y021298D01*
X010473Y021236D01*
X010473Y021174D01*
X010535Y021113D01*
X010352Y021113D02*
X010352Y021236D01*
X010290Y021298D01*
X010105Y021298D01*
X010105Y020928D01*
X010105Y021051D02*
X010290Y021051D01*
X010352Y021113D01*
X010228Y021051D02*
X010352Y020928D01*
X010352Y022428D02*
X010228Y022551D01*
X010290Y022551D02*
X010105Y022551D01*
X010105Y022428D02*
X010105Y022798D01*
X010290Y022798D01*
X010352Y022736D01*
X010352Y022613D01*
X010290Y022551D01*
X010473Y022428D02*
X010720Y022428D01*
X010597Y022428D02*
X010597Y022798D01*
X010473Y022674D01*
X012615Y022448D02*
X012862Y022448D01*
X012738Y022448D02*
X012738Y022078D01*
X012983Y022139D02*
X013045Y022078D01*
X013168Y022078D01*
X013230Y022139D01*
X013230Y022201D01*
X013168Y022263D01*
X012983Y022263D01*
X012983Y022139D01*
X012983Y022263D02*
X013107Y022386D01*
X013230Y022448D01*
X013230Y020948D02*
X012983Y020948D01*
X012983Y020763D01*
X013107Y020824D01*
X013168Y020824D01*
X013230Y020763D01*
X013230Y020639D01*
X013168Y020578D01*
X013045Y020578D01*
X012983Y020639D01*
X012738Y020578D02*
X012738Y020948D01*
X012615Y020948D02*
X012862Y020948D01*
X012862Y019348D02*
X012615Y019348D01*
X012738Y019348D02*
X012738Y018978D01*
X012983Y019039D02*
X013045Y018978D01*
X013168Y018978D01*
X013230Y019039D01*
X013230Y019101D01*
X013168Y019163D01*
X013107Y019163D01*
X013168Y019163D02*
X013230Y019224D01*
X013230Y019286D01*
X013168Y019348D01*
X013045Y019348D01*
X012983Y019286D01*
X013045Y017698D02*
X012983Y017636D01*
X013045Y017698D02*
X013168Y017698D01*
X013230Y017636D01*
X013230Y017574D01*
X012983Y017328D01*
X013230Y017328D01*
X012738Y017328D02*
X012738Y017698D01*
X012615Y017698D02*
X012862Y017698D01*
X012889Y015318D02*
X012792Y015318D01*
X012744Y015269D01*
X012744Y015076D01*
X012937Y015269D01*
X012937Y015076D01*
X012889Y015028D01*
X012792Y015028D01*
X012744Y015076D01*
X012642Y015028D02*
X012449Y015028D01*
X012642Y015221D01*
X012642Y015269D01*
X012594Y015318D01*
X012497Y015318D01*
X012449Y015269D01*
X012348Y015269D02*
X012299Y015318D01*
X012154Y015318D01*
X012154Y015028D01*
X012299Y015028D01*
X012348Y015076D01*
X012348Y015269D01*
X012053Y015318D02*
X011860Y015318D01*
X011860Y015028D01*
X012053Y015028D01*
X011956Y015173D02*
X011860Y015173D01*
X011758Y015028D02*
X011565Y015028D01*
X011565Y015318D01*
X012889Y015318D02*
X012937Y015269D01*
X015165Y015318D02*
X015165Y015028D01*
X015358Y015028D01*
X015460Y015028D02*
X015460Y015318D01*
X015653Y015318D01*
X015754Y015318D02*
X015899Y015318D01*
X015948Y015269D01*
X015948Y015076D01*
X015899Y015028D01*
X015754Y015028D01*
X015754Y015318D01*
X015556Y015173D02*
X015460Y015173D01*
X015460Y015028D02*
X015653Y015028D01*
X016049Y015076D02*
X016097Y015028D01*
X016194Y015028D01*
X016242Y015076D01*
X016242Y015173D01*
X016194Y015221D01*
X016146Y015221D01*
X016049Y015173D01*
X016049Y015318D01*
X016242Y015318D01*
X016295Y005384D02*
X016460Y005165D01*
X016515Y005207D01*
X016528Y005302D01*
X016487Y005357D01*
X016295Y005384D01*
X016241Y005343D01*
X016227Y005247D01*
X016268Y005192D01*
X016460Y005165D01*
X016494Y005059D02*
X016467Y004867D01*
X016480Y004963D02*
X016193Y005003D01*
X016275Y004894D01*
X016213Y004800D02*
X016159Y004759D01*
X016138Y004616D01*
X016426Y004575D01*
X016446Y004719D01*
X016405Y004774D01*
X016213Y004800D01*
X016124Y004515D02*
X016097Y004324D01*
X016385Y004283D01*
X016412Y004475D01*
X016255Y004399D02*
X016241Y004304D01*
X016371Y004183D02*
X016344Y003992D01*
X016056Y004032D01*
X014764Y003699D02*
X014764Y003651D01*
X014715Y003603D01*
X014764Y003554D01*
X014764Y003506D01*
X014715Y003458D01*
X014619Y003458D01*
X014570Y003506D01*
X014469Y003458D02*
X014276Y003458D01*
X014469Y003651D01*
X014469Y003699D01*
X014421Y003748D01*
X014324Y003748D01*
X014276Y003699D01*
X014175Y003699D02*
X014126Y003748D01*
X013981Y003748D01*
X013981Y003458D01*
X014126Y003458D01*
X014175Y003506D01*
X014175Y003699D01*
X013880Y003748D02*
X013686Y003748D01*
X013686Y003458D01*
X013880Y003458D01*
X013783Y003603D02*
X013686Y003603D01*
X013585Y003458D02*
X013392Y003458D01*
X013392Y003748D01*
X014570Y003699D02*
X014619Y003748D01*
X014715Y003748D01*
X014764Y003699D01*
X014715Y003603D02*
X014667Y003603D01*
X012002Y002523D02*
X012002Y002436D01*
X011915Y002348D01*
X011827Y002348D01*
X011653Y002523D01*
X011653Y002610D01*
X011740Y002697D01*
X011827Y002697D01*
X011567Y002437D02*
X011480Y002437D01*
X011392Y002350D01*
X011392Y002262D01*
X011567Y002088D01*
X011654Y002088D01*
X011741Y002175D01*
X011741Y002262D01*
X011437Y002046D02*
X011263Y002220D01*
X011437Y002046D02*
X011437Y001871D01*
X011263Y001871D01*
X011088Y002046D01*
X011080Y003558D02*
X011274Y003751D01*
X011274Y003799D01*
X011225Y003848D01*
X011129Y003848D01*
X011080Y003799D01*
X010979Y003799D02*
X010931Y003848D01*
X010834Y003848D01*
X010786Y003799D01*
X010685Y003799D02*
X010636Y003848D01*
X010491Y003848D01*
X010491Y003558D01*
X010636Y003558D01*
X010685Y003606D01*
X010685Y003799D01*
X010786Y003558D02*
X010979Y003751D01*
X010979Y003799D01*
X010979Y003558D02*
X010786Y003558D01*
X010390Y003558D02*
X010196Y003558D01*
X010196Y003848D01*
X010390Y003848D01*
X010293Y003703D02*
X010196Y003703D01*
X010095Y003558D02*
X009902Y003558D01*
X009902Y003848D01*
X011080Y003558D02*
X011274Y003558D01*
X007964Y003703D02*
X007770Y003703D01*
X007915Y003848D01*
X007915Y003558D01*
X007669Y003558D02*
X007476Y003558D01*
X007669Y003751D01*
X007669Y003799D01*
X007621Y003848D01*
X007524Y003848D01*
X007476Y003799D01*
X007375Y003799D02*
X007326Y003848D01*
X007181Y003848D01*
X007181Y003558D01*
X007326Y003558D01*
X007375Y003606D01*
X007375Y003799D01*
X007080Y003848D02*
X006886Y003848D01*
X006886Y003558D01*
X007080Y003558D01*
X006983Y003703D02*
X006886Y003703D01*
X006785Y003558D02*
X006592Y003558D01*
X006592Y003848D01*
X004264Y003799D02*
X004264Y003751D01*
X004215Y003703D01*
X004119Y003703D01*
X004070Y003751D01*
X004070Y003799D01*
X004119Y003848D01*
X004215Y003848D01*
X004264Y003799D01*
X004215Y003703D02*
X004264Y003654D01*
X004264Y003606D01*
X004215Y003558D01*
X004119Y003558D01*
X004070Y003606D01*
X004070Y003654D01*
X004119Y003703D01*
X003969Y003799D02*
X003921Y003848D01*
X003776Y003848D01*
X003776Y003558D01*
X003921Y003558D01*
X003969Y003606D01*
X003969Y003799D01*
X003675Y003848D02*
X003481Y003848D01*
X003481Y003558D01*
X003675Y003558D01*
X003578Y003703D02*
X003481Y003703D01*
X003380Y003558D02*
X003186Y003558D01*
X003186Y003848D01*
X002443Y004754D02*
X002469Y004946D01*
X002484Y005046D02*
X002196Y005086D01*
X002223Y005278D01*
X002237Y005378D02*
X002257Y005522D01*
X002312Y005563D01*
X002504Y005536D01*
X002545Y005481D01*
X002525Y005338D01*
X002237Y005378D01*
X002353Y005162D02*
X002340Y005066D01*
X002484Y005046D02*
X002510Y005237D01*
X002443Y004754D02*
X002155Y004794D01*
X001614Y004856D02*
X001614Y004904D01*
X001565Y004953D01*
X001420Y004953D01*
X001420Y004856D01*
X001469Y004808D01*
X001565Y004808D01*
X001614Y004856D01*
X001517Y005049D02*
X001420Y004953D01*
X001319Y004953D02*
X001271Y004904D01*
X001126Y004904D01*
X001126Y004808D02*
X001126Y005098D01*
X001271Y005098D01*
X001319Y005049D01*
X001319Y004953D01*
X001222Y004904D02*
X001319Y004808D01*
X001517Y005049D02*
X001614Y005098D01*
X002374Y005656D02*
X002292Y005766D01*
X002579Y005725D01*
X002566Y005629D02*
X002592Y005821D01*
X002607Y005921D02*
X002633Y006113D01*
X002620Y006017D02*
X002333Y006057D01*
X002415Y005948D01*
X002445Y006884D02*
X002733Y006844D01*
X002759Y007036D01*
X002774Y007136D02*
X002800Y007327D01*
X002815Y007428D02*
X002835Y007571D01*
X002794Y007626D01*
X002602Y007653D01*
X002547Y007612D01*
X002527Y007468D01*
X002815Y007428D01*
X002643Y007252D02*
X002630Y007156D01*
X002486Y007176D02*
X002774Y007136D01*
X002486Y007176D02*
X002513Y007368D01*
X002616Y007753D02*
X002575Y007808D01*
X002588Y007903D01*
X002643Y007945D01*
X002691Y007938D01*
X002856Y007719D01*
X002882Y007911D01*
X002849Y008018D02*
X002801Y008025D01*
X002760Y008079D01*
X002773Y008175D01*
X002828Y008216D01*
X002876Y008209D01*
X002917Y008155D01*
X002903Y008059D01*
X002849Y008018D01*
X002760Y008079D02*
X002705Y008038D01*
X002657Y008045D01*
X002616Y008099D01*
X002629Y008195D01*
X002684Y008236D01*
X002732Y008230D01*
X002773Y008175D01*
X003093Y009454D02*
X003119Y009646D01*
X003134Y009746D02*
X003160Y009937D01*
X003175Y010038D02*
X003195Y010181D01*
X003154Y010236D01*
X002962Y010263D01*
X002907Y010222D01*
X002887Y010078D01*
X003175Y010038D01*
X003003Y009862D02*
X002990Y009766D01*
X002846Y009786D02*
X003134Y009746D01*
X003093Y009454D02*
X002805Y009494D01*
X002846Y009786D02*
X002873Y009978D01*
X003024Y010356D02*
X002942Y010466D01*
X003229Y010425D01*
X003216Y010329D02*
X003242Y010521D01*
X003113Y010641D02*
X003140Y010833D01*
X003277Y010765D02*
X002989Y010805D01*
X003113Y010641D01*
X001565Y003698D02*
X001420Y003553D01*
X001614Y003553D01*
X001565Y003408D02*
X001565Y003698D01*
X001319Y003649D02*
X001319Y003553D01*
X001271Y003504D01*
X001126Y003504D01*
X001126Y003408D02*
X001126Y003698D01*
X001271Y003698D01*
X001319Y003649D01*
X001222Y003504D02*
X001319Y003408D01*
X004109Y019482D02*
X004136Y019673D01*
X004226Y026308D02*
X004226Y026598D01*
X004371Y026598D01*
X004419Y026549D01*
X004419Y026453D01*
X004371Y026404D01*
X004226Y026404D01*
X004322Y026404D02*
X004419Y026308D01*
X004520Y026308D02*
X004714Y026501D01*
X004714Y026549D01*
X004665Y026598D01*
X004569Y026598D01*
X004520Y026549D01*
X004520Y026308D02*
X004714Y026308D01*
D13*
X001200Y022363D02*
X001450Y022113D01*
X001450Y021613D01*
X001200Y021363D01*
X001450Y021113D01*
X001450Y020613D01*
X001200Y020363D01*
X001450Y020113D01*
X001450Y019613D01*
X001200Y019363D01*
X001450Y019113D01*
X001450Y018613D01*
X001200Y018363D01*
X001450Y018113D01*
X001450Y017613D01*
X001200Y017363D01*
X001450Y017113D01*
X001450Y016613D01*
X001200Y016363D01*
X001450Y016113D01*
X001450Y015613D01*
X001200Y015363D01*
X001450Y015113D01*
X001450Y014613D01*
X001200Y014363D01*
X001450Y014113D01*
X001450Y013613D01*
X001200Y013363D01*
X001450Y013113D01*
X001450Y012613D01*
X001200Y012363D01*
X001450Y012113D01*
X001450Y011613D01*
X001200Y011363D01*
X001450Y011113D01*
X001450Y010613D01*
X001200Y010363D01*
X001450Y010113D01*
X001450Y009613D01*
X001200Y009363D01*
X001450Y009113D01*
X001450Y008613D01*
X001200Y008363D01*
X000700Y008363D01*
X000450Y008613D01*
X000450Y009113D01*
X000700Y009363D01*
X000450Y009613D01*
X000450Y010113D01*
X000700Y010363D01*
X001200Y010363D01*
X000700Y010363D02*
X000450Y010613D01*
X000450Y011113D01*
X000700Y011363D01*
X000450Y011613D01*
X000450Y012113D01*
X000700Y012363D01*
X000450Y012613D01*
X000450Y013113D01*
X000700Y013363D01*
X001200Y013363D01*
X000700Y013363D02*
X000450Y013613D01*
X000450Y014113D01*
X000700Y014363D01*
X000450Y014613D01*
X000450Y015113D01*
X000700Y015363D01*
X000450Y015613D01*
X000450Y016113D01*
X000700Y016363D01*
X001200Y016363D01*
X000700Y016363D02*
X000450Y016613D01*
X000450Y017113D01*
X000700Y017363D01*
X000450Y017613D01*
X000450Y018113D01*
X000700Y018363D01*
X000450Y018613D01*
X000450Y019113D01*
X000700Y019363D01*
X001200Y019363D01*
X000700Y019363D02*
X000450Y019613D01*
X000450Y020113D01*
X000700Y020363D01*
X000450Y020613D01*
X000450Y021113D01*
X000700Y021363D01*
X000450Y021613D01*
X000450Y022113D01*
X000700Y022363D01*
X001200Y022363D01*
X001200Y021363D02*
X000700Y021363D01*
X000700Y020363D02*
X001200Y020363D01*
X001200Y018363D02*
X000700Y018363D01*
X000700Y017363D02*
X001200Y017363D01*
X001200Y015363D02*
X000700Y015363D01*
X000700Y014363D02*
X001200Y014363D01*
X001200Y012363D02*
X000700Y012363D01*
X000700Y011363D02*
X001200Y011363D01*
X001200Y009363D02*
X000700Y009363D01*
X003300Y001563D02*
X003800Y001563D01*
X004050Y001313D01*
X004300Y001563D01*
X004800Y001563D01*
X005050Y001313D01*
X005300Y001563D01*
X005800Y001563D01*
X006050Y001313D01*
X006300Y001563D01*
X006800Y001563D01*
X007050Y001313D01*
X007300Y001563D01*
X007800Y001563D01*
X008050Y001313D01*
X008300Y001563D01*
X008800Y001563D01*
X009050Y001313D01*
X009300Y001563D01*
X009800Y001563D01*
X010050Y001313D01*
X010300Y001563D01*
X010800Y001563D01*
X011050Y001313D01*
X011300Y001563D01*
X011800Y001563D01*
X012050Y001313D01*
X012300Y001563D01*
X012800Y001563D01*
X013050Y001313D01*
X013300Y001563D01*
X013800Y001563D01*
X014050Y001313D01*
X014300Y001563D01*
X014800Y001563D01*
X015050Y001313D01*
X015300Y001563D01*
X015800Y001563D01*
X016050Y001313D01*
X016300Y001563D01*
X016800Y001563D01*
X017050Y001313D01*
X017050Y000813D01*
X016800Y000563D01*
X016300Y000563D01*
X016050Y000813D01*
X015800Y000563D01*
X015300Y000563D01*
X015050Y000813D01*
X015050Y001313D01*
X015050Y000813D02*
X014800Y000563D01*
X014300Y000563D01*
X014050Y000813D01*
X013800Y000563D01*
X013300Y000563D01*
X013050Y000813D01*
X012800Y000563D01*
X012300Y000563D01*
X012050Y000813D01*
X012050Y001313D01*
X012050Y000813D02*
X011800Y000563D01*
X011300Y000563D01*
X011050Y000813D01*
X010800Y000563D01*
X010300Y000563D01*
X010050Y000813D01*
X009800Y000563D01*
X009300Y000563D01*
X009050Y000813D01*
X009050Y001313D01*
X009050Y000813D02*
X008800Y000563D01*
X008300Y000563D01*
X008050Y000813D01*
X007800Y000563D01*
X007300Y000563D01*
X007050Y000813D01*
X006800Y000563D01*
X006300Y000563D01*
X006050Y000813D01*
X006050Y001313D01*
X006050Y000813D02*
X005800Y000563D01*
X005300Y000563D01*
X005050Y000813D01*
X004800Y000563D01*
X004300Y000563D01*
X004050Y000813D01*
X003800Y000563D01*
X003300Y000563D01*
X003050Y000813D01*
X003050Y001313D01*
X003300Y001563D01*
X004050Y001313D02*
X004050Y000813D01*
X005050Y000813D02*
X005050Y001313D01*
X007050Y001313D02*
X007050Y000813D01*
X008050Y000813D02*
X008050Y001313D01*
X010050Y001313D02*
X010050Y000813D01*
X011050Y000813D02*
X011050Y001313D01*
X013050Y001313D02*
X013050Y000813D01*
X014050Y000813D02*
X014050Y001313D01*
X016050Y001313D02*
X016050Y000813D01*
X019600Y008363D02*
X019350Y008613D01*
X019350Y009113D01*
X019600Y009363D01*
X019350Y009613D01*
X019350Y010113D01*
X019600Y010363D01*
X020100Y010363D01*
X020350Y010113D01*
X020350Y009613D01*
X020100Y009363D01*
X020350Y009113D01*
X020350Y008613D01*
X020100Y008363D01*
X019600Y008363D01*
X019600Y009363D02*
X020100Y009363D01*
X020100Y010363D02*
X020350Y010613D01*
X020350Y011113D01*
X020100Y011363D01*
X020350Y011613D01*
X020350Y012113D01*
X020100Y012363D01*
X020350Y012613D01*
X020350Y013113D01*
X020100Y013363D01*
X019600Y013363D01*
X019350Y013113D01*
X019350Y012613D01*
X019600Y012363D01*
X020100Y012363D01*
X019600Y012363D02*
X019350Y012113D01*
X019350Y011613D01*
X019600Y011363D01*
X020100Y011363D01*
X019600Y011363D02*
X019350Y011113D01*
X019350Y010613D01*
X019600Y010363D01*
X019600Y013363D02*
X019350Y013613D01*
X019350Y014113D01*
X019600Y014363D01*
X019350Y014613D01*
X019350Y015113D01*
X019600Y015363D01*
X019350Y015613D01*
X019350Y016113D01*
X019600Y016363D01*
X020100Y016363D01*
X020350Y016113D01*
X020350Y015613D01*
X020100Y015363D01*
X020350Y015113D01*
X020350Y014613D01*
X020100Y014363D01*
X020350Y014113D01*
X020350Y013613D01*
X020100Y013363D01*
X020100Y014363D02*
X019600Y014363D01*
X019600Y015363D02*
X020100Y015363D01*
X020100Y016363D02*
X020350Y016613D01*
X020350Y017113D01*
X020100Y017363D01*
X020350Y017613D01*
X020350Y018113D01*
X020100Y018363D01*
X020350Y018613D01*
X020350Y019113D01*
X020100Y019363D01*
X019600Y019363D01*
X019350Y019113D01*
X019350Y018613D01*
X019600Y018363D01*
X020100Y018363D01*
X019600Y018363D02*
X019350Y018113D01*
X019350Y017613D01*
X019600Y017363D01*
X020100Y017363D01*
X019600Y017363D02*
X019350Y017113D01*
X019350Y016613D01*
X019600Y016363D01*
X019600Y019363D02*
X019350Y019613D01*
X019350Y020113D01*
X019600Y020363D01*
X019350Y020613D01*
X019350Y021113D01*
X019600Y021363D01*
X019350Y021613D01*
X019350Y022113D01*
X019600Y022363D01*
X020100Y022363D01*
X020350Y022113D01*
X020350Y021613D01*
X020100Y021363D01*
X020350Y021113D01*
X020350Y020613D01*
X020100Y020363D01*
X020350Y020113D01*
X020350Y019613D01*
X020100Y019363D01*
X020100Y020363D02*
X019600Y020363D01*
X019600Y021363D02*
X020100Y021363D01*
X014565Y026893D02*
X014565Y027213D01*
X014459Y027320D01*
X014352Y027213D01*
X014352Y026893D01*
X014138Y026893D02*
X014138Y027320D01*
X014245Y027320D01*
X014352Y027213D01*
X013921Y027213D02*
X013921Y026999D01*
X013814Y026893D01*
X013601Y026893D01*
X013494Y026999D01*
X013494Y027213D01*
X013601Y027320D01*
X013814Y027320D01*
X013921Y027213D01*
X013276Y027320D02*
X012956Y027320D01*
X012849Y027213D01*
X012849Y026999D01*
X012956Y026893D01*
X013276Y026893D01*
X012634Y026893D02*
X012527Y026893D01*
X012527Y026999D01*
X012634Y026999D01*
X012634Y026893D01*
X012309Y026893D02*
X011882Y027320D01*
X011665Y027213D02*
X011665Y027106D01*
X011238Y027106D01*
X011238Y026999D02*
X011238Y027213D01*
X011345Y027320D01*
X011558Y027320D01*
X011665Y027213D01*
X011558Y026893D02*
X011345Y026893D01*
X011238Y026999D01*
X011022Y026893D02*
X010915Y026999D01*
X010915Y027426D01*
X010808Y027320D02*
X011022Y027320D01*
X010591Y027213D02*
X010591Y026893D01*
X010591Y027213D02*
X010484Y027320D01*
X010164Y027320D01*
X010164Y026893D01*
X009946Y026893D02*
X009946Y027213D01*
X009839Y027320D01*
X009626Y027320D01*
X009626Y027106D02*
X009946Y027106D01*
X009946Y026893D02*
X009626Y026893D01*
X009519Y026999D01*
X009626Y027106D01*
X009302Y026893D02*
X009302Y027320D01*
X009302Y026893D02*
X008981Y026893D01*
X008875Y026999D01*
X008875Y027320D01*
X008657Y027320D02*
X008337Y027320D01*
X008230Y027213D01*
X008230Y026999D01*
X008337Y026893D01*
X008657Y026893D01*
X011882Y026893D02*
X012309Y027320D01*
X012118Y013233D02*
X011904Y013233D01*
X011797Y013126D01*
X011797Y012699D01*
X012224Y013126D01*
X012224Y012699D01*
X012118Y012593D01*
X011904Y012593D01*
X011797Y012699D01*
X011580Y012699D02*
X011473Y012593D01*
X011260Y012593D01*
X011153Y012699D01*
X011580Y013126D01*
X011580Y012699D01*
X011153Y012699D02*
X011153Y013126D01*
X011260Y013233D01*
X011473Y013233D01*
X011580Y013126D01*
X012118Y013233D02*
X012224Y013126D01*
X012442Y012486D02*
X012869Y012486D01*
X010935Y012699D02*
X010828Y012593D01*
X010615Y012593D01*
X010508Y012699D01*
X010935Y013126D01*
X010935Y012699D01*
X010508Y012699D02*
X010508Y013126D01*
X010615Y013233D01*
X010828Y013233D01*
X010935Y013126D01*
X010291Y013126D02*
X010184Y013233D01*
X009970Y013233D01*
X009864Y013126D01*
X009864Y013020D01*
X009970Y012913D01*
X010184Y012913D01*
X010291Y012806D01*
X010291Y012699D01*
X010184Y012593D01*
X009970Y012593D01*
X009864Y012699D01*
X009646Y012699D02*
X009539Y012593D01*
X009326Y012593D01*
X009219Y012699D01*
X009002Y012699D02*
X009002Y013126D01*
X008895Y013233D01*
X008575Y013233D01*
X008575Y012593D01*
X008895Y012593D01*
X009002Y012699D01*
X009219Y013020D02*
X009326Y012913D01*
X009539Y012913D01*
X009646Y012806D01*
X009646Y012699D01*
X009646Y013126D02*
X009539Y013233D01*
X009326Y013233D01*
X009219Y013126D01*
X009219Y013020D01*
X008357Y013126D02*
X008357Y012913D01*
X008250Y012806D01*
X007930Y012806D01*
X007930Y012593D02*
X007930Y013233D01*
X008250Y013233D01*
X008357Y013126D01*
X008144Y012806D02*
X008357Y012593D01*
D14*
X008950Y014463D03*
X012250Y014463D03*
X015750Y014463D03*
X014150Y002963D03*
X010660Y002963D03*
X007450Y002963D03*
X003850Y002963D03*
X005450Y014463D03*
X006950Y025963D03*
X010450Y025963D03*
X013850Y025963D03*
X017350Y025963D03*
X018350Y002463D03*
D15*
X018143Y002689D03*
G36*
X015175Y004658D02*
X015183Y004714D01*
X015279Y004700D01*
X015271Y004644D01*
X015175Y004658D01*
G37*
X013943Y003189D03*
G36*
X015535Y007178D02*
X015543Y007234D01*
X015639Y007220D01*
X015631Y007164D01*
X015535Y007178D01*
G37*
G36*
X015895Y009768D02*
X015903Y009824D01*
X015999Y009810D01*
X015991Y009754D01*
X015895Y009768D01*
G37*
G36*
X016255Y012368D02*
X016263Y012424D01*
X016359Y012410D01*
X016351Y012354D01*
X016255Y012368D01*
G37*
X015957Y014236D03*
G36*
X016775Y016068D02*
X016783Y016124D01*
X016879Y016110D01*
X016871Y016054D01*
X016775Y016068D01*
G37*
G36*
X017145Y018668D02*
X017153Y018724D01*
X017249Y018710D01*
X017241Y018654D01*
X017145Y018668D01*
G37*
G36*
X017495Y021268D02*
X017503Y021324D01*
X017599Y021310D01*
X017591Y021254D01*
X017495Y021268D01*
G37*
G36*
X017855Y023848D02*
X017863Y023904D01*
X017959Y023890D01*
X017951Y023834D01*
X017855Y023848D01*
G37*
X017557Y025736D03*
X014057Y025736D03*
X010657Y025736D03*
X007157Y025736D03*
G36*
X005955Y024357D02*
X005947Y024301D01*
X005851Y024315D01*
X005859Y024371D01*
X005955Y024357D01*
G37*
G36*
X005575Y021757D02*
X005567Y021701D01*
X005471Y021715D01*
X005479Y021771D01*
X005575Y021757D01*
G37*
G36*
X005215Y019177D02*
X005207Y019121D01*
X005111Y019135D01*
X005119Y019191D01*
X005215Y019177D01*
G37*
G36*
X004855Y016557D02*
X004847Y016501D01*
X004751Y016515D01*
X004759Y016571D01*
X004855Y016557D01*
G37*
X005657Y014236D03*
G36*
X004355Y012857D02*
X004347Y012801D01*
X004251Y012815D01*
X004259Y012871D01*
X004355Y012857D01*
G37*
G36*
X003975Y010257D02*
X003967Y010201D01*
X003871Y010215D01*
X003879Y010271D01*
X003975Y010257D01*
G37*
G36*
X003615Y007647D02*
X003607Y007591D01*
X003511Y007605D01*
X003519Y007661D01*
X003615Y007647D01*
G37*
G36*
X003275Y005157D02*
X003267Y005101D01*
X003171Y005115D01*
X003179Y005171D01*
X003275Y005157D01*
G37*
X003643Y003189D03*
X007243Y003189D03*
X010453Y003189D03*
X009157Y014236D03*
X012457Y014236D03*
D16*
G36*
X016156Y009930D02*
X016167Y010007D01*
X016244Y009996D01*
X016233Y009919D01*
X016156Y009930D01*
G37*
G36*
X015796Y007340D02*
X015807Y007417D01*
X015884Y007406D01*
X015873Y007329D01*
X015796Y007340D01*
G37*
G36*
X015436Y004820D02*
X015447Y004897D01*
X015524Y004886D01*
X015513Y004809D01*
X015436Y004820D01*
G37*
G36*
X016516Y012530D02*
X016527Y012607D01*
X016604Y012596D01*
X016593Y012519D01*
X016516Y012530D01*
G37*
G36*
X017036Y016230D02*
X017047Y016307D01*
X017124Y016296D01*
X017113Y016219D01*
X017036Y016230D01*
G37*
G36*
X017406Y018830D02*
X017417Y018907D01*
X017494Y018896D01*
X017483Y018819D01*
X017406Y018830D01*
G37*
G36*
X017756Y021430D02*
X017767Y021507D01*
X017844Y021496D01*
X017833Y021419D01*
X017756Y021430D01*
G37*
G36*
X018116Y024010D02*
X018127Y024087D01*
X018204Y024076D01*
X018193Y023999D01*
X018116Y024010D01*
G37*
G36*
X005694Y024196D02*
X005683Y024119D01*
X005606Y024130D01*
X005617Y024207D01*
X005694Y024196D01*
G37*
G36*
X005314Y021596D02*
X005303Y021519D01*
X005226Y021530D01*
X005237Y021607D01*
X005314Y021596D01*
G37*
G36*
X004954Y019016D02*
X004943Y018939D01*
X004866Y018950D01*
X004877Y019027D01*
X004954Y019016D01*
G37*
G36*
X004594Y016396D02*
X004583Y016319D01*
X004506Y016330D01*
X004517Y016407D01*
X004594Y016396D01*
G37*
G36*
X004094Y012696D02*
X004083Y012619D01*
X004006Y012630D01*
X004017Y012707D01*
X004094Y012696D01*
G37*
G36*
X003714Y010096D02*
X003703Y010019D01*
X003626Y010030D01*
X003637Y010107D01*
X003714Y010096D01*
G37*
G36*
X003354Y007486D02*
X003343Y007409D01*
X003266Y007420D01*
X003277Y007497D01*
X003354Y007486D01*
G37*
G36*
X003014Y004996D02*
X003003Y004919D01*
X002926Y004930D01*
X002937Y005007D01*
X003014Y004996D01*
G37*
D17*
X013562Y022480D03*
X014042Y023001D03*
X014047Y023009D03*
X013390Y023724D03*
X012689Y023181D03*
X010034Y023181D03*
X008539Y023181D03*
X008539Y023327D03*
X008169Y023186D03*
D18*
X007926Y023358D03*
X008989Y023349D03*
X009553Y023349D03*
X011423Y024279D03*
X011807Y023331D03*
X013663Y022485D03*
X013667Y022489D03*
X013720Y022546D03*
X013725Y022551D03*
X013778Y022608D03*
X013791Y022621D03*
X013795Y022626D03*
X013800Y022630D03*
X013804Y022635D03*
X013844Y022679D03*
X013848Y022683D03*
X013857Y022692D03*
X013861Y022696D03*
X013879Y022714D03*
X013914Y022754D03*
X013919Y022758D03*
X013923Y022762D03*
X013928Y022767D03*
X013932Y022771D03*
X014153Y023234D03*
X014849Y023521D03*
X014655Y024182D03*
X014153Y024262D03*
X015471Y023314D03*
D19*
X014812Y022771D03*
X014812Y022767D03*
X014812Y022762D03*
X014812Y022758D03*
X014812Y022754D03*
X014812Y022749D03*
X014812Y022745D03*
X014812Y022740D03*
X014812Y022736D03*
X014812Y022732D03*
X014812Y022727D03*
X014812Y022723D03*
X014812Y022718D03*
X014812Y022714D03*
X014812Y022710D03*
X014812Y022705D03*
X014812Y022701D03*
X014812Y022696D03*
X014812Y022692D03*
X014812Y022687D03*
X014812Y022683D03*
X014812Y022679D03*
X014812Y022674D03*
X014812Y022670D03*
X014812Y022665D03*
X014812Y022661D03*
X014812Y022657D03*
X014812Y022652D03*
X014812Y022648D03*
X014812Y022643D03*
X014812Y022639D03*
X014812Y022635D03*
X014812Y022630D03*
X014812Y022626D03*
X014812Y022621D03*
X014812Y022617D03*
X014812Y022613D03*
X014812Y022608D03*
X014812Y022604D03*
X014812Y022599D03*
X014812Y022595D03*
X014812Y022590D03*
X014812Y022586D03*
X014812Y022582D03*
X014812Y022577D03*
X014812Y022573D03*
X014812Y022568D03*
X014812Y022564D03*
X014812Y022560D03*
X014812Y022555D03*
X014812Y022551D03*
X014812Y022546D03*
X014812Y022542D03*
X014812Y022538D03*
X014812Y022533D03*
X014812Y022529D03*
X014812Y022524D03*
X014812Y022520D03*
X014812Y022516D03*
X014812Y022511D03*
X014812Y022507D03*
X014812Y022502D03*
X014812Y022498D03*
X014812Y022493D03*
X014812Y022489D03*
X014812Y022485D03*
X014812Y024579D03*
X014812Y024584D03*
X014812Y024588D03*
X014812Y024592D03*
X014812Y024597D03*
X014812Y024601D03*
X014812Y024606D03*
X014812Y024610D03*
X014812Y024614D03*
X014812Y024619D03*
X014812Y024623D03*
X014812Y024628D03*
X014812Y024632D03*
X014812Y024636D03*
X014812Y024641D03*
X014812Y024645D03*
X014812Y024650D03*
X014812Y024654D03*
X014812Y024659D03*
X014812Y024663D03*
X014812Y024667D03*
X014812Y024672D03*
X014812Y024676D03*
X014812Y024681D03*
X014812Y024685D03*
X014812Y024689D03*
X014812Y024694D03*
D20*
X014150Y024266D03*
X014150Y023230D03*
X013912Y022749D03*
X013908Y022745D03*
X013903Y022740D03*
X013899Y022736D03*
X013895Y022732D03*
X013890Y022727D03*
X013886Y022723D03*
X013881Y022718D03*
X013873Y022710D03*
X013868Y022705D03*
X013864Y022701D03*
X013855Y022687D03*
X013842Y022674D03*
X013837Y022670D03*
X013833Y022665D03*
X013828Y022661D03*
X013824Y022657D03*
X013820Y022652D03*
X013815Y022648D03*
X013811Y022643D03*
X013806Y022639D03*
X013789Y022617D03*
X013784Y022613D03*
X013776Y022604D03*
X013771Y022599D03*
X013767Y022595D03*
X013762Y022590D03*
X013758Y022586D03*
X013753Y022582D03*
X013749Y022577D03*
X013745Y022573D03*
X013740Y022568D03*
X013736Y022564D03*
X013731Y022560D03*
X013727Y022555D03*
X013718Y022542D03*
X013714Y022538D03*
X013709Y022533D03*
X013705Y022529D03*
X013701Y022524D03*
X013696Y022520D03*
X013692Y022516D03*
X013687Y022511D03*
X013683Y022507D03*
X013679Y022502D03*
X013674Y022498D03*
X013670Y022493D03*
X015473Y023309D03*
X011809Y023314D03*
X011809Y023318D03*
X011809Y023322D03*
X011809Y023327D03*
X011430Y024275D03*
X010662Y024279D03*
X010089Y024279D03*
X007920Y024270D03*
X007920Y023362D03*
D21*
X014704Y022776D03*
D22*
X014706Y022780D03*
D23*
X014148Y023225D03*
X013941Y022784D03*
X014849Y023525D03*
X014655Y024178D03*
X014148Y024270D03*
X015475Y023305D03*
X011811Y023305D03*
X011811Y023309D03*
X011811Y023300D03*
X011811Y023296D03*
X011436Y024270D03*
X010083Y024275D03*
X009558Y023353D03*
X008980Y023353D03*
D24*
X014814Y022784D03*
D25*
X014146Y023221D03*
X013943Y022789D03*
X014146Y024275D03*
X014146Y024279D03*
X015478Y023300D03*
X011813Y023292D03*
X011813Y023287D03*
X011813Y023283D03*
X010667Y024275D03*
X009564Y023358D03*
X009273Y023186D03*
X008974Y023358D03*
X007915Y023367D03*
X007911Y024262D03*
X007915Y024266D03*
D26*
X014816Y022789D03*
D27*
X014849Y023530D03*
X014827Y023556D03*
X014761Y023627D03*
X014757Y023631D03*
X014752Y023636D03*
X014655Y024173D03*
X014144Y024284D03*
X014144Y023217D03*
X013945Y022793D03*
X015480Y023296D03*
X011816Y023278D03*
X011816Y023274D03*
X011816Y023270D03*
X011816Y023265D03*
X011441Y024266D03*
X010673Y024270D03*
X010078Y024270D03*
X010074Y024266D03*
X008971Y023362D03*
X007909Y023371D03*
D28*
X014818Y022793D03*
D29*
X014847Y023534D03*
X014843Y023539D03*
X014838Y023543D03*
X014834Y023547D03*
X014829Y023552D03*
X014821Y023561D03*
X014821Y023565D03*
X014816Y023569D03*
X014812Y023574D03*
X014807Y023578D03*
X014803Y023583D03*
X014799Y023587D03*
X014794Y023591D03*
X014790Y023596D03*
X014785Y023600D03*
X014781Y023605D03*
X014776Y023609D03*
X014772Y023613D03*
X014768Y023618D03*
X014763Y023622D03*
X014750Y023640D03*
X014141Y023212D03*
X013947Y022798D03*
X015482Y023292D03*
X011818Y023261D03*
X011818Y023256D03*
X011818Y023252D03*
X011447Y024257D03*
X011447Y024262D03*
X010676Y024266D03*
X009573Y023367D03*
X009569Y023362D03*
X008965Y023367D03*
X007907Y023375D03*
X007907Y024257D03*
D30*
X014821Y022798D03*
D31*
X014139Y023208D03*
X013950Y022802D03*
X014717Y024103D03*
X014713Y024107D03*
X014673Y024151D03*
X014655Y024169D03*
X014139Y024288D03*
X014139Y024293D03*
X015484Y023287D03*
X011820Y023247D03*
X011820Y023243D03*
X011820Y023239D03*
X011458Y024248D03*
X011454Y024253D03*
X010682Y024262D03*
X010069Y024262D03*
X009576Y023371D03*
X008963Y023371D03*
X007904Y024253D03*
X007900Y024248D03*
D32*
X014823Y022802D03*
D33*
X014137Y023199D03*
X014137Y023203D03*
X013952Y022807D03*
X014759Y024059D03*
X014754Y024063D03*
X014750Y024068D03*
X014746Y024072D03*
X014741Y024076D03*
X014737Y024081D03*
X014732Y024085D03*
X014728Y024090D03*
X014724Y024094D03*
X014719Y024099D03*
X014706Y024112D03*
X014701Y024116D03*
X014701Y024121D03*
X014697Y024125D03*
X014693Y024129D03*
X014688Y024134D03*
X014684Y024138D03*
X014679Y024143D03*
X014675Y024147D03*
X014666Y024156D03*
X014662Y024160D03*
X014657Y024165D03*
X014137Y024297D03*
X015486Y023283D03*
X011822Y023234D03*
X011822Y023230D03*
X011822Y023225D03*
X011822Y023221D03*
X011474Y024226D03*
X011469Y024235D03*
X011465Y024240D03*
X011461Y024244D03*
X010689Y024253D03*
X010684Y024257D03*
X010067Y024257D03*
X010063Y024253D03*
X009587Y023384D03*
X009582Y023380D03*
X009582Y023375D03*
X008960Y023375D03*
X008956Y023380D03*
X007902Y023380D03*
X007898Y023384D03*
X007893Y024240D03*
X007898Y024244D03*
D34*
X014825Y022807D03*
D35*
X014135Y023195D03*
X013954Y022811D03*
X014135Y024301D03*
X015489Y023278D03*
X011824Y023217D03*
X011824Y023212D03*
X011824Y023208D03*
X011485Y024213D03*
X011480Y024218D03*
X011476Y024222D03*
X011472Y024231D03*
X010696Y024240D03*
X010696Y024244D03*
X010691Y024248D03*
X010061Y024248D03*
X010056Y024244D03*
X010052Y024235D03*
X009589Y023389D03*
X008954Y023384D03*
X008949Y023389D03*
X008945Y023397D03*
X007896Y023389D03*
X007891Y023393D03*
X007891Y024235D03*
D36*
X014827Y022811D03*
D37*
X014133Y023190D03*
X013956Y022815D03*
X014133Y024306D03*
X015491Y023274D03*
X011827Y023203D03*
X011827Y023199D03*
X011827Y023195D03*
X011500Y024182D03*
X011500Y024187D03*
X011500Y024191D03*
X011496Y024196D03*
X011491Y024200D03*
X011491Y024204D03*
X011487Y024209D03*
X010702Y024226D03*
X010702Y024231D03*
X010698Y024235D03*
X010054Y024240D03*
X010050Y024231D03*
X010045Y024222D03*
X009604Y023419D03*
X009600Y023406D03*
X009595Y023402D03*
X009595Y023397D03*
X009591Y023393D03*
X008947Y023393D03*
X008943Y023402D03*
X008943Y023406D03*
X008938Y023411D03*
X007889Y023402D03*
X007889Y023397D03*
X007884Y023406D03*
X007884Y024222D03*
X007884Y024226D03*
X007889Y024231D03*
D38*
X014829Y022815D03*
D39*
X014130Y023186D03*
X013959Y022820D03*
X014130Y024310D03*
X015493Y023270D03*
X011829Y023190D03*
X011829Y023186D03*
X011547Y024094D03*
X011533Y024125D03*
X011524Y024143D03*
X011520Y024147D03*
X011520Y024151D03*
X011516Y024156D03*
X011516Y024160D03*
X011511Y024165D03*
X011511Y024169D03*
X011507Y024173D03*
X011507Y024178D03*
X010722Y024173D03*
X010718Y024191D03*
X010713Y024204D03*
X010709Y024213D03*
X010709Y024218D03*
X010704Y024222D03*
X010047Y024226D03*
X010043Y024218D03*
X010043Y024213D03*
X010039Y024209D03*
X010039Y024204D03*
X010034Y024196D03*
X010030Y024178D03*
X009611Y023433D03*
X009606Y023424D03*
X009602Y023415D03*
X009602Y023411D03*
X008936Y023415D03*
X008936Y023419D03*
X008936Y023424D03*
X008932Y023428D03*
X008927Y023441D03*
X007882Y023415D03*
X007882Y023411D03*
X007878Y023419D03*
X007878Y023424D03*
X007878Y023428D03*
X007878Y024204D03*
X007878Y024209D03*
X007878Y024213D03*
X007882Y024218D03*
D40*
X014832Y022820D03*
D41*
X014128Y023181D03*
X013961Y022824D03*
X014128Y024315D03*
X015495Y023265D03*
X011668Y023715D03*
X011659Y023746D03*
X011655Y023759D03*
X011650Y023777D03*
X011646Y023790D03*
X011641Y023807D03*
X011637Y023816D03*
X011637Y023821D03*
X011633Y023834D03*
X011633Y023838D03*
X011628Y023852D03*
X011624Y023865D03*
X011624Y023869D03*
X011619Y023882D03*
X011615Y023896D03*
X011610Y023913D03*
X011606Y023927D03*
X011597Y023957D03*
X011593Y023971D03*
X011588Y023988D03*
X011584Y023997D03*
X011580Y024006D03*
X011580Y024010D03*
X011575Y024024D03*
X011571Y024032D03*
X011571Y024037D03*
X011566Y024041D03*
X011566Y024046D03*
X011562Y024054D03*
X011558Y024068D03*
X011553Y024076D03*
X011553Y024081D03*
X011549Y024085D03*
X011549Y024090D03*
X011544Y024099D03*
X011540Y024103D03*
X011540Y024107D03*
X011540Y024112D03*
X011536Y024116D03*
X011536Y024121D03*
X011531Y024129D03*
X011527Y024134D03*
X011527Y024138D03*
X010742Y024072D03*
X010737Y024103D03*
X010737Y024107D03*
X010733Y024125D03*
X010733Y024129D03*
X010729Y024147D03*
X010729Y024151D03*
X010724Y024165D03*
X010724Y024169D03*
X010720Y024178D03*
X010720Y024182D03*
X010720Y024187D03*
X010715Y024196D03*
X010715Y024200D03*
X010711Y024209D03*
X010746Y024028D03*
X010746Y024024D03*
X010751Y023953D03*
X010755Y023887D03*
X010755Y023882D03*
X010755Y023878D03*
X010764Y023724D03*
X010773Y023587D03*
X010773Y023583D03*
X010773Y023578D03*
X010773Y023574D03*
X010773Y023569D03*
X010773Y023565D03*
X010777Y023472D03*
X010781Y023397D03*
X010786Y023314D03*
X010790Y023234D03*
X010790Y023230D03*
X009975Y023481D03*
X009970Y023411D03*
X009970Y023406D03*
X009961Y023247D03*
X009957Y023186D03*
X009979Y023569D03*
X009988Y023724D03*
X009997Y023878D03*
X009997Y023882D03*
X009997Y023887D03*
X009997Y023891D03*
X009997Y023896D03*
X010005Y024028D03*
X010005Y024032D03*
X010010Y024072D03*
X010010Y024076D03*
X010014Y024103D03*
X010014Y024107D03*
X010014Y024112D03*
X010019Y024129D03*
X010023Y024147D03*
X010023Y024151D03*
X010023Y024156D03*
X010027Y024165D03*
X010027Y024169D03*
X010027Y024173D03*
X010032Y024182D03*
X010032Y024187D03*
X010032Y024191D03*
X010036Y024200D03*
X009675Y024209D03*
X009675Y024213D03*
X009670Y024138D03*
X009670Y024134D03*
X009670Y024129D03*
X009670Y024125D03*
X009670Y024121D03*
X009661Y023988D03*
X009661Y023984D03*
X009661Y023979D03*
X009661Y023975D03*
X009661Y023971D03*
X009661Y023966D03*
X009661Y023962D03*
X009657Y023887D03*
X009657Y023882D03*
X009653Y023812D03*
X009653Y023807D03*
X009653Y023803D03*
X009644Y023649D03*
X009644Y023644D03*
X009644Y023640D03*
X009635Y023556D03*
X009635Y023552D03*
X009635Y023547D03*
X009631Y023521D03*
X009631Y023516D03*
X009626Y023499D03*
X009626Y023494D03*
X009622Y023477D03*
X009622Y023472D03*
X009617Y023464D03*
X009617Y023459D03*
X009617Y023455D03*
X009613Y023446D03*
X009613Y023441D03*
X009613Y023437D03*
X009609Y023428D03*
X008930Y023433D03*
X008930Y023437D03*
X008925Y023446D03*
X008925Y023450D03*
X008925Y023455D03*
X008921Y023459D03*
X008921Y023464D03*
X008921Y023468D03*
X008916Y023477D03*
X008916Y023481D03*
X008916Y023486D03*
X008912Y023499D03*
X008912Y023503D03*
X008912Y023508D03*
X008907Y023534D03*
X008907Y023539D03*
X008903Y023565D03*
X008903Y023569D03*
X008899Y023605D03*
X008899Y023609D03*
X008899Y023613D03*
X008894Y023653D03*
X008894Y023658D03*
X008894Y023662D03*
X008894Y023666D03*
X008894Y023671D03*
X008894Y023675D03*
X008894Y023680D03*
X008885Y023821D03*
X008885Y023825D03*
X008885Y023830D03*
X008885Y023834D03*
X008885Y023838D03*
X008885Y023843D03*
X008881Y023922D03*
X008868Y024156D03*
X008868Y024160D03*
X008868Y024165D03*
X008868Y024169D03*
X008868Y024173D03*
X008868Y024178D03*
X008859Y024319D03*
X008859Y024323D03*
X008859Y024328D03*
X008855Y024394D03*
X008855Y024398D03*
X008855Y024403D03*
X008855Y024407D03*
X008855Y024412D03*
X009679Y024293D03*
X009679Y024288D03*
X009688Y024442D03*
X007876Y024200D03*
X007871Y024196D03*
X007871Y024191D03*
X007871Y024187D03*
X007871Y024182D03*
X007867Y024178D03*
X007867Y024173D03*
X007867Y024169D03*
X007867Y024165D03*
X007862Y024151D03*
X007862Y024147D03*
X007858Y024125D03*
X007858Y024121D03*
X007858Y024116D03*
X007858Y024112D03*
X007854Y024068D03*
X007854Y024063D03*
X007854Y024059D03*
X007854Y024054D03*
X007854Y024050D03*
X007854Y023574D03*
X007854Y023569D03*
X007858Y023512D03*
X007858Y023508D03*
X007858Y023503D03*
X007862Y023486D03*
X007862Y023481D03*
X007867Y023468D03*
X007867Y023464D03*
X007867Y023459D03*
X007867Y023455D03*
X007867Y023450D03*
X007871Y023446D03*
X007871Y023441D03*
X007871Y023437D03*
X007876Y023433D03*
D42*
X014834Y022824D03*
D43*
X014126Y023177D03*
X013963Y022833D03*
X013963Y022829D03*
X013288Y023344D03*
X013288Y023349D03*
X013288Y023353D03*
X013288Y023358D03*
X013288Y023362D03*
X013288Y023367D03*
X013288Y023371D03*
X013288Y023375D03*
X013288Y023380D03*
X013288Y023384D03*
X013288Y023389D03*
X013288Y023393D03*
X013288Y023397D03*
X013288Y023402D03*
X013288Y023406D03*
X013288Y023411D03*
X013288Y023415D03*
X013288Y023419D03*
X013288Y023424D03*
X013288Y023428D03*
X013288Y023433D03*
X013288Y023437D03*
X013288Y023441D03*
X013288Y023446D03*
X013288Y023450D03*
X013288Y023455D03*
X013288Y023459D03*
X013288Y023464D03*
X013288Y023468D03*
X013288Y023472D03*
X013288Y023477D03*
X013288Y023481D03*
X013288Y023486D03*
X013288Y023490D03*
X013288Y023494D03*
X013288Y023499D03*
X013288Y023503D03*
X013288Y023508D03*
X013288Y023512D03*
X013288Y023516D03*
X013288Y023521D03*
X013288Y023525D03*
X013288Y023530D03*
X013288Y023534D03*
X013288Y023539D03*
X013288Y023543D03*
X013288Y023547D03*
X013288Y023552D03*
X013288Y023556D03*
X013288Y023561D03*
X013288Y023565D03*
X013288Y023569D03*
X013288Y023574D03*
X013288Y023578D03*
X013288Y023583D03*
X013288Y023587D03*
X013288Y023591D03*
X013288Y023596D03*
X013288Y023600D03*
X013288Y023605D03*
X013288Y023609D03*
X013288Y023613D03*
X013288Y023618D03*
X013288Y023622D03*
X013288Y023627D03*
X013288Y023631D03*
X013288Y023636D03*
X013288Y023640D03*
X013288Y023644D03*
X013288Y023649D03*
X013288Y023653D03*
X013288Y023658D03*
X013288Y023662D03*
X013288Y023666D03*
X013288Y023671D03*
X013288Y023675D03*
X013288Y023680D03*
X013288Y023684D03*
X013288Y023688D03*
X013288Y023693D03*
X013288Y023702D03*
X013288Y023706D03*
X013288Y023710D03*
X013288Y023715D03*
X013288Y023724D03*
X013288Y023878D03*
X013288Y023882D03*
X013288Y023887D03*
X013288Y023891D03*
X013288Y023909D03*
X013288Y023913D03*
X013288Y023918D03*
X013288Y023922D03*
X013288Y023927D03*
X013288Y023931D03*
X013288Y023935D03*
X013288Y023940D03*
X013288Y023944D03*
X013288Y023949D03*
X013288Y023953D03*
X013288Y023957D03*
X013288Y023962D03*
X013288Y023966D03*
X013288Y023971D03*
X013288Y023975D03*
X013288Y023979D03*
X013288Y023984D03*
X013288Y023988D03*
X013288Y023993D03*
X013288Y023997D03*
X013288Y024001D03*
X013288Y024006D03*
X013288Y024010D03*
X013288Y024015D03*
X013288Y024019D03*
X013288Y024024D03*
X013288Y024028D03*
X013288Y024032D03*
X013288Y024037D03*
X013288Y024041D03*
X013288Y024046D03*
X013288Y024050D03*
X013288Y024054D03*
X013288Y024059D03*
X013288Y024063D03*
X013288Y024068D03*
X013288Y024072D03*
X013288Y024076D03*
X013288Y024081D03*
X013288Y024085D03*
X013288Y024090D03*
X013288Y024094D03*
X013288Y024099D03*
X013288Y024103D03*
X013288Y024107D03*
X013288Y024112D03*
X013288Y024116D03*
X013288Y024121D03*
X013288Y024125D03*
X013288Y024129D03*
X013288Y024134D03*
X013288Y024138D03*
X013288Y024143D03*
X013288Y024147D03*
X013288Y024151D03*
X013288Y024156D03*
X013288Y024160D03*
X013288Y024165D03*
X013288Y024169D03*
X013288Y024173D03*
X013288Y024178D03*
X013288Y024182D03*
X013288Y024187D03*
X013288Y024200D03*
X013288Y024204D03*
X013288Y024209D03*
X013288Y024213D03*
X012614Y024213D03*
X012614Y024209D03*
X012614Y024204D03*
X012614Y024200D03*
X012614Y024196D03*
X012614Y024191D03*
X012614Y024187D03*
X012614Y024182D03*
X012614Y024178D03*
X012614Y024173D03*
X012614Y024169D03*
X012614Y024165D03*
X012614Y024160D03*
X012614Y024156D03*
X012614Y024151D03*
X012614Y024147D03*
X012614Y024143D03*
X012614Y024138D03*
X012614Y024134D03*
X012614Y024129D03*
X012614Y024125D03*
X012614Y024121D03*
X012614Y024116D03*
X012614Y024112D03*
X012614Y024107D03*
X012614Y024103D03*
X012614Y024099D03*
X012614Y024094D03*
X012614Y024090D03*
X012614Y024085D03*
X012614Y024081D03*
X012614Y024076D03*
X012614Y024072D03*
X012614Y024068D03*
X012614Y024063D03*
X012614Y024059D03*
X012614Y024054D03*
X012614Y024050D03*
X012614Y024046D03*
X012614Y024041D03*
X012614Y024037D03*
X012614Y024032D03*
X012614Y024028D03*
X012614Y024024D03*
X012614Y024019D03*
X012614Y024015D03*
X012614Y024010D03*
X012614Y024006D03*
X012614Y024001D03*
X012614Y023997D03*
X012614Y023993D03*
X012614Y023988D03*
X012614Y023984D03*
X012614Y023979D03*
X012614Y023975D03*
X012614Y023971D03*
X012614Y023966D03*
X012614Y023962D03*
X012614Y023957D03*
X012614Y023953D03*
X012614Y023949D03*
X012614Y023944D03*
X012614Y023940D03*
X012614Y023935D03*
X012614Y023931D03*
X012614Y023927D03*
X012614Y023922D03*
X012614Y023918D03*
X012614Y023913D03*
X012614Y023909D03*
X012614Y023904D03*
X012614Y023900D03*
X012614Y023896D03*
X012614Y023891D03*
X012614Y023887D03*
X012614Y023882D03*
X012614Y023878D03*
X012614Y023874D03*
X012614Y023869D03*
X012614Y023865D03*
X012614Y023860D03*
X012614Y023856D03*
X012614Y023852D03*
X012614Y023847D03*
X012614Y023843D03*
X012614Y023838D03*
X012614Y023834D03*
X012614Y023830D03*
X012614Y023825D03*
X012614Y023821D03*
X012614Y023816D03*
X012614Y023812D03*
X012614Y023807D03*
X012614Y023803D03*
X012614Y023799D03*
X012614Y023794D03*
X012614Y023790D03*
X012614Y023785D03*
X012614Y023781D03*
X012614Y023777D03*
X012614Y023772D03*
X012614Y023768D03*
X012614Y023763D03*
X012614Y023759D03*
X012614Y023755D03*
X012614Y023750D03*
X012614Y023746D03*
X012614Y023741D03*
X012614Y023737D03*
X012614Y023733D03*
X012614Y023728D03*
X012614Y023724D03*
X012614Y023719D03*
X012614Y023715D03*
X012614Y023710D03*
X012614Y023706D03*
X012614Y023702D03*
X012614Y023697D03*
X012614Y023693D03*
X012614Y023688D03*
X012614Y023684D03*
X012614Y023680D03*
X012614Y023675D03*
X012614Y023671D03*
X012614Y023666D03*
X012614Y023662D03*
X012614Y023658D03*
X012614Y023653D03*
X012614Y023649D03*
X012614Y023644D03*
X012614Y023640D03*
X012614Y023636D03*
X012614Y023631D03*
X012614Y023627D03*
X012614Y023622D03*
X012614Y023618D03*
X012614Y023613D03*
X012614Y023609D03*
X012614Y023605D03*
X012614Y023600D03*
X012614Y023596D03*
X012614Y023591D03*
X012614Y023587D03*
X012614Y023583D03*
X012614Y023578D03*
X012614Y023574D03*
X012614Y023569D03*
X012614Y023565D03*
X012614Y023561D03*
X012614Y023556D03*
X012614Y023552D03*
X012614Y023547D03*
X012614Y023543D03*
X012614Y023539D03*
X012614Y023534D03*
X012614Y023530D03*
X012614Y023525D03*
X012614Y023521D03*
X012614Y023516D03*
X012614Y023512D03*
X012614Y023508D03*
X012614Y023503D03*
X012614Y023499D03*
X012614Y023494D03*
X012614Y023490D03*
X012614Y023486D03*
X012614Y023481D03*
X012614Y023477D03*
X012614Y023472D03*
X012614Y023468D03*
X012614Y023464D03*
X012614Y023459D03*
X012614Y023455D03*
X012614Y023450D03*
X012614Y023446D03*
X012614Y023441D03*
X012614Y023437D03*
X012614Y023433D03*
X012614Y023428D03*
X012614Y023424D03*
X012614Y023419D03*
X012614Y023415D03*
X012614Y023411D03*
X012614Y023406D03*
X012614Y023402D03*
X012614Y023397D03*
X012614Y023393D03*
X012614Y023389D03*
X012614Y023384D03*
X012614Y023380D03*
X012614Y023375D03*
X012614Y023371D03*
X012614Y023367D03*
X012614Y023362D03*
X012614Y023358D03*
X012614Y023353D03*
X012614Y023349D03*
X012614Y023344D03*
X012614Y023340D03*
X012614Y023336D03*
X012614Y023331D03*
X012614Y023327D03*
X012614Y023322D03*
X012614Y023318D03*
X012614Y023314D03*
X012614Y023309D03*
X012614Y023305D03*
X012614Y023300D03*
X012614Y023296D03*
X012614Y023292D03*
X012614Y023287D03*
X012614Y023283D03*
X012614Y023278D03*
X012614Y023274D03*
X012614Y023270D03*
X012614Y023265D03*
X012614Y023261D03*
X012614Y023256D03*
X012614Y023252D03*
X012614Y023247D03*
X012614Y023243D03*
X012614Y023239D03*
X012614Y023234D03*
X012614Y023230D03*
X012614Y023225D03*
X012614Y023221D03*
X012614Y023217D03*
X012614Y023212D03*
X012614Y023208D03*
X012614Y023203D03*
X012614Y023199D03*
X012614Y023195D03*
X012614Y023190D03*
X012614Y023186D03*
X012614Y024218D03*
X012614Y024222D03*
X012614Y024226D03*
X012614Y024231D03*
X012614Y024235D03*
X012614Y024240D03*
X012614Y024244D03*
X012614Y024248D03*
X012614Y024253D03*
X012614Y024257D03*
X012614Y024262D03*
X012614Y024266D03*
X012614Y024270D03*
X012614Y024288D03*
X012614Y024293D03*
X012614Y024297D03*
X011635Y023830D03*
X011635Y023825D03*
X011639Y023812D03*
X011644Y023803D03*
X011644Y023799D03*
X011644Y023794D03*
X011648Y023785D03*
X011648Y023781D03*
X011652Y023772D03*
X011652Y023768D03*
X011652Y023763D03*
X011657Y023755D03*
X011657Y023750D03*
X011661Y023741D03*
X011661Y023737D03*
X011661Y023733D03*
X011666Y023728D03*
X011666Y023724D03*
X011666Y023719D03*
X011670Y023710D03*
X011670Y023706D03*
X011670Y023702D03*
X011674Y023697D03*
X011630Y023843D03*
X011630Y023847D03*
X011626Y023856D03*
X011626Y023860D03*
X011621Y023874D03*
X011621Y023878D03*
X011617Y023887D03*
X011617Y023891D03*
X011613Y023900D03*
X011613Y023904D03*
X011613Y023909D03*
X011608Y023918D03*
X011608Y023922D03*
X011604Y023931D03*
X011604Y023935D03*
X011604Y023940D03*
X011599Y023944D03*
X011599Y023949D03*
X011599Y023953D03*
X011595Y023962D03*
X011595Y023966D03*
X011591Y023975D03*
X011591Y023979D03*
X011591Y023984D03*
X011586Y023993D03*
X011582Y024001D03*
X011577Y024015D03*
X011577Y024019D03*
X011573Y024028D03*
X011564Y024050D03*
X011560Y024059D03*
X011560Y024063D03*
X011555Y024072D03*
X010748Y024019D03*
X010748Y024015D03*
X010748Y024010D03*
X010748Y024006D03*
X010748Y024001D03*
X010748Y023997D03*
X010748Y023993D03*
X010748Y023988D03*
X010748Y023984D03*
X010748Y023979D03*
X010748Y023975D03*
X010748Y023971D03*
X010748Y023966D03*
X010748Y023962D03*
X010748Y023957D03*
X010753Y023949D03*
X010753Y023944D03*
X010753Y023940D03*
X010753Y023935D03*
X010753Y023931D03*
X010753Y023927D03*
X010753Y023922D03*
X010753Y023918D03*
X010753Y023913D03*
X010753Y023909D03*
X010753Y023904D03*
X010753Y023900D03*
X010753Y023896D03*
X010753Y023891D03*
X010757Y023874D03*
X010757Y023869D03*
X010757Y023865D03*
X010766Y023719D03*
X010766Y023715D03*
X010766Y023710D03*
X010766Y023706D03*
X010766Y023702D03*
X010766Y023697D03*
X010766Y023693D03*
X010766Y023688D03*
X010766Y023684D03*
X010766Y023680D03*
X010766Y023675D03*
X010766Y023671D03*
X010766Y023666D03*
X010766Y023662D03*
X010766Y023658D03*
X010766Y023653D03*
X010766Y023649D03*
X010766Y023644D03*
X010770Y023631D03*
X010770Y023627D03*
X010770Y023622D03*
X010770Y023618D03*
X010770Y023613D03*
X010770Y023609D03*
X010770Y023605D03*
X010770Y023600D03*
X010770Y023596D03*
X010770Y023591D03*
X010775Y023561D03*
X010775Y023556D03*
X010775Y023552D03*
X010775Y023547D03*
X010775Y023543D03*
X010775Y023539D03*
X010775Y023534D03*
X010775Y023530D03*
X010775Y023525D03*
X010775Y023521D03*
X010775Y023516D03*
X010775Y023512D03*
X010775Y023508D03*
X010775Y023503D03*
X010775Y023499D03*
X010775Y023494D03*
X010775Y023490D03*
X010775Y023486D03*
X010775Y023481D03*
X010775Y023477D03*
X010779Y023468D03*
X010779Y023464D03*
X010779Y023459D03*
X010779Y023455D03*
X010779Y023450D03*
X010779Y023446D03*
X010779Y023441D03*
X010779Y023437D03*
X010779Y023433D03*
X010779Y023428D03*
X010779Y023424D03*
X010779Y023419D03*
X010779Y023415D03*
X010779Y023411D03*
X010779Y023406D03*
X010779Y023402D03*
X010784Y023393D03*
X010784Y023389D03*
X010784Y023384D03*
X010784Y023380D03*
X010784Y023375D03*
X010784Y023371D03*
X010784Y023367D03*
X010784Y023362D03*
X010784Y023358D03*
X010784Y023353D03*
X010784Y023349D03*
X010784Y023344D03*
X010784Y023340D03*
X010784Y023336D03*
X010784Y023331D03*
X010784Y023327D03*
X010784Y023322D03*
X010784Y023318D03*
X010788Y023309D03*
X010788Y023305D03*
X010788Y023300D03*
X010788Y023296D03*
X010788Y023292D03*
X010788Y023287D03*
X010788Y023283D03*
X010788Y023278D03*
X010788Y023274D03*
X010788Y023270D03*
X010788Y023265D03*
X010788Y023261D03*
X010788Y023256D03*
X010788Y023252D03*
X010788Y023247D03*
X010788Y023243D03*
X010788Y023239D03*
X010793Y023225D03*
X010793Y023221D03*
X010793Y023217D03*
X010793Y023212D03*
X010793Y023208D03*
X010793Y023203D03*
X010793Y023199D03*
X010793Y023195D03*
X010793Y023190D03*
X010793Y023186D03*
X010744Y024032D03*
X010744Y024037D03*
X010744Y024041D03*
X010744Y024046D03*
X010744Y024050D03*
X010744Y024054D03*
X010744Y024059D03*
X010744Y024063D03*
X010744Y024068D03*
X010740Y024076D03*
X010740Y024081D03*
X010740Y024085D03*
X010740Y024090D03*
X010740Y024094D03*
X010740Y024099D03*
X010735Y024112D03*
X010735Y024116D03*
X010735Y024121D03*
X010731Y024134D03*
X010731Y024138D03*
X010731Y024143D03*
X010726Y024156D03*
X010726Y024160D03*
X010025Y024160D03*
X010021Y024143D03*
X010021Y024138D03*
X010021Y024134D03*
X010016Y024125D03*
X010016Y024121D03*
X010016Y024116D03*
X010012Y024099D03*
X010012Y024094D03*
X010012Y024090D03*
X010012Y024085D03*
X010012Y024081D03*
X010008Y024068D03*
X010008Y024063D03*
X010008Y024059D03*
X010008Y024054D03*
X010008Y024050D03*
X010008Y024046D03*
X010008Y024041D03*
X010008Y024037D03*
X010003Y024024D03*
X010003Y024019D03*
X010003Y024015D03*
X010003Y024010D03*
X010003Y024006D03*
X010003Y024001D03*
X010003Y023997D03*
X010003Y023993D03*
X010003Y023988D03*
X010003Y023984D03*
X010003Y023979D03*
X009999Y023971D03*
X009999Y023966D03*
X009999Y023962D03*
X009999Y023957D03*
X009999Y023953D03*
X009999Y023949D03*
X009999Y023944D03*
X009999Y023940D03*
X009999Y023935D03*
X009999Y023931D03*
X009999Y023927D03*
X009999Y023922D03*
X009999Y023918D03*
X009999Y023913D03*
X009999Y023909D03*
X009999Y023904D03*
X009999Y023900D03*
X009994Y023874D03*
X009994Y023869D03*
X009994Y023865D03*
X009986Y023719D03*
X009986Y023715D03*
X009986Y023710D03*
X009986Y023706D03*
X009986Y023702D03*
X009986Y023697D03*
X009986Y023693D03*
X009986Y023688D03*
X009986Y023684D03*
X009986Y023680D03*
X009986Y023675D03*
X009986Y023671D03*
X009986Y023666D03*
X009986Y023662D03*
X009986Y023658D03*
X009986Y023653D03*
X009986Y023649D03*
X009981Y023644D03*
X009981Y023640D03*
X009981Y023636D03*
X009981Y023631D03*
X009981Y023627D03*
X009981Y023622D03*
X009981Y023618D03*
X009981Y023613D03*
X009981Y023609D03*
X009981Y023605D03*
X009981Y023600D03*
X009981Y023596D03*
X009981Y023591D03*
X009981Y023587D03*
X009981Y023583D03*
X009981Y023578D03*
X009981Y023574D03*
X009977Y023565D03*
X009977Y023561D03*
X009977Y023556D03*
X009977Y023552D03*
X009977Y023547D03*
X009977Y023543D03*
X009977Y023539D03*
X009977Y023534D03*
X009977Y023530D03*
X009977Y023525D03*
X009977Y023521D03*
X009977Y023516D03*
X009977Y023512D03*
X009977Y023508D03*
X009977Y023503D03*
X009977Y023499D03*
X009977Y023494D03*
X009972Y023486D03*
X009972Y023477D03*
X009972Y023472D03*
X009972Y023468D03*
X009972Y023464D03*
X009972Y023459D03*
X009972Y023455D03*
X009972Y023450D03*
X009972Y023446D03*
X009972Y023441D03*
X009972Y023437D03*
X009972Y023433D03*
X009972Y023428D03*
X009972Y023424D03*
X009972Y023419D03*
X009972Y023415D03*
X009968Y023402D03*
X009968Y023397D03*
X009968Y023393D03*
X009968Y023389D03*
X009968Y023384D03*
X009968Y023380D03*
X009968Y023375D03*
X009968Y023371D03*
X009968Y023367D03*
X009968Y023362D03*
X009968Y023358D03*
X009968Y023353D03*
X009968Y023349D03*
X009968Y023344D03*
X009968Y023340D03*
X009968Y023336D03*
X009968Y023331D03*
X009968Y023327D03*
X009964Y023322D03*
X009964Y023318D03*
X009964Y023314D03*
X009964Y023309D03*
X009964Y023305D03*
X009964Y023300D03*
X009964Y023296D03*
X009964Y023292D03*
X009964Y023287D03*
X009964Y023283D03*
X009964Y023278D03*
X009964Y023274D03*
X009964Y023270D03*
X009964Y023265D03*
X009964Y023261D03*
X009964Y023256D03*
X009964Y023252D03*
X009959Y023243D03*
X009959Y023239D03*
X009959Y023234D03*
X009959Y023230D03*
X009959Y023225D03*
X009959Y023221D03*
X009959Y023217D03*
X009959Y023212D03*
X009959Y023208D03*
X009959Y023203D03*
X009959Y023199D03*
X009959Y023195D03*
X009959Y023190D03*
X009615Y023450D03*
X009620Y023468D03*
X009624Y023481D03*
X009624Y023486D03*
X009624Y023490D03*
X009628Y023503D03*
X009628Y023508D03*
X009628Y023512D03*
X009633Y023525D03*
X009633Y023530D03*
X009633Y023534D03*
X009633Y023539D03*
X009633Y023543D03*
X009637Y023561D03*
X009637Y023565D03*
X009637Y023569D03*
X009637Y023574D03*
X009637Y023578D03*
X009637Y023583D03*
X009637Y023587D03*
X009642Y023600D03*
X009642Y023605D03*
X009642Y023609D03*
X009642Y023613D03*
X009642Y023618D03*
X009642Y023622D03*
X009642Y023627D03*
X009642Y023631D03*
X009642Y023636D03*
X009646Y023653D03*
X009646Y023658D03*
X009646Y023662D03*
X009646Y023666D03*
X009646Y023671D03*
X009646Y023675D03*
X009646Y023680D03*
X009646Y023684D03*
X009646Y023688D03*
X009646Y023693D03*
X009646Y023697D03*
X009646Y023702D03*
X009646Y023706D03*
X009646Y023710D03*
X009646Y023715D03*
X009646Y023719D03*
X009650Y023733D03*
X009650Y023737D03*
X009650Y023741D03*
X009650Y023746D03*
X009650Y023750D03*
X009650Y023755D03*
X009650Y023759D03*
X009650Y023763D03*
X009650Y023768D03*
X009650Y023772D03*
X009650Y023777D03*
X009650Y023781D03*
X009650Y023785D03*
X009650Y023790D03*
X009650Y023794D03*
X009650Y023799D03*
X009655Y023816D03*
X009655Y023821D03*
X009655Y023825D03*
X009655Y023830D03*
X009655Y023834D03*
X009655Y023838D03*
X009655Y023843D03*
X009655Y023847D03*
X009655Y023852D03*
X009655Y023856D03*
X009655Y023860D03*
X009655Y023865D03*
X009655Y023869D03*
X009655Y023874D03*
X009655Y023878D03*
X009659Y023891D03*
X009659Y023896D03*
X009659Y023900D03*
X009659Y023904D03*
X009659Y023909D03*
X009659Y023913D03*
X009659Y023918D03*
X009659Y023922D03*
X009659Y023927D03*
X009659Y023931D03*
X009659Y023935D03*
X009659Y023940D03*
X009659Y023944D03*
X009659Y023949D03*
X009659Y023953D03*
X009659Y023957D03*
X009664Y023993D03*
X009664Y023997D03*
X009664Y024001D03*
X009664Y024006D03*
X009664Y024010D03*
X009664Y024015D03*
X009664Y024019D03*
X009664Y024024D03*
X009664Y024028D03*
X009664Y024032D03*
X009668Y024041D03*
X009668Y024046D03*
X009668Y024054D03*
X009668Y024059D03*
X009668Y024063D03*
X009668Y024068D03*
X009668Y024072D03*
X009668Y024076D03*
X009668Y024081D03*
X009668Y024085D03*
X009668Y024090D03*
X009668Y024094D03*
X009668Y024099D03*
X009668Y024103D03*
X009668Y024107D03*
X009668Y024112D03*
X009668Y024116D03*
X009673Y024143D03*
X009673Y024147D03*
X009673Y024151D03*
X009673Y024156D03*
X009673Y024160D03*
X009673Y024165D03*
X009673Y024169D03*
X009673Y024173D03*
X009673Y024178D03*
X009673Y024182D03*
X009673Y024187D03*
X009673Y024191D03*
X009673Y024196D03*
X009673Y024200D03*
X009673Y024204D03*
X009677Y024218D03*
X009677Y024222D03*
X009677Y024226D03*
X009677Y024231D03*
X009677Y024235D03*
X009677Y024240D03*
X009677Y024244D03*
X009677Y024248D03*
X009677Y024253D03*
X009677Y024257D03*
X009677Y024262D03*
X009677Y024266D03*
X009677Y024270D03*
X009677Y024275D03*
X009677Y024279D03*
X009677Y024284D03*
X009681Y024297D03*
X009681Y024301D03*
X009681Y024306D03*
X009681Y024310D03*
X009681Y024315D03*
X009681Y024319D03*
X009681Y024323D03*
X009681Y024328D03*
X009681Y024332D03*
X009681Y024337D03*
X009681Y024341D03*
X009681Y024345D03*
X009681Y024350D03*
X009681Y024354D03*
X009681Y024359D03*
X009681Y024363D03*
X009686Y024367D03*
X009686Y024372D03*
X009686Y024376D03*
X009686Y024381D03*
X009686Y024385D03*
X009686Y024390D03*
X009686Y024394D03*
X009686Y024398D03*
X009686Y024403D03*
X009686Y024407D03*
X009686Y024412D03*
X009686Y024416D03*
X009686Y024420D03*
X009686Y024425D03*
X009686Y024429D03*
X009686Y024434D03*
X009686Y024438D03*
X009686Y024447D03*
X008857Y024390D03*
X008857Y024385D03*
X008857Y024381D03*
X008857Y024376D03*
X008857Y024372D03*
X008857Y024367D03*
X008857Y024363D03*
X008857Y024359D03*
X008857Y024354D03*
X008857Y024350D03*
X008857Y024345D03*
X008857Y024341D03*
X008857Y024337D03*
X008857Y024332D03*
X008861Y024315D03*
X008861Y024310D03*
X008861Y024306D03*
X008861Y024301D03*
X008861Y024297D03*
X008861Y024293D03*
X008861Y024288D03*
X008861Y024284D03*
X008861Y024279D03*
X008861Y024275D03*
X008861Y024270D03*
X008861Y024266D03*
X008861Y024262D03*
X008861Y024257D03*
X008861Y024253D03*
X008861Y024248D03*
X008861Y024244D03*
X008861Y024240D03*
X008861Y024235D03*
X008866Y024231D03*
X008866Y024226D03*
X008866Y024222D03*
X008866Y024218D03*
X008866Y024213D03*
X008866Y024209D03*
X008866Y024204D03*
X008866Y024200D03*
X008866Y024196D03*
X008866Y024191D03*
X008866Y024187D03*
X008866Y024182D03*
X008870Y024151D03*
X008870Y024147D03*
X008870Y024143D03*
X008870Y024138D03*
X008870Y024134D03*
X008870Y024129D03*
X008870Y024125D03*
X008870Y024121D03*
X008870Y024116D03*
X008870Y024112D03*
X008870Y024107D03*
X008870Y024103D03*
X008870Y024099D03*
X008870Y024094D03*
X008870Y024090D03*
X008870Y024085D03*
X008874Y024081D03*
X008874Y024076D03*
X008874Y024072D03*
X008874Y024068D03*
X008874Y024063D03*
X008874Y024059D03*
X008874Y024054D03*
X008874Y024050D03*
X008874Y024046D03*
X008874Y024041D03*
X008874Y024037D03*
X008874Y024032D03*
X008874Y024028D03*
X008874Y024024D03*
X008874Y024019D03*
X008874Y024015D03*
X008874Y024010D03*
X008874Y024006D03*
X008874Y024001D03*
X008879Y023997D03*
X008879Y023993D03*
X008879Y023988D03*
X008879Y023984D03*
X008879Y023979D03*
X008879Y023975D03*
X008879Y023971D03*
X008879Y023966D03*
X008879Y023962D03*
X008879Y023957D03*
X008879Y023953D03*
X008879Y023949D03*
X008879Y023944D03*
X008879Y023940D03*
X008879Y023935D03*
X008879Y023931D03*
X008879Y023927D03*
X008883Y023918D03*
X008883Y023913D03*
X008883Y023909D03*
X008883Y023904D03*
X008883Y023900D03*
X008883Y023896D03*
X008883Y023891D03*
X008883Y023887D03*
X008883Y023882D03*
X008883Y023878D03*
X008883Y023874D03*
X008883Y023869D03*
X008883Y023865D03*
X008883Y023860D03*
X008883Y023856D03*
X008883Y023852D03*
X008883Y023847D03*
X008888Y023816D03*
X008888Y023812D03*
X008888Y023807D03*
X008888Y023803D03*
X008888Y023799D03*
X008888Y023794D03*
X008888Y023790D03*
X008888Y023785D03*
X008888Y023781D03*
X008888Y023777D03*
X008888Y023772D03*
X008888Y023768D03*
X008888Y023763D03*
X008892Y023755D03*
X008892Y023750D03*
X008892Y023746D03*
X008892Y023741D03*
X008892Y023737D03*
X008892Y023733D03*
X008892Y023728D03*
X008892Y023724D03*
X008892Y023719D03*
X008892Y023715D03*
X008892Y023710D03*
X008892Y023706D03*
X008892Y023702D03*
X008892Y023697D03*
X008892Y023693D03*
X008892Y023688D03*
X008892Y023684D03*
X008896Y023649D03*
X008896Y023644D03*
X008896Y023640D03*
X008896Y023636D03*
X008896Y023631D03*
X008896Y023627D03*
X008896Y023622D03*
X008896Y023618D03*
X008901Y023600D03*
X008901Y023596D03*
X008901Y023591D03*
X008901Y023587D03*
X008901Y023583D03*
X008901Y023578D03*
X008901Y023574D03*
X008905Y023561D03*
X008905Y023556D03*
X008905Y023552D03*
X008905Y023547D03*
X008905Y023543D03*
X008910Y023530D03*
X008910Y023525D03*
X008910Y023521D03*
X008910Y023516D03*
X008910Y023512D03*
X008914Y023494D03*
X008914Y023490D03*
X008919Y023472D03*
X008852Y024416D03*
X008852Y024420D03*
X008852Y024425D03*
X008852Y024429D03*
X008852Y024434D03*
X008852Y024438D03*
X008852Y024442D03*
X008852Y024447D03*
X007865Y024160D03*
X007865Y024156D03*
X007860Y024143D03*
X007860Y024138D03*
X007860Y024134D03*
X007860Y024129D03*
X007856Y024107D03*
X007856Y024103D03*
X007856Y024099D03*
X007856Y024094D03*
X007856Y024090D03*
X007856Y024085D03*
X007856Y024081D03*
X007856Y024076D03*
X007856Y024072D03*
X007851Y024046D03*
X007851Y024041D03*
X007851Y024037D03*
X007851Y024032D03*
X007851Y024028D03*
X007851Y024024D03*
X007851Y024019D03*
X007851Y024015D03*
X007851Y024010D03*
X007851Y024006D03*
X007851Y024001D03*
X007851Y023997D03*
X007851Y023993D03*
X007851Y023988D03*
X007851Y023984D03*
X007851Y023979D03*
X007851Y023975D03*
X007851Y023971D03*
X007851Y023966D03*
X007851Y023962D03*
X007851Y023957D03*
X007851Y023953D03*
X007851Y023949D03*
X007851Y023944D03*
X007851Y023940D03*
X007851Y023935D03*
X007851Y023931D03*
X007851Y023927D03*
X007851Y023922D03*
X007851Y023918D03*
X007851Y023913D03*
X007851Y023909D03*
X007851Y023904D03*
X007851Y023900D03*
X007851Y023896D03*
X007851Y023891D03*
X007851Y023887D03*
X007851Y023882D03*
X007851Y023878D03*
X007851Y023874D03*
X007851Y023869D03*
X007851Y023865D03*
X007851Y023860D03*
X007851Y023856D03*
X007851Y023852D03*
X007851Y023847D03*
X007851Y023843D03*
X007851Y023838D03*
X007851Y023834D03*
X007851Y023830D03*
X007851Y023825D03*
X007851Y023821D03*
X007851Y023816D03*
X007851Y023812D03*
X007851Y023807D03*
X007851Y023803D03*
X007851Y023799D03*
X007851Y023794D03*
X007851Y023790D03*
X007851Y023785D03*
X007851Y023781D03*
X007851Y023777D03*
X007851Y023772D03*
X007851Y023768D03*
X007851Y023763D03*
X007851Y023759D03*
X007851Y023755D03*
X007851Y023750D03*
X007851Y023746D03*
X007851Y023741D03*
X007851Y023737D03*
X007851Y023733D03*
X007851Y023728D03*
X007851Y023724D03*
X007851Y023719D03*
X007851Y023715D03*
X007851Y023710D03*
X007851Y023706D03*
X007851Y023702D03*
X007851Y023697D03*
X007851Y023693D03*
X007851Y023688D03*
X007851Y023684D03*
X007851Y023680D03*
X007851Y023675D03*
X007851Y023671D03*
X007851Y023666D03*
X007851Y023662D03*
X007851Y023658D03*
X007851Y023653D03*
X007851Y023649D03*
X007851Y023644D03*
X007851Y023640D03*
X007851Y023636D03*
X007851Y023631D03*
X007851Y023627D03*
X007851Y023622D03*
X007851Y023618D03*
X007851Y023613D03*
X007851Y023609D03*
X007851Y023605D03*
X007851Y023600D03*
X007851Y023596D03*
X007851Y023591D03*
X007851Y023587D03*
X007851Y023583D03*
X007851Y023578D03*
X007856Y023565D03*
X007856Y023561D03*
X007856Y023556D03*
X007856Y023552D03*
X007856Y023547D03*
X007856Y023543D03*
X007856Y023539D03*
X007856Y023534D03*
X007856Y023530D03*
X007856Y023525D03*
X007856Y023521D03*
X007856Y023516D03*
X007860Y023499D03*
X007860Y023494D03*
X007860Y023490D03*
X007865Y023477D03*
X007865Y023472D03*
X014126Y024319D03*
X015497Y023261D03*
D44*
X014836Y022829D03*
D45*
X014838Y022833D03*
D46*
X015502Y023247D03*
X015502Y023252D03*
X014122Y023168D03*
X013967Y022842D03*
X013967Y022837D03*
X014122Y024328D03*
X011829Y024332D03*
X011829Y024337D03*
X011829Y024341D03*
X011829Y024345D03*
X011829Y024350D03*
X011829Y024354D03*
X011829Y024359D03*
X011829Y024363D03*
X011829Y024367D03*
X011829Y024372D03*
X011829Y024376D03*
X011829Y024381D03*
X011829Y024385D03*
X011829Y024390D03*
X011829Y024394D03*
X011829Y024398D03*
X011829Y024403D03*
X011829Y024407D03*
X011829Y024412D03*
X011829Y024416D03*
X011829Y024420D03*
X011829Y024425D03*
X011829Y024429D03*
X011829Y024434D03*
X011829Y024438D03*
X011833Y024151D03*
X011833Y024147D03*
X011833Y024143D03*
X011833Y024138D03*
X011833Y024134D03*
X011833Y024129D03*
X011833Y024125D03*
X011833Y024121D03*
X011833Y024116D03*
X011833Y024112D03*
X011833Y024107D03*
X011833Y024103D03*
X011833Y024099D03*
X011833Y024094D03*
X011833Y024090D03*
X011833Y024085D03*
X011833Y024081D03*
X011833Y024076D03*
X011833Y024072D03*
X011833Y024068D03*
X011833Y024063D03*
X011833Y024059D03*
X011833Y024054D03*
X011833Y024050D03*
X011833Y024046D03*
X011833Y024041D03*
X011833Y024037D03*
X011833Y024032D03*
X011833Y024028D03*
X011833Y024024D03*
X011833Y024019D03*
X011833Y024015D03*
X011833Y024010D03*
X011833Y024006D03*
X011833Y024001D03*
X011833Y023997D03*
X011833Y023993D03*
X011833Y023988D03*
X011833Y023984D03*
X011833Y023979D03*
X011833Y023975D03*
X011833Y023971D03*
X011833Y023966D03*
X011833Y023962D03*
X011833Y023957D03*
X011833Y023953D03*
X011833Y023949D03*
X011833Y023944D03*
X011833Y023940D03*
X011833Y023935D03*
X011833Y023931D03*
X011833Y023927D03*
X011833Y023922D03*
X011833Y023918D03*
X011833Y023913D03*
X011833Y023909D03*
X011833Y023904D03*
X011833Y023900D03*
X011833Y023896D03*
X011833Y023891D03*
X011833Y023887D03*
X011833Y023882D03*
X011833Y023878D03*
X011833Y023874D03*
X011833Y023869D03*
X011833Y023865D03*
X011833Y023860D03*
X011833Y023856D03*
X011833Y023852D03*
X011833Y023847D03*
X011833Y023843D03*
X011833Y023838D03*
X011833Y023834D03*
X011833Y023830D03*
X011833Y023825D03*
X011833Y023821D03*
X011833Y023816D03*
X011833Y023812D03*
X011833Y023807D03*
X011833Y023803D03*
X011833Y023799D03*
X011833Y023794D03*
X011833Y023790D03*
X011833Y023785D03*
X011833Y023781D03*
X011833Y023777D03*
X011833Y023772D03*
X011833Y023768D03*
X011833Y023763D03*
X011833Y023759D03*
X011833Y023755D03*
X011833Y023750D03*
X011833Y023746D03*
X011833Y023741D03*
X011833Y023737D03*
X011833Y023733D03*
X011833Y023728D03*
X011833Y023724D03*
X011833Y023719D03*
X011833Y023715D03*
X011833Y023710D03*
D47*
X014840Y022837D03*
D48*
X014843Y022842D03*
D49*
X015504Y023243D03*
X014119Y023164D03*
X013970Y022846D03*
X014119Y024332D03*
X011831Y024328D03*
X011831Y024323D03*
X011831Y024319D03*
X011831Y024315D03*
X011831Y024310D03*
X011831Y024306D03*
X011831Y024301D03*
X011831Y024297D03*
X011831Y024293D03*
X011831Y024288D03*
X011831Y024284D03*
X011831Y024279D03*
X011831Y024275D03*
X011831Y024270D03*
X011831Y024266D03*
X011831Y024262D03*
X011831Y024257D03*
X011831Y024253D03*
X011831Y024248D03*
X011831Y024244D03*
X011831Y024240D03*
X011831Y024235D03*
X011831Y024231D03*
X011831Y024226D03*
X011831Y024222D03*
X011831Y024218D03*
X011831Y024213D03*
X011831Y024209D03*
X011831Y024204D03*
X011831Y024200D03*
X011831Y024196D03*
X011831Y024191D03*
X011831Y024187D03*
X011831Y024182D03*
X011831Y024178D03*
X011831Y024173D03*
X011831Y024169D03*
X011831Y024165D03*
X011831Y024160D03*
X011831Y024156D03*
X011831Y024447D03*
X011835Y023706D03*
X011835Y023702D03*
X011835Y023697D03*
D50*
X014845Y022851D03*
X014845Y022846D03*
D51*
X015506Y023239D03*
X014117Y023159D03*
X013972Y022851D03*
X014117Y024337D03*
D52*
X014115Y024341D03*
X014115Y023155D03*
X013974Y022855D03*
X015508Y023234D03*
X010380Y024447D03*
D53*
X014847Y022855D03*
D54*
X015511Y023230D03*
X014113Y023150D03*
X013976Y022859D03*
X014113Y024345D03*
D55*
X014849Y022859D03*
D56*
X015513Y023225D03*
X014111Y023146D03*
X013978Y022864D03*
X014111Y024350D03*
D57*
X014851Y022864D03*
D58*
X015515Y023221D03*
X014108Y023142D03*
X013981Y022868D03*
X014108Y024085D03*
X014108Y024354D03*
X014108Y024359D03*
D59*
X014854Y022868D03*
D60*
X015517Y023217D03*
X014106Y023137D03*
X013983Y022873D03*
X014106Y023477D03*
X014106Y023481D03*
X014106Y023486D03*
X014106Y023490D03*
X014106Y023494D03*
X014106Y023499D03*
X014106Y023503D03*
X014106Y023508D03*
X014106Y023512D03*
X014106Y023516D03*
X014106Y023521D03*
X014106Y023525D03*
X014106Y023530D03*
X014106Y023534D03*
X014106Y023539D03*
X014106Y023543D03*
X014106Y023547D03*
X014106Y023552D03*
X014106Y023556D03*
X014106Y023561D03*
X014106Y023565D03*
X014106Y023569D03*
X014106Y023574D03*
X014106Y023578D03*
X014106Y023583D03*
X014106Y023587D03*
X014106Y023591D03*
X014106Y023596D03*
X014106Y023600D03*
X014106Y023605D03*
X014106Y023609D03*
X014106Y023613D03*
X014106Y023618D03*
X014106Y023622D03*
X014106Y023627D03*
X014106Y023631D03*
X014106Y023636D03*
X014106Y023640D03*
X014106Y023644D03*
X014106Y023649D03*
X014106Y023653D03*
X014106Y023658D03*
X014106Y023662D03*
X014106Y023666D03*
X014106Y023671D03*
X014106Y023675D03*
X014106Y023680D03*
X014106Y023684D03*
X014106Y023688D03*
X014106Y023693D03*
X014106Y023697D03*
X014106Y023702D03*
X014106Y023706D03*
X014106Y023710D03*
X014106Y023715D03*
X014106Y023719D03*
X014106Y023724D03*
X014106Y023728D03*
X014106Y023733D03*
X014106Y023737D03*
X014106Y023741D03*
X014106Y023746D03*
X014106Y023750D03*
X014106Y023755D03*
X014106Y023759D03*
X014106Y023763D03*
X014106Y023768D03*
X014106Y023772D03*
X014106Y023777D03*
X014106Y023781D03*
X014106Y023785D03*
X014106Y023790D03*
X014106Y023794D03*
X014106Y023799D03*
X014106Y023803D03*
X014106Y023807D03*
X014106Y023812D03*
X014106Y023816D03*
X014106Y023821D03*
X014106Y023825D03*
X014106Y023830D03*
X014106Y023834D03*
X014106Y023838D03*
X014106Y023843D03*
X014106Y023847D03*
X014106Y023852D03*
X014106Y023856D03*
X014106Y023860D03*
X014106Y023865D03*
X014106Y023869D03*
X014106Y023874D03*
X014106Y023878D03*
X014106Y023882D03*
X014106Y023887D03*
X014106Y023891D03*
X014106Y023896D03*
X014106Y023900D03*
X014106Y023904D03*
X014106Y023909D03*
X014106Y023913D03*
X014106Y023918D03*
X014106Y023922D03*
X014106Y023927D03*
X014106Y023931D03*
X014106Y023935D03*
X014106Y023940D03*
X014106Y023944D03*
X014106Y023949D03*
X014106Y023953D03*
X014106Y023957D03*
X014106Y023962D03*
X014106Y023966D03*
X014106Y023971D03*
X014106Y023975D03*
X014106Y023979D03*
X014106Y023984D03*
X014106Y023988D03*
X014106Y023993D03*
X014106Y023997D03*
X014106Y024001D03*
X014106Y024006D03*
X014106Y024010D03*
X014106Y024015D03*
X014106Y024019D03*
X014106Y024024D03*
X014106Y024028D03*
X014106Y024032D03*
X014106Y024037D03*
X014106Y024041D03*
X014106Y024046D03*
X014106Y024050D03*
X014106Y024054D03*
X014106Y024059D03*
X014106Y024063D03*
X014106Y024068D03*
X014106Y024072D03*
X014106Y024076D03*
X014106Y024081D03*
X014106Y024090D03*
X014106Y024094D03*
X014106Y024099D03*
X014106Y024363D03*
D61*
X014856Y022873D03*
D62*
X015519Y023212D03*
X014104Y023133D03*
X013985Y022877D03*
X014104Y024367D03*
D63*
X014858Y022877D03*
D64*
X015522Y023208D03*
X014102Y023128D03*
X013987Y022881D03*
X014102Y024372D03*
D65*
X014860Y022881D03*
D66*
X015524Y023203D03*
X014100Y023124D03*
X014100Y023120D03*
X013989Y022886D03*
X014100Y024376D03*
D67*
X014862Y022886D03*
D68*
X015526Y023199D03*
X014097Y023115D03*
X013992Y022890D03*
X014097Y024381D03*
D69*
X014865Y022890D03*
D70*
X015528Y023195D03*
X014095Y023111D03*
X013994Y022895D03*
X014095Y024385D03*
D71*
X014867Y022895D03*
D72*
X015530Y023181D03*
X015530Y023190D03*
X014093Y023106D03*
X013996Y022904D03*
X013996Y022899D03*
X014093Y024390D03*
D73*
X014869Y022899D03*
D74*
X014871Y022904D03*
D75*
X015533Y023186D03*
X014091Y023102D03*
X013998Y022908D03*
X014091Y024394D03*
D76*
X014873Y022908D03*
D77*
X014089Y023098D03*
X014000Y022912D03*
X014089Y024398D03*
D78*
X014876Y022912D03*
D79*
X014086Y023093D03*
X014003Y022917D03*
X014086Y024403D03*
D80*
X014878Y022921D03*
X014878Y022917D03*
D81*
X014084Y023089D03*
X014005Y022921D03*
X014084Y024407D03*
D82*
X014082Y024412D03*
X014082Y023084D03*
X014007Y022926D03*
D83*
X014880Y022926D03*
D84*
X014080Y023080D03*
X014009Y022930D03*
X014080Y024416D03*
D85*
X014882Y022930D03*
D86*
X014078Y023076D03*
X014011Y022934D03*
X014078Y024420D03*
D87*
X014884Y022934D03*
D88*
X014075Y023071D03*
X014014Y022939D03*
X014075Y024425D03*
X014075Y024429D03*
D89*
X014887Y022939D03*
D90*
X014073Y023067D03*
X014016Y022943D03*
X014073Y024434D03*
D91*
X014889Y022943D03*
D92*
X014071Y023062D03*
X014018Y022948D03*
D93*
X014891Y022948D03*
D94*
X014069Y023058D03*
X014020Y022952D03*
X014069Y024438D03*
D95*
X014893Y022952D03*
D96*
X014067Y023053D03*
X014022Y022956D03*
X014067Y024442D03*
X014067Y024447D03*
D97*
X014896Y022956D03*
D98*
X014064Y023049D03*
X014025Y022961D03*
D99*
X014898Y022961D03*
D100*
X014062Y023040D03*
X014062Y023045D03*
X014027Y022965D03*
D101*
X014900Y022965D03*
D102*
X014060Y023036D03*
X014029Y022970D03*
D103*
X014902Y022970D03*
D104*
X014058Y023031D03*
X014031Y022979D03*
X014031Y022974D03*
D105*
X014904Y022974D03*
D106*
X014907Y022979D03*
D107*
X014056Y023027D03*
X014033Y022983D03*
D108*
X014909Y022983D03*
D109*
X014051Y023018D03*
X014038Y022992D03*
X014038Y022987D03*
D110*
X014911Y022987D03*
X014911Y022992D03*
D111*
X014049Y023014D03*
X014040Y022996D03*
X011884Y023181D03*
D112*
X014913Y022996D03*
D113*
X014915Y023001D03*
D114*
X014918Y023005D03*
D115*
X014920Y023009D03*
D116*
X014922Y023014D03*
D117*
X014924Y023018D03*
D118*
X014053Y023023D03*
X010662Y023724D03*
D119*
X014926Y023023D03*
D120*
X014929Y023027D03*
D121*
X014931Y023031D03*
D122*
X014933Y023036D03*
D123*
X014935Y023040D03*
D124*
X014937Y023045D03*
D125*
X014940Y023049D03*
D126*
X014942Y023053D03*
D127*
X014944Y023058D03*
D128*
X014946Y023062D03*
D129*
X014948Y023067D03*
X014948Y023071D03*
D130*
X014951Y023076D03*
D131*
X014953Y023080D03*
D132*
X014955Y023084D03*
D133*
X014957Y023089D03*
D134*
X014959Y023093D03*
D135*
X014962Y023098D03*
D136*
X014964Y023102D03*
D137*
X014966Y023106D03*
D138*
X014968Y023111D03*
D139*
X014970Y023115D03*
D140*
X014973Y023120D03*
D141*
X014975Y023124D03*
D142*
X014977Y023128D03*
X014977Y023133D03*
D143*
X014981Y023137D03*
D144*
X014984Y023142D03*
X014984Y023146D03*
D145*
X014986Y023150D03*
D146*
X014988Y023155D03*
D147*
X014990Y023159D03*
D148*
X014993Y023164D03*
D149*
X014995Y023168D03*
D150*
X015500Y023256D03*
X014124Y023173D03*
X013286Y023327D03*
X013286Y023331D03*
X013286Y023336D03*
X013286Y023340D03*
X013286Y023697D03*
X013286Y023719D03*
X013286Y023869D03*
X013286Y023874D03*
X013286Y023896D03*
X013286Y023900D03*
X013286Y023904D03*
X013286Y024191D03*
X013286Y024196D03*
X012611Y024275D03*
X012611Y024279D03*
X012611Y024284D03*
X012611Y024301D03*
X011831Y024442D03*
X010768Y023640D03*
X010768Y023636D03*
X009975Y023490D03*
X010001Y023975D03*
X009666Y024037D03*
X009666Y024050D03*
X009648Y023728D03*
X009648Y023724D03*
X009639Y023596D03*
X009639Y023591D03*
X008890Y023759D03*
X014124Y024323D03*
D151*
X014997Y023173D03*
D152*
X014999Y023177D03*
D153*
X014951Y023181D03*
X014571Y024539D03*
D154*
X015394Y024434D03*
X015394Y024429D03*
X015394Y023481D03*
X014230Y023397D03*
X008361Y023186D03*
D155*
X008217Y023270D03*
X013535Y023190D03*
X013535Y023186D03*
X014655Y024416D03*
X014655Y024420D03*
X015250Y024125D03*
X015250Y023785D03*
D156*
X015158Y023984D03*
X014849Y023186D03*
D157*
X014849Y023411D03*
X014598Y023680D03*
X014254Y023450D03*
X014655Y024293D03*
X015370Y024381D03*
X015370Y023530D03*
X008336Y023190D03*
D158*
X009269Y023190D03*
X010623Y024297D03*
X011778Y023530D03*
X011778Y023525D03*
X011778Y023521D03*
X014181Y023296D03*
X014181Y024200D03*
X015442Y024535D03*
X015442Y023375D03*
D159*
X015162Y023971D03*
X014849Y023190D03*
D160*
X015350Y023574D03*
X015350Y024337D03*
X009269Y023212D03*
X008317Y023195D03*
D161*
X009269Y023195D03*
X014208Y023353D03*
X014208Y024147D03*
X015416Y024478D03*
X015416Y023433D03*
D162*
X015248Y023790D03*
X015248Y024121D03*
X013537Y023195D03*
X010376Y024359D03*
X009269Y023270D03*
X008215Y023274D03*
X008215Y024359D03*
D163*
X014849Y023195D03*
X015167Y023962D03*
D164*
X015336Y023600D03*
X015336Y024310D03*
X008303Y023199D03*
D165*
X009267Y023199D03*
X014232Y023402D03*
X014849Y023437D03*
X014655Y024266D03*
X014655Y024270D03*
X015392Y024425D03*
X015392Y023486D03*
D166*
X015246Y023794D03*
X015246Y024116D03*
X014655Y024425D03*
X014849Y023283D03*
X013540Y023199D03*
X009271Y023274D03*
X008213Y023278D03*
X008213Y024354D03*
D167*
X014851Y023199D03*
X015169Y023957D03*
D168*
X015330Y023618D03*
X015330Y023613D03*
X014849Y023371D03*
X014655Y024332D03*
X015330Y024297D03*
X011136Y024403D03*
X008297Y023203D03*
D169*
X009269Y023203D03*
X014243Y023428D03*
X014851Y023424D03*
X015381Y023508D03*
X015381Y024403D03*
D170*
X015244Y024112D03*
X015244Y023799D03*
X014851Y023278D03*
X013542Y023203D03*
X010376Y024354D03*
X008211Y024350D03*
X008211Y023283D03*
D171*
X014851Y023203D03*
X015173Y023949D03*
D172*
X015317Y023644D03*
X014849Y023358D03*
X015317Y024266D03*
X014655Y024345D03*
X014655Y024350D03*
X011150Y024390D03*
X008284Y023208D03*
D173*
X009269Y023208D03*
X014261Y023464D03*
X015363Y023547D03*
X015363Y024363D03*
D174*
X015242Y024107D03*
X015242Y023803D03*
X014655Y024429D03*
X013544Y023212D03*
X013544Y023208D03*
X008209Y023287D03*
X008209Y024345D03*
D175*
X014851Y023208D03*
X015178Y023940D03*
D176*
X015310Y023658D03*
X014851Y023349D03*
X015310Y024253D03*
X011161Y024376D03*
X009269Y023230D03*
X008277Y023212D03*
D177*
X014851Y023212D03*
X015182Y023931D03*
D178*
X015303Y023671D03*
X014849Y023340D03*
X015303Y024240D03*
X014655Y024363D03*
X011167Y024367D03*
X008270Y023217D03*
D179*
X009271Y023217D03*
X011123Y024412D03*
X014655Y024323D03*
X014598Y023649D03*
X014849Y023380D03*
X015339Y023596D03*
X015339Y024315D03*
D180*
X015237Y024099D03*
X015237Y023812D03*
X014849Y023270D03*
X014655Y024434D03*
X013548Y023221D03*
X013548Y023217D03*
X008204Y023296D03*
X008204Y024337D03*
D181*
X014849Y023217D03*
X015184Y023927D03*
D182*
X015297Y024226D03*
X011178Y024354D03*
X011174Y024359D03*
X010376Y024394D03*
X008264Y023221D03*
D183*
X009269Y023221D03*
X011139Y024398D03*
X015328Y024293D03*
X015328Y023622D03*
D184*
X015189Y023913D03*
X015189Y023918D03*
X014849Y023221D03*
D185*
X014849Y023327D03*
X015290Y023702D03*
X015290Y024209D03*
X014655Y024376D03*
X008257Y023225D03*
D186*
X009269Y023225D03*
X015319Y023640D03*
X015319Y024270D03*
D187*
X015235Y024094D03*
X015235Y023816D03*
X013551Y023225D03*
X010376Y024345D03*
X009269Y023283D03*
X008202Y023300D03*
X008202Y024332D03*
D188*
X013593Y023322D03*
X014849Y023225D03*
X015193Y023904D03*
X015193Y023909D03*
D189*
X015286Y023710D03*
X015286Y024200D03*
X014655Y024381D03*
X014849Y023322D03*
X011194Y024328D03*
X009271Y023243D03*
X008253Y023230D03*
X008253Y024403D03*
D190*
X008200Y024328D03*
X008200Y023305D03*
X013553Y023230D03*
X014655Y024438D03*
X015233Y024090D03*
X015233Y023821D03*
X014849Y023265D03*
D191*
X014849Y023230D03*
X015198Y023896D03*
X013588Y023314D03*
X013588Y023309D03*
D192*
X014655Y024385D03*
X015281Y024191D03*
X015281Y023719D03*
X014849Y023318D03*
X011203Y024315D03*
X011198Y024319D03*
X010378Y024385D03*
X008248Y023234D03*
D193*
X009269Y023234D03*
X015301Y023675D03*
X015301Y024235D03*
D194*
X015231Y024085D03*
X015231Y023825D03*
X013555Y023234D03*
X010376Y024341D03*
X009269Y023287D03*
X008198Y023309D03*
X008198Y024319D03*
X008198Y024323D03*
D195*
X010374Y024306D03*
X013584Y023300D03*
X014849Y023234D03*
X015202Y023887D03*
D196*
X015277Y023728D03*
X015277Y024182D03*
X014655Y024390D03*
X014849Y023314D03*
X011207Y024306D03*
X008244Y023239D03*
D197*
X008259Y024407D03*
X009269Y023239D03*
X011183Y024345D03*
X015292Y024218D03*
X015292Y024213D03*
X015292Y023697D03*
X015292Y023693D03*
D198*
X015228Y023830D03*
X015228Y023834D03*
X015228Y024076D03*
X015228Y024081D03*
X014655Y024442D03*
X014849Y023261D03*
X013557Y023239D03*
X008195Y023314D03*
X008195Y024315D03*
D199*
X007929Y024275D03*
X007933Y023353D03*
X010654Y024284D03*
X011804Y023353D03*
X011804Y023349D03*
X011804Y023344D03*
X011804Y023340D03*
X011804Y023336D03*
X014155Y023239D03*
X014155Y024257D03*
X015469Y023318D03*
D200*
X015206Y023878D03*
X014849Y023239D03*
X013579Y023287D03*
X013579Y023292D03*
X013579Y023728D03*
X013579Y023768D03*
X013579Y023772D03*
X013579Y023777D03*
X013579Y023781D03*
X013579Y023785D03*
X013579Y023790D03*
X013579Y023794D03*
X013579Y023799D03*
X013579Y023803D03*
X013579Y023807D03*
X013579Y023812D03*
X013579Y023816D03*
X013579Y023821D03*
X013579Y023825D03*
X013579Y023830D03*
X013579Y023834D03*
X013579Y023838D03*
X013579Y023843D03*
X013579Y023860D03*
X009271Y023318D03*
D201*
X008239Y023243D03*
X014655Y024394D03*
X015273Y024173D03*
X015273Y023737D03*
X014849Y023309D03*
D202*
X015226Y023838D03*
X013559Y023243D03*
X010376Y024337D03*
X009269Y023292D03*
X008193Y023318D03*
X008193Y023322D03*
X008193Y024310D03*
D203*
X010096Y024284D03*
X011414Y024284D03*
X011802Y023367D03*
X011802Y023362D03*
X011802Y023358D03*
X014157Y023243D03*
X014849Y023516D03*
X014655Y024187D03*
X014655Y024191D03*
X014157Y024253D03*
X015467Y023322D03*
D204*
X015211Y023869D03*
X014849Y023243D03*
X013575Y023278D03*
D205*
X014655Y024398D03*
X015268Y024165D03*
X015268Y023746D03*
X014849Y023305D03*
X008235Y023247D03*
D206*
X008246Y024394D03*
X009269Y023247D03*
X011205Y024310D03*
X015279Y024187D03*
X015279Y023724D03*
D207*
X015224Y023843D03*
X015224Y024068D03*
X015224Y024072D03*
X014655Y024447D03*
X014849Y023256D03*
X013562Y023252D03*
X013562Y023247D03*
X009271Y023296D03*
X008191Y024306D03*
D208*
X007937Y024279D03*
X008996Y023344D03*
X009542Y023344D03*
X011800Y023371D03*
X011800Y023375D03*
X011800Y023380D03*
X011800Y023384D03*
X014159Y023247D03*
X014600Y023777D03*
X014851Y023512D03*
X015464Y023331D03*
X015464Y023327D03*
X014159Y024248D03*
D209*
X013570Y023270D03*
X014849Y023247D03*
X015215Y023860D03*
D210*
X015264Y023759D03*
X015264Y024156D03*
X014655Y024403D03*
X014849Y023300D03*
X008231Y023252D03*
D211*
X008237Y024385D03*
X009269Y023252D03*
X010376Y024376D03*
X015270Y024169D03*
X015270Y023741D03*
D212*
X014602Y023772D03*
X014549Y023830D03*
X014541Y023838D03*
X014536Y023843D03*
X014532Y023847D03*
X014527Y023852D03*
X014161Y024244D03*
X014161Y023252D03*
X015462Y024575D03*
X011798Y023397D03*
X011798Y023393D03*
X011798Y023389D03*
X010647Y024288D03*
X010105Y024288D03*
X007940Y023349D03*
D213*
X009271Y023300D03*
X013566Y023261D03*
X014849Y023252D03*
X015220Y023852D03*
X015220Y024059D03*
D214*
X015261Y024151D03*
X010376Y024372D03*
X008228Y024376D03*
X008228Y023256D03*
D215*
X008233Y024381D03*
X009269Y023256D03*
X015266Y023750D03*
X015266Y023755D03*
X015266Y024160D03*
D216*
X015222Y024063D03*
X015222Y023847D03*
X013564Y023256D03*
X010376Y024332D03*
D217*
X009538Y023340D03*
X011408Y024288D03*
X011796Y023415D03*
X011796Y023411D03*
X011796Y023406D03*
X011796Y023402D03*
X014164Y023256D03*
X014596Y023781D03*
X014591Y023785D03*
X014587Y023790D03*
X014582Y023794D03*
X014578Y023799D03*
X014574Y023803D03*
X014569Y023807D03*
X014565Y023812D03*
X014560Y023816D03*
X014556Y023821D03*
X014552Y023825D03*
X014543Y023834D03*
X014525Y023856D03*
X014521Y023860D03*
X014516Y023865D03*
X014512Y023869D03*
X014507Y023874D03*
X014503Y023878D03*
X014499Y023882D03*
X014494Y023887D03*
X014490Y023891D03*
X014485Y023896D03*
X014481Y023900D03*
X014477Y023904D03*
X014468Y023913D03*
X014463Y023918D03*
X014463Y023922D03*
X014455Y023931D03*
X014446Y023940D03*
X014437Y023949D03*
X014433Y023953D03*
X014428Y023957D03*
X014419Y023966D03*
X014415Y023971D03*
X014410Y023975D03*
X014402Y023984D03*
X014397Y023988D03*
X014393Y023993D03*
X014388Y023997D03*
X014380Y024010D03*
X014344Y024046D03*
X014340Y024050D03*
X014336Y024054D03*
X014331Y024059D03*
X014327Y024063D03*
X014322Y024068D03*
X014164Y024240D03*
X014657Y024196D03*
X015460Y024570D03*
X015460Y023340D03*
X015460Y023336D03*
D218*
X015257Y023772D03*
X015257Y024138D03*
X015257Y024143D03*
X014657Y024412D03*
X014851Y023292D03*
X010376Y024367D03*
X008224Y023261D03*
D219*
X008226Y024372D03*
X009271Y023261D03*
X014655Y024407D03*
X015259Y024147D03*
X015259Y023768D03*
X015259Y023763D03*
X014849Y023296D03*
D220*
X014849Y023508D03*
X014607Y023768D03*
X014474Y023909D03*
X014457Y023927D03*
X014448Y023935D03*
X014439Y023944D03*
X014421Y023962D03*
X014408Y023979D03*
X014386Y024001D03*
X014382Y024006D03*
X014373Y024015D03*
X014369Y024019D03*
X014364Y024024D03*
X014360Y024028D03*
X014355Y024032D03*
X014351Y024037D03*
X014347Y024041D03*
X014320Y024072D03*
X014316Y024076D03*
X014311Y024081D03*
X014307Y024085D03*
X014302Y024090D03*
X014298Y024094D03*
X014294Y024099D03*
X014166Y024235D03*
X014655Y024200D03*
X014166Y023261D03*
X015458Y023344D03*
X015458Y024566D03*
X011793Y023424D03*
X011793Y023419D03*
X010374Y024442D03*
X010113Y024293D03*
X009002Y023340D03*
X007944Y024284D03*
D221*
X008222Y024367D03*
X008222Y023265D03*
X015255Y023777D03*
X015255Y024134D03*
D222*
X015253Y024129D03*
X015253Y023781D03*
X014851Y023287D03*
X010376Y024363D03*
X009269Y023265D03*
X008220Y024363D03*
D223*
X009269Y023305D03*
X010376Y024328D03*
X013568Y023265D03*
X015217Y023856D03*
D224*
X015456Y023349D03*
X015456Y024561D03*
X014168Y024231D03*
X014168Y023270D03*
X014168Y023265D03*
X011791Y023428D03*
X011791Y023433D03*
X011791Y023437D03*
X011791Y023441D03*
X011791Y023446D03*
X010636Y024293D03*
D225*
X010376Y024319D03*
X010376Y024323D03*
X009269Y023309D03*
X013573Y023274D03*
X015213Y023865D03*
D226*
X014849Y023503D03*
X014602Y023763D03*
X014655Y024204D03*
X014170Y024226D03*
X014170Y023274D03*
X015453Y023353D03*
X015453Y024557D03*
X011789Y023459D03*
X011789Y023455D03*
X011789Y023450D03*
X011397Y024293D03*
X007953Y023344D03*
D227*
X008206Y023292D03*
X008206Y024341D03*
X009269Y023278D03*
X010376Y024350D03*
X014851Y023274D03*
X015239Y023807D03*
X015239Y024103D03*
D228*
X015451Y024553D03*
X014851Y023499D03*
X015451Y023358D03*
X014172Y023278D03*
X014172Y024218D03*
X014172Y024222D03*
X011787Y023472D03*
X011787Y023468D03*
X011787Y023464D03*
X009013Y023336D03*
D229*
X009269Y023314D03*
X010376Y024315D03*
X013577Y023856D03*
X013577Y023852D03*
X013577Y023847D03*
X013577Y023763D03*
X013577Y023759D03*
X013577Y023755D03*
X013577Y023750D03*
X013577Y023746D03*
X013577Y023741D03*
X013577Y023737D03*
X013577Y023733D03*
X013577Y023283D03*
X015209Y023874D03*
D230*
X015449Y023362D03*
X014602Y023759D03*
X014655Y024209D03*
X014175Y024213D03*
X014175Y023283D03*
X015449Y024548D03*
X011785Y023490D03*
X011785Y023486D03*
X011785Y023481D03*
X011785Y023477D03*
X009527Y023336D03*
X007957Y024288D03*
D231*
X007959Y023340D03*
X011782Y023494D03*
X011782Y023499D03*
X011782Y023503D03*
X014177Y023287D03*
X014851Y023494D03*
X015447Y023367D03*
X015447Y024544D03*
D232*
X015444Y024539D03*
X014849Y023490D03*
X014602Y023755D03*
X014655Y024213D03*
X014179Y024209D03*
X014179Y024204D03*
X014179Y023292D03*
X015444Y023371D03*
X011780Y023508D03*
X011780Y023512D03*
X011780Y023516D03*
X011383Y024297D03*
X010127Y024297D03*
D233*
X010376Y024310D03*
X009269Y023322D03*
X013581Y023296D03*
X015204Y023882D03*
D234*
X015440Y023380D03*
X014602Y023750D03*
X014655Y024218D03*
X014183Y024196D03*
X014183Y023300D03*
X015440Y024531D03*
X011776Y023543D03*
X011776Y023539D03*
X011776Y023534D03*
D235*
X013586Y023305D03*
X015200Y023891D03*
D236*
X014851Y023486D03*
X015438Y023384D03*
X015438Y024526D03*
X014186Y024191D03*
X014186Y023305D03*
X011774Y023547D03*
X011774Y023552D03*
X011774Y023556D03*
X011774Y023561D03*
X011774Y023565D03*
X007968Y024293D03*
D237*
X009033Y023331D03*
X009509Y023331D03*
X011767Y023591D03*
X011771Y023574D03*
X011771Y023569D03*
X014188Y023309D03*
X014602Y023746D03*
X014849Y023481D03*
X014655Y024222D03*
X014188Y024187D03*
X015436Y024522D03*
X015436Y023389D03*
D238*
X015433Y023393D03*
X015433Y024517D03*
X014494Y023640D03*
X014490Y023636D03*
X014190Y023314D03*
X014190Y024182D03*
X011765Y023609D03*
X011765Y023605D03*
X011765Y023600D03*
X011765Y023596D03*
X011769Y023587D03*
X011769Y023583D03*
X011769Y023578D03*
X007977Y023336D03*
D239*
X013590Y023318D03*
X015195Y023900D03*
D240*
X014849Y023477D03*
X014602Y023741D03*
X014488Y023631D03*
X014483Y023627D03*
X014457Y023600D03*
X014192Y023318D03*
X014192Y024178D03*
X014655Y024226D03*
X015431Y024513D03*
X015431Y023402D03*
X015431Y023397D03*
X011763Y023613D03*
X011763Y023618D03*
X011763Y023622D03*
D241*
X011760Y023627D03*
X011760Y023631D03*
X011760Y023636D03*
X011364Y024301D03*
X010376Y024438D03*
X014194Y024173D03*
X014477Y023622D03*
X014472Y023618D03*
X014468Y023613D03*
X014463Y023609D03*
X014459Y023605D03*
X014450Y023596D03*
X014446Y023591D03*
X014441Y023587D03*
X014437Y023583D03*
X014433Y023578D03*
X014428Y023574D03*
X014424Y023569D03*
X014419Y023565D03*
X014194Y023322D03*
X015429Y023406D03*
X015429Y024509D03*
D242*
X015365Y024372D03*
X015365Y024367D03*
X014655Y024297D03*
X014598Y023675D03*
X014849Y023406D03*
X015365Y023539D03*
X015365Y023543D03*
X014258Y023459D03*
X011092Y024429D03*
X008050Y023327D03*
D243*
X009062Y023327D03*
X014216Y023371D03*
X014216Y024125D03*
X015407Y024460D03*
X015407Y023455D03*
X015407Y023450D03*
D244*
X015409Y023446D03*
X014849Y023455D03*
X014602Y023719D03*
X014655Y024248D03*
X014214Y024134D03*
X014214Y024129D03*
X014214Y023367D03*
X015409Y024464D03*
X009479Y023327D03*
X008376Y024447D03*
D245*
X007984Y024297D03*
X010149Y024301D03*
X010603Y024301D03*
X011758Y023649D03*
X011758Y023644D03*
X011758Y023640D03*
X014197Y023327D03*
X014391Y023534D03*
X014395Y023539D03*
X014399Y023543D03*
X014404Y023547D03*
X014408Y023552D03*
X014413Y023556D03*
X014417Y023561D03*
X014602Y023737D03*
X014849Y023472D03*
X014655Y024231D03*
X014197Y024169D03*
X015427Y024500D03*
X015427Y024504D03*
X015427Y023411D03*
D246*
X015411Y023441D03*
X015411Y024469D03*
X014212Y023362D03*
X007999Y023331D03*
D247*
X011033Y024447D03*
X011756Y023666D03*
X011756Y023662D03*
X011756Y023658D03*
X011756Y023653D03*
X014199Y023331D03*
X014340Y023486D03*
X014344Y023490D03*
X014349Y023494D03*
X014353Y023499D03*
X014358Y023503D03*
X014362Y023508D03*
X014366Y023512D03*
X014371Y023516D03*
X014375Y023521D03*
X014380Y023525D03*
X014384Y023530D03*
X014604Y023733D03*
X014199Y024165D03*
X015425Y024495D03*
X015425Y023415D03*
D248*
X015295Y023688D03*
X015295Y024222D03*
X014655Y024372D03*
X014849Y023331D03*
X011181Y024350D03*
D249*
X011754Y023680D03*
X011754Y023675D03*
X011754Y023671D03*
X014201Y023336D03*
X014333Y023477D03*
X014338Y023481D03*
X014849Y023468D03*
X014655Y024235D03*
X014201Y024160D03*
X015422Y024491D03*
X015422Y023419D03*
D250*
X015299Y023680D03*
X015299Y023684D03*
X015299Y024231D03*
X014655Y024367D03*
X014849Y023336D03*
X011172Y024363D03*
X008266Y024412D03*
D251*
X011752Y023693D03*
X011752Y023688D03*
X011752Y023684D03*
X014203Y023344D03*
X014203Y023340D03*
X014203Y024156D03*
X015420Y024487D03*
X015420Y023424D03*
D252*
X015306Y023666D03*
X014851Y023344D03*
X015306Y024244D03*
X011165Y024372D03*
X010376Y024398D03*
D253*
X014205Y024151D03*
X014655Y024240D03*
X014602Y023728D03*
X014849Y023464D03*
X015418Y023428D03*
X015418Y024482D03*
X014205Y023349D03*
D254*
X014851Y023353D03*
X015314Y023649D03*
X015314Y024262D03*
X011152Y024385D03*
X008281Y024420D03*
D255*
X014210Y024143D03*
X014210Y024138D03*
X014655Y024244D03*
X014602Y023724D03*
X014849Y023459D03*
X015414Y023437D03*
X015414Y024473D03*
X014210Y023358D03*
D256*
X014849Y023362D03*
X015321Y023636D03*
X015321Y024275D03*
X011145Y024394D03*
X010374Y024407D03*
D257*
X014655Y024341D03*
X014655Y024337D03*
X015325Y024288D03*
X015325Y023627D03*
X014849Y023367D03*
D258*
X014849Y023450D03*
X014602Y023715D03*
X014655Y024253D03*
X014219Y024121D03*
X014219Y023375D03*
X015405Y024456D03*
X010374Y024434D03*
D259*
X011128Y024407D03*
X014655Y024328D03*
X015334Y024306D03*
X015334Y023609D03*
X015334Y023605D03*
X014849Y023375D03*
X014598Y023644D03*
D260*
X014221Y023380D03*
X014221Y024116D03*
X015403Y024451D03*
X015403Y023459D03*
X011055Y024442D03*
D261*
X008015Y024301D03*
X014223Y024112D03*
X014655Y024257D03*
X014849Y023446D03*
X015400Y023464D03*
X015400Y024447D03*
X014223Y023384D03*
D262*
X014598Y023653D03*
X014849Y023384D03*
X015343Y023587D03*
X015343Y024323D03*
X014655Y024319D03*
D263*
X014225Y024107D03*
X014600Y023710D03*
X014851Y023441D03*
X015398Y023468D03*
X015398Y023472D03*
X015398Y024438D03*
X015398Y024442D03*
X014225Y023389D03*
D264*
X014598Y023658D03*
X014849Y023389D03*
X015347Y023578D03*
X015347Y024332D03*
X014655Y024315D03*
D265*
X014655Y024262D03*
X014227Y024103D03*
X014598Y023706D03*
X014227Y023393D03*
X015396Y023477D03*
D266*
X015352Y023569D03*
X014849Y023393D03*
X014598Y023662D03*
X014655Y024310D03*
X015352Y024341D03*
X011110Y024420D03*
D267*
X014655Y024306D03*
X014598Y023666D03*
X014849Y023397D03*
X015356Y023561D03*
X015356Y024350D03*
D268*
X015361Y024359D03*
X014655Y024301D03*
X014598Y023671D03*
X014849Y023402D03*
X015361Y023552D03*
X014263Y023468D03*
D269*
X014234Y023406D03*
X014600Y023702D03*
X015389Y023490D03*
X015389Y024420D03*
D270*
X015387Y024416D03*
X015387Y023494D03*
X014849Y023433D03*
X014602Y023697D03*
X014236Y023411D03*
X014655Y024275D03*
D271*
X014600Y023693D03*
X014239Y023419D03*
X014239Y023415D03*
X015385Y023499D03*
X015385Y024412D03*
X011073Y024438D03*
X010376Y024429D03*
D272*
X010376Y024425D03*
X014252Y023446D03*
X014851Y023415D03*
X015372Y023525D03*
X015372Y024385D03*
D273*
X015376Y024394D03*
X015376Y023516D03*
X014851Y023419D03*
X014247Y023437D03*
D274*
X014241Y023424D03*
X014849Y023428D03*
X015383Y023503D03*
X015383Y024407D03*
X014655Y024279D03*
D275*
X014655Y024284D03*
X014598Y023688D03*
X014245Y023433D03*
X015378Y023512D03*
X015378Y024398D03*
X008345Y024442D03*
D276*
X011084Y024434D03*
X014250Y023441D03*
X014598Y023684D03*
X014655Y024288D03*
X015374Y024390D03*
X015374Y023521D03*
D277*
X015367Y023534D03*
X015367Y024376D03*
X014256Y023455D03*
D278*
X014265Y023472D03*
X015359Y023556D03*
X015359Y024354D03*
X011103Y024425D03*
X010376Y024420D03*
X008325Y024438D03*
D279*
X015354Y024345D03*
X015354Y023565D03*
D280*
X015345Y023583D03*
X015345Y024328D03*
X013718Y023724D03*
X011117Y024416D03*
X008312Y024434D03*
D281*
X010376Y024416D03*
X015341Y024319D03*
X015341Y023591D03*
D282*
X015323Y023631D03*
X015323Y024279D03*
X015323Y024284D03*
X008290Y024425D03*
D283*
X010378Y024403D03*
X011159Y024381D03*
X014655Y024354D03*
X015312Y024257D03*
X015312Y023653D03*
D284*
X015308Y023662D03*
X015308Y024248D03*
X014655Y024359D03*
X008275Y024416D03*
D285*
X010376Y024390D03*
X011187Y024341D03*
X011187Y024337D03*
X011192Y024332D03*
X015288Y024204D03*
X015288Y023706D03*
D286*
X015284Y023715D03*
X015284Y024196D03*
X013502Y023865D03*
X011196Y024323D03*
X008250Y024398D03*
D287*
X010376Y023737D03*
X010376Y023733D03*
X010376Y023728D03*
D288*
X010376Y024381D03*
X008242Y024390D03*
X015275Y024178D03*
X015275Y023733D03*
D289*
X010376Y023741D03*
X010376Y023746D03*
X010376Y023750D03*
X010376Y023755D03*
X010376Y023759D03*
X010376Y023763D03*
X010376Y023768D03*
X010376Y023772D03*
X010376Y023777D03*
X010376Y023781D03*
X010376Y023785D03*
X010376Y023790D03*
X010376Y023794D03*
X010376Y023799D03*
D290*
X010374Y023803D03*
X010374Y023807D03*
X010374Y023812D03*
D291*
X010376Y023816D03*
X010376Y023821D03*
X010376Y023825D03*
X010376Y023830D03*
X010376Y023834D03*
X010376Y023838D03*
X010376Y023843D03*
X010376Y023847D03*
X010376Y023852D03*
X010376Y023856D03*
X010376Y023860D03*
D292*
X015187Y023922D03*
D293*
X015180Y023935D03*
D294*
X015176Y023944D03*
D295*
X015171Y023953D03*
D296*
X015164Y023966D03*
D297*
X015160Y023975D03*
X015160Y023979D03*
D298*
X015156Y023988D03*
D299*
X015153Y023993D03*
D300*
X015151Y023997D03*
D301*
X015149Y024001D03*
D302*
X015147Y024006D03*
D303*
X015145Y024010D03*
D304*
X015142Y024015D03*
D305*
X015140Y024019D03*
D306*
X015138Y024024D03*
D307*
X015136Y024028D03*
D308*
X015134Y024032D03*
D309*
X015131Y024037D03*
D310*
X015129Y024041D03*
D311*
X015127Y024046D03*
X015127Y024050D03*
D312*
X015125Y024054D03*
D313*
X015332Y024301D03*
X010376Y024412D03*
X008299Y024429D03*
D314*
X013033Y024306D03*
D315*
X013030Y024310D03*
D316*
X013028Y024315D03*
D317*
X013026Y024319D03*
D318*
X013024Y024323D03*
D319*
X013021Y024328D03*
D320*
X013019Y024332D03*
D321*
X013017Y024337D03*
D322*
X013015Y024341D03*
D323*
X013013Y024345D03*
D324*
X013010Y024350D03*
D325*
X013008Y024354D03*
X013008Y024359D03*
D326*
X013006Y024363D03*
D327*
X013004Y024367D03*
D328*
X013002Y024372D03*
D329*
X012999Y024376D03*
D330*
X012997Y024381D03*
D331*
X012995Y024385D03*
D332*
X012993Y024390D03*
D333*
X012991Y024394D03*
D334*
X012988Y024398D03*
X012988Y024403D03*
D335*
X012986Y024407D03*
D336*
X012982Y024412D03*
D337*
X012980Y024416D03*
D338*
X012977Y024420D03*
D339*
X012975Y024425D03*
X012975Y024429D03*
D340*
X012973Y024434D03*
D341*
X012971Y024438D03*
D342*
X012966Y024442D03*
X012966Y024447D03*
D343*
X014530Y024451D03*
D344*
X014532Y024456D03*
D345*
X014534Y024460D03*
D346*
X014536Y024464D03*
D347*
X014538Y024469D03*
D348*
X014541Y024473D03*
D349*
X014543Y024478D03*
D350*
X014545Y024482D03*
D351*
X014547Y024487D03*
D352*
X014549Y024491D03*
X014549Y024495D03*
D353*
X014552Y024500D03*
D354*
X014554Y024504D03*
D355*
X014556Y024509D03*
D356*
X014558Y024513D03*
D357*
X014560Y024517D03*
D358*
X014563Y024522D03*
D359*
X014565Y024526D03*
D360*
X014567Y024531D03*
D361*
X014569Y024535D03*
D362*
X014574Y024544D03*
D363*
X014576Y024548D03*
D364*
X014578Y024553D03*
D365*
X014580Y024557D03*
D366*
X014582Y024561D03*
X014582Y024566D03*
D367*
X014585Y024570D03*
D368*
X014587Y024575D03*
M02*
