G75*
G70*
%OFA0B0*%
%FSLAX24Y24*%
%IPPOS*%
%LPD*%
%AMOC8*
5,1,8,0,0,1.08239X$1,22.5*
%
%ADD10C,0.0000*%
D10*
X000150Y001058D02*
X000150Y026922D01*
X000152Y026976D01*
X000157Y027029D01*
X000166Y027082D01*
X000179Y027134D01*
X000195Y027186D01*
X000215Y027236D01*
X000238Y027284D01*
X000265Y027331D01*
X000294Y027376D01*
X000327Y027419D01*
X000362Y027459D01*
X000400Y027497D01*
X000440Y027532D01*
X000483Y027565D01*
X000528Y027594D01*
X000575Y027621D01*
X000623Y027644D01*
X000673Y027664D01*
X000725Y027680D01*
X000777Y027693D01*
X000830Y027702D01*
X000883Y027707D01*
X000937Y027709D01*
X019835Y027709D01*
X019889Y027707D01*
X019942Y027702D01*
X019995Y027693D01*
X020047Y027680D01*
X020099Y027664D01*
X020149Y027644D01*
X020197Y027621D01*
X020244Y027594D01*
X020289Y027565D01*
X020332Y027532D01*
X020372Y027497D01*
X020410Y027459D01*
X020445Y027419D01*
X020478Y027376D01*
X020507Y027331D01*
X020534Y027284D01*
X020557Y027236D01*
X020577Y027186D01*
X020593Y027134D01*
X020606Y027082D01*
X020615Y027029D01*
X020620Y026976D01*
X020622Y026922D01*
X020622Y001058D01*
X020620Y001004D01*
X020615Y000950D01*
X020605Y000896D01*
X020593Y000844D01*
X020576Y000792D01*
X020556Y000741D01*
X020533Y000692D01*
X020506Y000645D01*
X020476Y000600D01*
X020444Y000556D01*
X020408Y000515D01*
X020370Y000477D01*
X020329Y000441D01*
X020285Y000409D01*
X020240Y000379D01*
X020193Y000352D01*
X020144Y000329D01*
X020093Y000309D01*
X020041Y000292D01*
X019989Y000280D01*
X019935Y000270D01*
X019881Y000265D01*
X019827Y000263D01*
X000945Y000263D01*
X000891Y000265D01*
X000837Y000270D01*
X000783Y000280D01*
X000731Y000292D01*
X000679Y000309D01*
X000628Y000329D01*
X000579Y000352D01*
X000532Y000379D01*
X000487Y000409D01*
X000443Y000441D01*
X000402Y000477D01*
X000364Y000515D01*
X000328Y000556D01*
X000296Y000600D01*
X000266Y000645D01*
X000239Y000692D01*
X000216Y000741D01*
X000196Y000792D01*
X000179Y000844D01*
X000167Y000896D01*
X000157Y000950D01*
X000152Y001004D01*
X000150Y001058D01*
X001095Y026134D02*
X001097Y026184D01*
X001103Y026234D01*
X001113Y026283D01*
X001127Y026331D01*
X001144Y026378D01*
X001165Y026423D01*
X001190Y026467D01*
X001218Y026508D01*
X001250Y026547D01*
X001284Y026584D01*
X001321Y026618D01*
X001361Y026648D01*
X001403Y026675D01*
X001447Y026699D01*
X001493Y026720D01*
X001540Y026736D01*
X001588Y026749D01*
X001638Y026758D01*
X001687Y026763D01*
X001738Y026764D01*
X001788Y026761D01*
X001837Y026754D01*
X001886Y026743D01*
X001934Y026728D01*
X001980Y026710D01*
X002025Y026688D01*
X002068Y026662D01*
X002109Y026633D01*
X002148Y026601D01*
X002184Y026566D01*
X002216Y026528D01*
X002246Y026488D01*
X002273Y026445D01*
X002296Y026401D01*
X002315Y026355D01*
X002331Y026307D01*
X002343Y026258D01*
X002351Y026209D01*
X002355Y026159D01*
X002355Y026109D01*
X002351Y026059D01*
X002343Y026010D01*
X002331Y025961D01*
X002315Y025913D01*
X002296Y025867D01*
X002273Y025823D01*
X002246Y025780D01*
X002216Y025740D01*
X002184Y025702D01*
X002148Y025667D01*
X002109Y025635D01*
X002068Y025606D01*
X002025Y025580D01*
X001980Y025558D01*
X001934Y025540D01*
X001886Y025525D01*
X001837Y025514D01*
X001788Y025507D01*
X001738Y025504D01*
X001687Y025505D01*
X001638Y025510D01*
X001588Y025519D01*
X001540Y025532D01*
X001493Y025548D01*
X001447Y025569D01*
X001403Y025593D01*
X001361Y025620D01*
X001321Y025650D01*
X001284Y025684D01*
X001250Y025721D01*
X001218Y025760D01*
X001190Y025801D01*
X001165Y025845D01*
X001144Y025890D01*
X001127Y025937D01*
X001113Y025985D01*
X001103Y026034D01*
X001097Y026084D01*
X001095Y026134D01*
X018418Y005662D02*
X018420Y005712D01*
X018426Y005762D01*
X018436Y005811D01*
X018450Y005859D01*
X018467Y005906D01*
X018488Y005951D01*
X018513Y005995D01*
X018541Y006036D01*
X018573Y006075D01*
X018607Y006112D01*
X018644Y006146D01*
X018684Y006176D01*
X018726Y006203D01*
X018770Y006227D01*
X018816Y006248D01*
X018863Y006264D01*
X018911Y006277D01*
X018961Y006286D01*
X019010Y006291D01*
X019061Y006292D01*
X019111Y006289D01*
X019160Y006282D01*
X019209Y006271D01*
X019257Y006256D01*
X019303Y006238D01*
X019348Y006216D01*
X019391Y006190D01*
X019432Y006161D01*
X019471Y006129D01*
X019507Y006094D01*
X019539Y006056D01*
X019569Y006016D01*
X019596Y005973D01*
X019619Y005929D01*
X019638Y005883D01*
X019654Y005835D01*
X019666Y005786D01*
X019674Y005737D01*
X019678Y005687D01*
X019678Y005637D01*
X019674Y005587D01*
X019666Y005538D01*
X019654Y005489D01*
X019638Y005441D01*
X019619Y005395D01*
X019596Y005351D01*
X019569Y005308D01*
X019539Y005268D01*
X019507Y005230D01*
X019471Y005195D01*
X019432Y005163D01*
X019391Y005134D01*
X019348Y005108D01*
X019303Y005086D01*
X019257Y005068D01*
X019209Y005053D01*
X019160Y005042D01*
X019111Y005035D01*
X019061Y005032D01*
X019010Y005033D01*
X018961Y005038D01*
X018911Y005047D01*
X018863Y005060D01*
X018816Y005076D01*
X018770Y005097D01*
X018726Y005121D01*
X018684Y005148D01*
X018644Y005178D01*
X018607Y005212D01*
X018573Y005249D01*
X018541Y005288D01*
X018513Y005329D01*
X018488Y005373D01*
X018467Y005418D01*
X018450Y005465D01*
X018436Y005513D01*
X018426Y005562D01*
X018420Y005612D01*
X018418Y005662D01*
M02*
