%
M48
M72
T01C0.0118
T02C0.0400
T03C0.1260
%
T01
X14350Y16563
X14350Y12763
X9050Y17963
X12950Y17863
X13900Y16563
X13950Y12663
X9400Y19463
X13550Y19463
X8450Y18963
X9450Y21663
X1350Y7163
X2300Y13563
X2400Y14963
X2700Y19263
X2050Y19463
X5450Y12163
X5450Y15963
X9350Y22163
X750Y6863
X1750Y13363
X1950Y14963
X5850Y9363
X6150Y13563
X10950Y21363
X10750Y16763
X11250Y19863
X11250Y18263
X9550Y11863
X9550Y7263
X9350Y8763
X9350Y10263
X3000Y13563
X13536Y7237
X13836Y10237
X18036Y15337
X4936Y4837
X6736Y9937
X7036Y12637
X7836Y20637
X1136Y1437
X16536Y4037
X18736Y4337
X8336Y23637
X8636Y25937
X12136Y25937
X15536Y25837
X16836Y24237
X1836Y24337
X5536Y2937
X17136Y20337
X5036Y20237
X16536Y6137
X15336Y10837
X2036Y5137
X1836Y18437
X5536Y22837
X18336Y11637
X12750Y11563
X10150Y10363
X7450Y16563
X10650Y16163
X10950Y9463
X12750Y11113
X7350Y16063
X9950Y16063
X11150Y7463
X12750Y10263
X5950Y7613
X11000Y6163
X12750Y9563
X7900Y5863
X13500Y5513
X16650Y2663
X7750Y3963
X11750Y3963
X7400Y4313
X12100Y4313
X6900Y4563
X12450Y4663
X6450Y5163
X12800Y5163
T02
X19850Y8863
X19850Y9863
X19850Y10863
X19850Y11863
X19850Y12863
X19850Y13863
X19850Y14863
X19850Y15863
X19850Y16863
X19850Y17863
X19850Y18863
X19850Y19863
X19850Y20863
X19850Y21863
X950Y8863
X950Y9863
X950Y10863
X950Y11863
X950Y12863
X950Y13863
X950Y14863
X950Y15863
X950Y16863
X950Y17863
X950Y18863
X950Y19863
X950Y20863
X950Y21863
X16550Y1063
X15550Y1063
X14550Y1063
X13550Y1063
X12550Y1063
X11550Y1063
X10550Y1063
X9550Y1063
X8550Y1063
X7550Y1063
X6550Y1063
X5550Y1063
X4550Y1063
X3550Y1063
T03
X1725Y26134
X19048Y5662
M30
