G75*
G70*
%OFA0B0*%
%FSLAX24Y24*%
%IPPOS*%
%LPD*%
%AMOC8*
5,1,8,0,0,1.08239X$1,22.5*
%
%ADD10C,0.0000*%
%ADD11R,0.0630X0.0710*%
%ADD12R,0.0394X0.0433*%
%ADD13R,0.0551X0.0394*%
D10*
X000150Y001058D02*
X000150Y026922D01*
X000152Y026976D01*
X000157Y027029D01*
X000166Y027082D01*
X000179Y027134D01*
X000195Y027186D01*
X000215Y027236D01*
X000238Y027284D01*
X000265Y027331D01*
X000294Y027376D01*
X000327Y027419D01*
X000362Y027459D01*
X000400Y027497D01*
X000440Y027532D01*
X000483Y027565D01*
X000528Y027594D01*
X000575Y027621D01*
X000623Y027644D01*
X000673Y027664D01*
X000725Y027680D01*
X000777Y027693D01*
X000830Y027702D01*
X000883Y027707D01*
X000937Y027709D01*
X019835Y027709D01*
X019889Y027707D01*
X019942Y027702D01*
X019995Y027693D01*
X020047Y027680D01*
X020099Y027664D01*
X020149Y027644D01*
X020197Y027621D01*
X020244Y027594D01*
X020289Y027565D01*
X020332Y027532D01*
X020372Y027497D01*
X020410Y027459D01*
X020445Y027419D01*
X020478Y027376D01*
X020507Y027331D01*
X020534Y027284D01*
X020557Y027236D01*
X020577Y027186D01*
X020593Y027134D01*
X020606Y027082D01*
X020615Y027029D01*
X020620Y026976D01*
X020622Y026922D01*
X020622Y001058D01*
X020620Y001004D01*
X020615Y000950D01*
X020605Y000896D01*
X020593Y000844D01*
X020576Y000792D01*
X020556Y000741D01*
X020533Y000692D01*
X020506Y000645D01*
X020476Y000600D01*
X020444Y000556D01*
X020408Y000515D01*
X020370Y000477D01*
X020329Y000441D01*
X020285Y000409D01*
X020240Y000379D01*
X020193Y000352D01*
X020144Y000329D01*
X020093Y000309D01*
X020041Y000292D01*
X019989Y000280D01*
X019935Y000270D01*
X019881Y000265D01*
X019827Y000263D01*
X000945Y000263D01*
X000891Y000265D01*
X000837Y000270D01*
X000783Y000280D01*
X000731Y000292D01*
X000679Y000309D01*
X000628Y000329D01*
X000579Y000352D01*
X000532Y000379D01*
X000487Y000409D01*
X000443Y000441D01*
X000402Y000477D01*
X000364Y000515D01*
X000328Y000556D01*
X000296Y000600D01*
X000266Y000645D01*
X000239Y000692D01*
X000216Y000741D01*
X000196Y000792D01*
X000179Y000844D01*
X000167Y000896D01*
X000157Y000950D01*
X000152Y001004D01*
X000150Y001058D01*
X001095Y026134D02*
X001097Y026184D01*
X001103Y026234D01*
X001113Y026283D01*
X001127Y026331D01*
X001144Y026378D01*
X001165Y026423D01*
X001190Y026467D01*
X001218Y026508D01*
X001250Y026547D01*
X001284Y026584D01*
X001321Y026618D01*
X001361Y026648D01*
X001403Y026675D01*
X001447Y026699D01*
X001493Y026720D01*
X001540Y026736D01*
X001588Y026749D01*
X001638Y026758D01*
X001687Y026763D01*
X001738Y026764D01*
X001788Y026761D01*
X001837Y026754D01*
X001886Y026743D01*
X001934Y026728D01*
X001980Y026710D01*
X002025Y026688D01*
X002068Y026662D01*
X002109Y026633D01*
X002148Y026601D01*
X002184Y026566D01*
X002216Y026528D01*
X002246Y026488D01*
X002273Y026445D01*
X002296Y026401D01*
X002315Y026355D01*
X002331Y026307D01*
X002343Y026258D01*
X002351Y026209D01*
X002355Y026159D01*
X002355Y026109D01*
X002351Y026059D01*
X002343Y026010D01*
X002331Y025961D01*
X002315Y025913D01*
X002296Y025867D01*
X002273Y025823D01*
X002246Y025780D01*
X002216Y025740D01*
X002184Y025702D01*
X002148Y025667D01*
X002109Y025635D01*
X002068Y025606D01*
X002025Y025580D01*
X001980Y025558D01*
X001934Y025540D01*
X001886Y025525D01*
X001837Y025514D01*
X001788Y025507D01*
X001738Y025504D01*
X001687Y025505D01*
X001638Y025510D01*
X001588Y025519D01*
X001540Y025532D01*
X001493Y025548D01*
X001447Y025569D01*
X001403Y025593D01*
X001361Y025620D01*
X001321Y025650D01*
X001284Y025684D01*
X001250Y025721D01*
X001218Y025760D01*
X001190Y025801D01*
X001165Y025845D01*
X001144Y025890D01*
X001127Y025937D01*
X001113Y025985D01*
X001103Y026034D01*
X001097Y026084D01*
X001095Y026134D01*
X018418Y005662D02*
X018420Y005712D01*
X018426Y005762D01*
X018436Y005811D01*
X018450Y005859D01*
X018467Y005906D01*
X018488Y005951D01*
X018513Y005995D01*
X018541Y006036D01*
X018573Y006075D01*
X018607Y006112D01*
X018644Y006146D01*
X018684Y006176D01*
X018726Y006203D01*
X018770Y006227D01*
X018816Y006248D01*
X018863Y006264D01*
X018911Y006277D01*
X018961Y006286D01*
X019010Y006291D01*
X019061Y006292D01*
X019111Y006289D01*
X019160Y006282D01*
X019209Y006271D01*
X019257Y006256D01*
X019303Y006238D01*
X019348Y006216D01*
X019391Y006190D01*
X019432Y006161D01*
X019471Y006129D01*
X019507Y006094D01*
X019539Y006056D01*
X019569Y006016D01*
X019596Y005973D01*
X019619Y005929D01*
X019638Y005883D01*
X019654Y005835D01*
X019666Y005786D01*
X019674Y005737D01*
X019678Y005687D01*
X019678Y005637D01*
X019674Y005587D01*
X019666Y005538D01*
X019654Y005489D01*
X019638Y005441D01*
X019619Y005395D01*
X019596Y005351D01*
X019569Y005308D01*
X019539Y005268D01*
X019507Y005230D01*
X019471Y005195D01*
X019432Y005163D01*
X019391Y005134D01*
X019348Y005108D01*
X019303Y005086D01*
X019257Y005068D01*
X019209Y005053D01*
X019160Y005042D01*
X019111Y005035D01*
X019061Y005032D01*
X019010Y005033D01*
X018961Y005038D01*
X018911Y005047D01*
X018863Y005060D01*
X018816Y005076D01*
X018770Y005097D01*
X018726Y005121D01*
X018684Y005148D01*
X018644Y005178D01*
X018607Y005212D01*
X018573Y005249D01*
X018541Y005288D01*
X018513Y005329D01*
X018488Y005373D01*
X018467Y005418D01*
X018450Y005465D01*
X018436Y005513D01*
X018426Y005562D01*
X018420Y005612D01*
X018418Y005662D01*
D11*
X018910Y002463D03*
X017790Y002463D03*
G36*
X015007Y004036D02*
X015095Y004659D01*
X015797Y004560D01*
X015709Y003937D01*
X015007Y004036D01*
G37*
X014710Y002963D03*
X013590Y002963D03*
G36*
X015163Y005145D02*
X015251Y005768D01*
X015953Y005669D01*
X015865Y005046D01*
X015163Y005145D01*
G37*
G36*
X015367Y006556D02*
X015455Y007179D01*
X016157Y007080D01*
X016069Y006457D01*
X015367Y006556D01*
G37*
G36*
X015523Y007665D02*
X015611Y008288D01*
X016313Y008189D01*
X016225Y007566D01*
X015523Y007665D01*
G37*
G36*
X015727Y009146D02*
X015815Y009769D01*
X016517Y009670D01*
X016429Y009047D01*
X015727Y009146D01*
G37*
G36*
X015883Y010255D02*
X015971Y010878D01*
X016673Y010779D01*
X016585Y010156D01*
X015883Y010255D01*
G37*
G36*
X016087Y011746D02*
X016175Y012369D01*
X016877Y012270D01*
X016789Y011647D01*
X016087Y011746D01*
G37*
G36*
X016243Y012855D02*
X016331Y013478D01*
X017033Y013379D01*
X016945Y012756D01*
X016243Y012855D01*
G37*
X016310Y014463D03*
X015190Y014463D03*
G36*
X016607Y015446D02*
X016695Y016069D01*
X017397Y015970D01*
X017309Y015347D01*
X016607Y015446D01*
G37*
G36*
X016763Y016555D02*
X016851Y017178D01*
X017553Y017079D01*
X017465Y016456D01*
X016763Y016555D01*
G37*
G36*
X016977Y018046D02*
X017065Y018669D01*
X017767Y018570D01*
X017679Y017947D01*
X016977Y018046D01*
G37*
G36*
X017133Y019155D02*
X017221Y019778D01*
X017923Y019679D01*
X017835Y019056D01*
X017133Y019155D01*
G37*
G36*
X017327Y020646D02*
X017415Y021269D01*
X018117Y021170D01*
X018029Y020547D01*
X017327Y020646D01*
G37*
G36*
X017483Y021755D02*
X017571Y022378D01*
X018273Y022279D01*
X018185Y021656D01*
X017483Y021755D01*
G37*
G36*
X017687Y023226D02*
X017775Y023849D01*
X018477Y023750D01*
X018389Y023127D01*
X017687Y023226D01*
G37*
G36*
X017843Y024335D02*
X017931Y024958D01*
X018633Y024859D01*
X018545Y024236D01*
X017843Y024335D01*
G37*
X017910Y025963D03*
X016790Y025963D03*
X014410Y025963D03*
X013290Y025963D03*
X011010Y025963D03*
X009890Y025963D03*
X007510Y025963D03*
X006390Y025963D03*
G36*
X006123Y024979D02*
X006035Y024356D01*
X005333Y024455D01*
X005421Y025078D01*
X006123Y024979D01*
G37*
G36*
X005967Y023870D02*
X005879Y023247D01*
X005177Y023346D01*
X005265Y023969D01*
X005967Y023870D01*
G37*
G36*
X005743Y022379D02*
X005655Y021756D01*
X004953Y021855D01*
X005041Y022478D01*
X005743Y022379D01*
G37*
G36*
X005587Y021270D02*
X005499Y020647D01*
X004797Y020746D01*
X004885Y021369D01*
X005587Y021270D01*
G37*
G36*
X005383Y019799D02*
X005295Y019176D01*
X004593Y019275D01*
X004681Y019898D01*
X005383Y019799D01*
G37*
G36*
X005227Y018690D02*
X005139Y018067D01*
X004437Y018166D01*
X004525Y018789D01*
X005227Y018690D01*
G37*
G36*
X005023Y017179D02*
X004935Y016556D01*
X004233Y016655D01*
X004321Y017278D01*
X005023Y017179D01*
G37*
G36*
X004867Y016070D02*
X004779Y015447D01*
X004077Y015546D01*
X004165Y016169D01*
X004867Y016070D01*
G37*
X004890Y014463D03*
G36*
X004523Y013479D02*
X004435Y012856D01*
X003733Y012955D01*
X003821Y013578D01*
X004523Y013479D01*
G37*
G36*
X004367Y012370D02*
X004279Y011747D01*
X003577Y011846D01*
X003665Y012469D01*
X004367Y012370D01*
G37*
G36*
X004143Y010879D02*
X004055Y010256D01*
X003353Y010355D01*
X003441Y010978D01*
X004143Y010879D01*
G37*
G36*
X003987Y009770D02*
X003899Y009147D01*
X003197Y009246D01*
X003285Y009869D01*
X003987Y009770D01*
G37*
G36*
X003783Y008269D02*
X003695Y007646D01*
X002993Y007745D01*
X003081Y008368D01*
X003783Y008269D01*
G37*
G36*
X003627Y007160D02*
X003539Y006537D01*
X002837Y006636D01*
X002925Y007259D01*
X003627Y007160D01*
G37*
G36*
X003443Y005779D02*
X003355Y005156D01*
X002653Y005255D01*
X002741Y005878D01*
X003443Y005779D01*
G37*
G36*
X003287Y004670D02*
X003199Y004047D01*
X002497Y004146D01*
X002585Y004769D01*
X003287Y004670D01*
G37*
X003290Y002963D03*
X004410Y002963D03*
X006890Y002963D03*
X008010Y002963D03*
X010100Y002963D03*
X011220Y002963D03*
X011690Y014463D03*
X012810Y014463D03*
X009510Y014463D03*
X008390Y014463D03*
X006010Y014463D03*
D12*
X003585Y014463D03*
X002915Y014463D03*
X002915Y015763D03*
X003585Y015763D03*
X009495Y011113D03*
X010165Y011113D03*
X010165Y009503D03*
X009495Y009503D03*
X009505Y008003D03*
X010175Y008003D03*
X010175Y006503D03*
X009505Y006503D03*
X001985Y004463D03*
X001315Y004463D03*
X001315Y003063D03*
X001985Y003063D03*
X010235Y017413D03*
X010905Y017413D03*
X011005Y019013D03*
X010335Y019013D03*
X010305Y020613D03*
X010975Y020613D03*
X010975Y022113D03*
X010305Y022113D03*
X005085Y025963D03*
X004415Y025963D03*
X017215Y013963D03*
X017885Y013963D03*
X018315Y003363D03*
X018985Y003363D03*
X018815Y026063D03*
X019485Y026063D03*
D13*
X012683Y021763D03*
X011817Y022137D03*
X011817Y021389D03*
X011817Y020637D03*
X011817Y019889D03*
X011817Y019037D03*
X011817Y018289D03*
X011817Y017437D03*
X011817Y016689D03*
X012683Y017063D03*
X012683Y018663D03*
X012683Y020263D03*
X008683Y011837D03*
X008683Y011089D03*
X008683Y010237D03*
X008683Y009489D03*
X008683Y008737D03*
X008683Y007989D03*
X008683Y007137D03*
X008683Y006389D03*
X007817Y006763D03*
X007817Y008363D03*
X007817Y009863D03*
X007817Y011463D03*
M02*
