G75*
G70*
%OFA0B0*%
%FSLAX24Y24*%
%IPPOS*%
%LPD*%
%AMOC8*
5,1,8,0,0,1.08239X$1,22.5*
%
%ADD10C,0.0000*%
%ADD11C,0.1340*%
%ADD12C,0.0680*%
%ADD13C,0.0001*%
%ADD14C,0.0398*%
D10*
X000150Y001058D02*
X000150Y026922D01*
X000152Y026976D01*
X000157Y027029D01*
X000166Y027082D01*
X000179Y027134D01*
X000195Y027186D01*
X000215Y027236D01*
X000238Y027284D01*
X000265Y027331D01*
X000294Y027376D01*
X000327Y027419D01*
X000362Y027459D01*
X000400Y027497D01*
X000440Y027532D01*
X000483Y027565D01*
X000528Y027594D01*
X000575Y027621D01*
X000623Y027644D01*
X000673Y027664D01*
X000725Y027680D01*
X000777Y027693D01*
X000830Y027702D01*
X000883Y027707D01*
X000937Y027709D01*
X019835Y027709D01*
X019889Y027707D01*
X019942Y027702D01*
X019995Y027693D01*
X020047Y027680D01*
X020099Y027664D01*
X020149Y027644D01*
X020197Y027621D01*
X020244Y027594D01*
X020289Y027565D01*
X020332Y027532D01*
X020372Y027497D01*
X020410Y027459D01*
X020445Y027419D01*
X020478Y027376D01*
X020507Y027331D01*
X020534Y027284D01*
X020557Y027236D01*
X020577Y027186D01*
X020593Y027134D01*
X020606Y027082D01*
X020615Y027029D01*
X020620Y026976D01*
X020622Y026922D01*
X020622Y001058D01*
X020620Y001004D01*
X020615Y000950D01*
X020605Y000896D01*
X020593Y000844D01*
X020576Y000792D01*
X020556Y000741D01*
X020533Y000692D01*
X020506Y000645D01*
X020476Y000600D01*
X020444Y000556D01*
X020408Y000515D01*
X020370Y000477D01*
X020329Y000441D01*
X020285Y000409D01*
X020240Y000379D01*
X020193Y000352D01*
X020144Y000329D01*
X020093Y000309D01*
X020041Y000292D01*
X019989Y000280D01*
X019935Y000270D01*
X019881Y000265D01*
X019827Y000263D01*
X000945Y000263D01*
X000891Y000265D01*
X000837Y000270D01*
X000783Y000280D01*
X000731Y000292D01*
X000679Y000309D01*
X000628Y000329D01*
X000579Y000352D01*
X000532Y000379D01*
X000487Y000409D01*
X000443Y000441D01*
X000402Y000477D01*
X000364Y000515D01*
X000328Y000556D01*
X000296Y000600D01*
X000266Y000645D01*
X000239Y000692D01*
X000216Y000741D01*
X000196Y000792D01*
X000179Y000844D01*
X000167Y000896D01*
X000157Y000950D01*
X000152Y001004D01*
X000150Y001058D01*
X007467Y021196D02*
X009239Y021841D01*
X007993Y022391D01*
X007467Y021196D01*
X001095Y026134D02*
X001097Y026184D01*
X001103Y026234D01*
X001113Y026283D01*
X001127Y026331D01*
X001144Y026378D01*
X001165Y026423D01*
X001190Y026467D01*
X001218Y026508D01*
X001250Y026547D01*
X001284Y026584D01*
X001321Y026618D01*
X001361Y026648D01*
X001403Y026675D01*
X001447Y026699D01*
X001493Y026720D01*
X001540Y026736D01*
X001588Y026749D01*
X001638Y026758D01*
X001687Y026763D01*
X001738Y026764D01*
X001788Y026761D01*
X001837Y026754D01*
X001886Y026743D01*
X001934Y026728D01*
X001980Y026710D01*
X002025Y026688D01*
X002068Y026662D01*
X002109Y026633D01*
X002148Y026601D01*
X002184Y026566D01*
X002216Y026528D01*
X002246Y026488D01*
X002273Y026445D01*
X002296Y026401D01*
X002315Y026355D01*
X002331Y026307D01*
X002343Y026258D01*
X002351Y026209D01*
X002355Y026159D01*
X002355Y026109D01*
X002351Y026059D01*
X002343Y026010D01*
X002331Y025961D01*
X002315Y025913D01*
X002296Y025867D01*
X002273Y025823D01*
X002246Y025780D01*
X002216Y025740D01*
X002184Y025702D01*
X002148Y025667D01*
X002109Y025635D01*
X002068Y025606D01*
X002025Y025580D01*
X001980Y025558D01*
X001934Y025540D01*
X001886Y025525D01*
X001837Y025514D01*
X001788Y025507D01*
X001738Y025504D01*
X001687Y025505D01*
X001638Y025510D01*
X001588Y025519D01*
X001540Y025532D01*
X001493Y025548D01*
X001447Y025569D01*
X001403Y025593D01*
X001361Y025620D01*
X001321Y025650D01*
X001284Y025684D01*
X001250Y025721D01*
X001218Y025760D01*
X001190Y025801D01*
X001165Y025845D01*
X001144Y025890D01*
X001127Y025937D01*
X001113Y025985D01*
X001103Y026034D01*
X001097Y026084D01*
X001095Y026134D01*
X018418Y005662D02*
X018420Y005712D01*
X018426Y005762D01*
X018436Y005811D01*
X018450Y005859D01*
X018467Y005906D01*
X018488Y005951D01*
X018513Y005995D01*
X018541Y006036D01*
X018573Y006075D01*
X018607Y006112D01*
X018644Y006146D01*
X018684Y006176D01*
X018726Y006203D01*
X018770Y006227D01*
X018816Y006248D01*
X018863Y006264D01*
X018911Y006277D01*
X018961Y006286D01*
X019010Y006291D01*
X019061Y006292D01*
X019111Y006289D01*
X019160Y006282D01*
X019209Y006271D01*
X019257Y006256D01*
X019303Y006238D01*
X019348Y006216D01*
X019391Y006190D01*
X019432Y006161D01*
X019471Y006129D01*
X019507Y006094D01*
X019539Y006056D01*
X019569Y006016D01*
X019596Y005973D01*
X019619Y005929D01*
X019638Y005883D01*
X019654Y005835D01*
X019666Y005786D01*
X019674Y005737D01*
X019678Y005687D01*
X019678Y005637D01*
X019674Y005587D01*
X019666Y005538D01*
X019654Y005489D01*
X019638Y005441D01*
X019619Y005395D01*
X019596Y005351D01*
X019569Y005308D01*
X019539Y005268D01*
X019507Y005230D01*
X019471Y005195D01*
X019432Y005163D01*
X019391Y005134D01*
X019348Y005108D01*
X019303Y005086D01*
X019257Y005068D01*
X019209Y005053D01*
X019160Y005042D01*
X019111Y005035D01*
X019061Y005032D01*
X019010Y005033D01*
X018961Y005038D01*
X018911Y005047D01*
X018863Y005060D01*
X018816Y005076D01*
X018770Y005097D01*
X018726Y005121D01*
X018684Y005148D01*
X018644Y005178D01*
X018607Y005212D01*
X018573Y005249D01*
X018541Y005288D01*
X018513Y005329D01*
X018488Y005373D01*
X018467Y005418D01*
X018450Y005465D01*
X018436Y005513D01*
X018426Y005562D01*
X018420Y005612D01*
X018418Y005662D01*
D11*
X019048Y005662D03*
X001725Y026134D03*
D12*
X001250Y021863D02*
X000650Y021863D01*
X000650Y020863D02*
X001250Y020863D01*
X001250Y019863D02*
X000650Y019863D01*
X000650Y018863D02*
X001250Y018863D01*
X001250Y017863D02*
X000650Y017863D01*
X000650Y016863D02*
X001250Y016863D01*
X001250Y015863D02*
X000650Y015863D01*
X000650Y014863D02*
X001250Y014863D01*
X001250Y013863D02*
X000650Y013863D01*
X000650Y012863D02*
X001250Y012863D01*
X001250Y011863D02*
X000650Y011863D01*
X000650Y010863D02*
X001250Y010863D01*
X001250Y009863D02*
X000650Y009863D01*
X000650Y008863D02*
X001250Y008863D01*
X003550Y001363D02*
X003550Y000763D01*
X004550Y000763D02*
X004550Y001363D01*
X005550Y001363D02*
X005550Y000763D01*
X006550Y000763D02*
X006550Y001363D01*
X007550Y001363D02*
X007550Y000763D01*
X008550Y000763D02*
X008550Y001363D01*
X009550Y001363D02*
X009550Y000763D01*
X010550Y000763D02*
X010550Y001363D01*
X011550Y001363D02*
X011550Y000763D01*
X012550Y000763D02*
X012550Y001363D01*
X013550Y001363D02*
X013550Y000763D01*
X014550Y000763D02*
X014550Y001363D01*
X015550Y001363D02*
X015550Y000763D01*
X016550Y000763D02*
X016550Y001363D01*
X019550Y008863D02*
X020150Y008863D01*
X020150Y009863D02*
X019550Y009863D01*
X019550Y010863D02*
X020150Y010863D01*
X020150Y011863D02*
X019550Y011863D01*
X019550Y012863D02*
X020150Y012863D01*
X020150Y013863D02*
X019550Y013863D01*
X019550Y014863D02*
X020150Y014863D01*
X020150Y015863D02*
X019550Y015863D01*
X019550Y016863D02*
X020150Y016863D01*
X020150Y017863D02*
X019550Y017863D01*
X019550Y018863D02*
X020150Y018863D01*
X020150Y019863D02*
X019550Y019863D01*
X019550Y020863D02*
X020150Y020863D01*
X020150Y021863D02*
X019550Y021863D01*
D13*
X009239Y021841D02*
X007751Y021841D01*
X007751Y021840D02*
X009237Y021840D01*
X009237Y021842D02*
X007751Y021842D01*
X007752Y021843D02*
X009234Y021843D01*
X009232Y021844D02*
X007752Y021844D01*
X007753Y021845D02*
X009230Y021845D01*
X009228Y021846D02*
X007753Y021846D01*
X007754Y021847D02*
X009225Y021847D01*
X009223Y021848D02*
X007754Y021848D01*
X007754Y021849D02*
X009221Y021849D01*
X009219Y021850D02*
X007755Y021850D01*
X007755Y021851D02*
X009216Y021851D01*
X009214Y021852D02*
X007756Y021852D01*
X007756Y021853D02*
X009212Y021853D01*
X009210Y021854D02*
X007757Y021854D01*
X007757Y021855D02*
X009207Y021855D01*
X009205Y021856D02*
X007758Y021856D01*
X007758Y021857D02*
X009203Y021857D01*
X009200Y021858D02*
X007758Y021858D01*
X007759Y021859D02*
X009198Y021859D01*
X009196Y021860D02*
X007759Y021860D01*
X007760Y021861D02*
X009194Y021861D01*
X009191Y021862D02*
X007760Y021862D01*
X007761Y021863D02*
X009189Y021863D01*
X009187Y021864D02*
X007761Y021864D01*
X007762Y021865D02*
X009185Y021865D01*
X009182Y021866D02*
X007762Y021866D01*
X007762Y021867D02*
X009180Y021867D01*
X009178Y021868D02*
X007763Y021868D01*
X007763Y021869D02*
X009176Y021869D01*
X009173Y021870D02*
X007764Y021870D01*
X007764Y021871D02*
X009171Y021871D01*
X009169Y021872D02*
X007765Y021872D01*
X007765Y021873D02*
X009167Y021873D01*
X009164Y021874D02*
X007765Y021874D01*
X007766Y021875D02*
X009162Y021875D01*
X009160Y021876D02*
X007766Y021876D01*
X007767Y021877D02*
X009157Y021877D01*
X009155Y021878D02*
X007767Y021878D01*
X007768Y021879D02*
X009153Y021879D01*
X009151Y021880D02*
X007768Y021880D01*
X007769Y021881D02*
X009148Y021881D01*
X009146Y021882D02*
X007769Y021882D01*
X007769Y021883D02*
X009144Y021883D01*
X009142Y021884D02*
X007770Y021884D01*
X007770Y021885D02*
X009139Y021885D01*
X009137Y021886D02*
X007771Y021886D01*
X007771Y021887D02*
X009135Y021887D01*
X009133Y021888D02*
X007772Y021888D01*
X007772Y021889D02*
X009130Y021889D01*
X009128Y021890D02*
X007773Y021890D01*
X007773Y021891D02*
X009126Y021891D01*
X009124Y021892D02*
X007773Y021892D01*
X007774Y021893D02*
X009121Y021893D01*
X009119Y021894D02*
X007774Y021894D01*
X007775Y021895D02*
X009117Y021895D01*
X009114Y021896D02*
X007775Y021896D01*
X007776Y021897D02*
X009112Y021897D01*
X009110Y021898D02*
X007776Y021898D01*
X007776Y021899D02*
X009108Y021899D01*
X009105Y021900D02*
X007777Y021900D01*
X007777Y021901D02*
X009103Y021901D01*
X009101Y021902D02*
X007778Y021902D01*
X007778Y021903D02*
X009099Y021903D01*
X009096Y021904D02*
X007779Y021904D01*
X007779Y021905D02*
X009094Y021905D01*
X009092Y021906D02*
X007780Y021906D01*
X007780Y021907D02*
X009090Y021907D01*
X009087Y021908D02*
X007780Y021908D01*
X007781Y021909D02*
X009085Y021909D01*
X009083Y021910D02*
X007781Y021910D01*
X007782Y021911D02*
X009081Y021911D01*
X009078Y021912D02*
X007782Y021912D01*
X007783Y021913D02*
X009076Y021913D01*
X009074Y021914D02*
X007783Y021914D01*
X007784Y021915D02*
X009071Y021915D01*
X009069Y021916D02*
X007784Y021916D01*
X007784Y021917D02*
X009067Y021917D01*
X009065Y021918D02*
X007785Y021918D01*
X007785Y021919D02*
X009062Y021919D01*
X009060Y021920D02*
X007786Y021920D01*
X007786Y021921D02*
X009058Y021921D01*
X009056Y021922D02*
X007787Y021922D01*
X007787Y021923D02*
X009053Y021923D01*
X009051Y021924D02*
X007787Y021924D01*
X007788Y021925D02*
X009049Y021925D01*
X009047Y021926D02*
X007788Y021926D01*
X007789Y021927D02*
X009044Y021927D01*
X009042Y021928D02*
X007789Y021928D01*
X007790Y021929D02*
X009040Y021929D01*
X009038Y021930D02*
X007790Y021930D01*
X007791Y021931D02*
X009035Y021931D01*
X009033Y021932D02*
X007791Y021932D01*
X007791Y021933D02*
X009031Y021933D01*
X009028Y021934D02*
X007792Y021934D01*
X007792Y021935D02*
X009026Y021935D01*
X009024Y021936D02*
X007793Y021936D01*
X007793Y021937D02*
X009022Y021937D01*
X009019Y021938D02*
X007794Y021938D01*
X007794Y021939D02*
X009017Y021939D01*
X009015Y021940D02*
X007795Y021940D01*
X007795Y021941D02*
X009013Y021941D01*
X009010Y021942D02*
X007795Y021942D01*
X007796Y021943D02*
X009008Y021943D01*
X009006Y021944D02*
X007796Y021944D01*
X007797Y021945D02*
X009004Y021945D01*
X009001Y021946D02*
X007797Y021946D01*
X007798Y021947D02*
X008999Y021947D01*
X008997Y021948D02*
X007798Y021948D01*
X007798Y021949D02*
X008995Y021949D01*
X008992Y021950D02*
X007799Y021950D01*
X007799Y021951D02*
X008990Y021951D01*
X008988Y021952D02*
X007800Y021952D01*
X007800Y021953D02*
X008985Y021953D01*
X008983Y021954D02*
X007801Y021954D01*
X007801Y021955D02*
X008981Y021955D01*
X008979Y021956D02*
X007802Y021956D01*
X007802Y021957D02*
X008976Y021957D01*
X008974Y021958D02*
X007802Y021958D01*
X007803Y021959D02*
X008972Y021959D01*
X008970Y021960D02*
X007803Y021960D01*
X007804Y021961D02*
X008967Y021961D01*
X008965Y021962D02*
X007804Y021962D01*
X007805Y021963D02*
X008963Y021963D01*
X008961Y021964D02*
X007805Y021964D01*
X007805Y021965D02*
X008958Y021965D01*
X008956Y021966D02*
X007806Y021966D01*
X007806Y021967D02*
X008954Y021967D01*
X008951Y021968D02*
X007807Y021968D01*
X007807Y021969D02*
X008949Y021969D01*
X008947Y021970D02*
X007808Y021970D01*
X007808Y021971D02*
X008945Y021971D01*
X008942Y021972D02*
X007809Y021972D01*
X007809Y021973D02*
X008940Y021973D01*
X008938Y021974D02*
X007809Y021974D01*
X007810Y021975D02*
X008936Y021975D01*
X008933Y021976D02*
X007810Y021976D01*
X007811Y021977D02*
X008931Y021977D01*
X008929Y021978D02*
X007811Y021978D01*
X007812Y021979D02*
X008927Y021979D01*
X008924Y021980D02*
X007812Y021980D01*
X007813Y021981D02*
X008922Y021981D01*
X008920Y021982D02*
X007813Y021982D01*
X007813Y021983D02*
X008918Y021983D01*
X008915Y021984D02*
X007814Y021984D01*
X007814Y021985D02*
X008913Y021985D01*
X008911Y021986D02*
X007815Y021986D01*
X007815Y021987D02*
X008908Y021987D01*
X008906Y021988D02*
X007816Y021988D01*
X007816Y021989D02*
X008904Y021989D01*
X008902Y021990D02*
X007816Y021990D01*
X007817Y021991D02*
X008899Y021991D01*
X008897Y021992D02*
X007817Y021992D01*
X007818Y021993D02*
X008895Y021993D01*
X008893Y021994D02*
X007818Y021994D01*
X007819Y021995D02*
X008890Y021995D01*
X008888Y021996D02*
X007819Y021996D01*
X007820Y021997D02*
X008886Y021997D01*
X008884Y021998D02*
X007820Y021998D01*
X007820Y021999D02*
X008881Y021999D01*
X008879Y022000D02*
X007821Y022000D01*
X007821Y022001D02*
X008877Y022001D01*
X008875Y022002D02*
X007822Y022002D01*
X007822Y022003D02*
X008872Y022003D01*
X008870Y022004D02*
X007823Y022004D01*
X007823Y022005D02*
X008868Y022005D01*
X008865Y022006D02*
X007824Y022006D01*
X007824Y022007D02*
X008863Y022007D01*
X008861Y022008D02*
X007824Y022008D01*
X007825Y022009D02*
X008859Y022009D01*
X008856Y022010D02*
X007825Y022010D01*
X007826Y022011D02*
X008854Y022011D01*
X008852Y022012D02*
X007826Y022012D01*
X007827Y022013D02*
X008850Y022013D01*
X008847Y022014D02*
X007827Y022014D01*
X007827Y022015D02*
X008845Y022015D01*
X008843Y022016D02*
X007828Y022016D01*
X007828Y022017D02*
X008841Y022017D01*
X008838Y022018D02*
X007829Y022018D01*
X007829Y022019D02*
X008836Y022019D01*
X008834Y022020D02*
X007830Y022020D01*
X007830Y022021D02*
X008832Y022021D01*
X008829Y022022D02*
X007831Y022022D01*
X007831Y022023D02*
X008827Y022023D01*
X008825Y022024D02*
X007831Y022024D01*
X007832Y022025D02*
X008822Y022025D01*
X008820Y022026D02*
X007832Y022026D01*
X007833Y022027D02*
X008818Y022027D01*
X008816Y022028D02*
X007833Y022028D01*
X007834Y022029D02*
X008813Y022029D01*
X008811Y022030D02*
X007834Y022030D01*
X007835Y022031D02*
X008809Y022031D01*
X008807Y022032D02*
X007835Y022032D01*
X007835Y022033D02*
X008804Y022033D01*
X008802Y022034D02*
X007836Y022034D01*
X007836Y022035D02*
X008800Y022035D01*
X008798Y022036D02*
X007837Y022036D01*
X007837Y022037D02*
X008795Y022037D01*
X008793Y022038D02*
X007838Y022038D01*
X007838Y022039D02*
X008791Y022039D01*
X008789Y022040D02*
X007838Y022040D01*
X007839Y022041D02*
X008786Y022041D01*
X008784Y022042D02*
X007839Y022042D01*
X007840Y022043D02*
X008782Y022043D01*
X008779Y022044D02*
X007840Y022044D01*
X007841Y022045D02*
X008777Y022045D01*
X008775Y022046D02*
X007841Y022046D01*
X007842Y022047D02*
X008773Y022047D01*
X008770Y022048D02*
X007842Y022048D01*
X007842Y022049D02*
X008768Y022049D01*
X008766Y022050D02*
X007843Y022050D01*
X007843Y022051D02*
X008764Y022051D01*
X008761Y022052D02*
X007844Y022052D01*
X007844Y022053D02*
X008759Y022053D01*
X008757Y022054D02*
X007845Y022054D01*
X007845Y022055D02*
X008755Y022055D01*
X008752Y022056D02*
X007846Y022056D01*
X007846Y022057D02*
X008750Y022057D01*
X008748Y022058D02*
X007846Y022058D01*
X007847Y022059D02*
X008746Y022059D01*
X008743Y022060D02*
X007847Y022060D01*
X007848Y022061D02*
X008741Y022061D01*
X008739Y022062D02*
X007848Y022062D01*
X007849Y022063D02*
X008736Y022063D01*
X008734Y022064D02*
X007849Y022064D01*
X007849Y022065D02*
X008732Y022065D01*
X008730Y022066D02*
X007850Y022066D01*
X007850Y022067D02*
X008727Y022067D01*
X008725Y022068D02*
X007851Y022068D01*
X007851Y022069D02*
X008723Y022069D01*
X008721Y022070D02*
X007852Y022070D01*
X007852Y022071D02*
X008718Y022071D01*
X008716Y022072D02*
X007853Y022072D01*
X007853Y022073D02*
X008714Y022073D01*
X008712Y022074D02*
X007853Y022074D01*
X007854Y022075D02*
X008709Y022075D01*
X008707Y022076D02*
X007854Y022076D01*
X007855Y022077D02*
X008705Y022077D01*
X008703Y022078D02*
X007855Y022078D01*
X007856Y022079D02*
X008700Y022079D01*
X008698Y022080D02*
X007856Y022080D01*
X007857Y022081D02*
X008696Y022081D01*
X008693Y022082D02*
X007857Y022082D01*
X007857Y022083D02*
X008691Y022083D01*
X008689Y022084D02*
X007858Y022084D01*
X007858Y022085D02*
X008687Y022085D01*
X008684Y022086D02*
X007859Y022086D01*
X007859Y022087D02*
X008682Y022087D01*
X008680Y022088D02*
X007860Y022088D01*
X007860Y022089D02*
X008678Y022089D01*
X008675Y022090D02*
X007860Y022090D01*
X007861Y022091D02*
X008673Y022091D01*
X008671Y022092D02*
X007861Y022092D01*
X007862Y022093D02*
X008669Y022093D01*
X008666Y022094D02*
X007862Y022094D01*
X007863Y022095D02*
X008664Y022095D01*
X008662Y022096D02*
X007863Y022096D01*
X007864Y022097D02*
X008660Y022097D01*
X008657Y022098D02*
X007864Y022098D01*
X007864Y022099D02*
X008655Y022099D01*
X008653Y022100D02*
X007865Y022100D01*
X007865Y022101D02*
X008650Y022101D01*
X008648Y022102D02*
X007866Y022102D01*
X007866Y022103D02*
X008646Y022103D01*
X008644Y022104D02*
X007867Y022104D01*
X007867Y022105D02*
X008641Y022105D01*
X008639Y022106D02*
X007868Y022106D01*
X007868Y022107D02*
X008637Y022107D01*
X008635Y022108D02*
X007868Y022108D01*
X007869Y022109D02*
X008632Y022109D01*
X008630Y022110D02*
X007869Y022110D01*
X007870Y022111D02*
X008628Y022111D01*
X008626Y022112D02*
X007870Y022112D01*
X007871Y022113D02*
X008623Y022113D01*
X008621Y022114D02*
X007871Y022114D01*
X007871Y022115D02*
X008619Y022115D01*
X008617Y022116D02*
X007872Y022116D01*
X007872Y022117D02*
X008614Y022117D01*
X008612Y022118D02*
X007873Y022118D01*
X007873Y022119D02*
X008610Y022119D01*
X008607Y022120D02*
X007874Y022120D01*
X007874Y022121D02*
X008605Y022121D01*
X008603Y022122D02*
X007875Y022122D01*
X007875Y022123D02*
X008601Y022123D01*
X008598Y022124D02*
X007875Y022124D01*
X007876Y022125D02*
X008596Y022125D01*
X008594Y022126D02*
X007876Y022126D01*
X007877Y022127D02*
X008592Y022127D01*
X008589Y022128D02*
X007877Y022128D01*
X007878Y022129D02*
X008587Y022129D01*
X008585Y022130D02*
X007878Y022130D01*
X007879Y022131D02*
X008583Y022131D01*
X008580Y022132D02*
X007879Y022132D01*
X007879Y022133D02*
X008578Y022133D01*
X008576Y022134D02*
X007880Y022134D01*
X007880Y022135D02*
X008573Y022135D01*
X008571Y022136D02*
X007881Y022136D01*
X007881Y022137D02*
X008569Y022137D01*
X008567Y022138D02*
X007882Y022138D01*
X007882Y022139D02*
X008564Y022139D01*
X008562Y022140D02*
X007882Y022140D01*
X007883Y022141D02*
X008560Y022141D01*
X008558Y022142D02*
X007883Y022142D01*
X007884Y022143D02*
X008555Y022143D01*
X008553Y022144D02*
X007884Y022144D01*
X007885Y022145D02*
X008551Y022145D01*
X008549Y022146D02*
X007885Y022146D01*
X007886Y022147D02*
X008546Y022147D01*
X008544Y022148D02*
X007886Y022148D01*
X007886Y022149D02*
X008542Y022149D01*
X008540Y022150D02*
X007887Y022150D01*
X007887Y022151D02*
X008537Y022151D01*
X008535Y022152D02*
X007888Y022152D01*
X007888Y022153D02*
X008533Y022153D01*
X008530Y022154D02*
X007889Y022154D01*
X007889Y022155D02*
X008528Y022155D01*
X008526Y022156D02*
X007890Y022156D01*
X007890Y022157D02*
X008524Y022157D01*
X008521Y022158D02*
X007890Y022158D01*
X007891Y022159D02*
X008519Y022159D01*
X008517Y022160D02*
X007891Y022160D01*
X007892Y022161D02*
X008515Y022161D01*
X008512Y022162D02*
X007892Y022162D01*
X007893Y022163D02*
X008510Y022163D01*
X008508Y022164D02*
X007893Y022164D01*
X007893Y022165D02*
X008506Y022165D01*
X008503Y022166D02*
X007894Y022166D01*
X007894Y022167D02*
X008501Y022167D01*
X008499Y022168D02*
X007895Y022168D01*
X007895Y022169D02*
X008497Y022169D01*
X008494Y022170D02*
X007896Y022170D01*
X007896Y022171D02*
X008492Y022171D01*
X008490Y022172D02*
X007897Y022172D01*
X007897Y022173D02*
X008487Y022173D01*
X008485Y022174D02*
X007897Y022174D01*
X007898Y022175D02*
X008483Y022175D01*
X008481Y022176D02*
X007898Y022176D01*
X007899Y022177D02*
X008478Y022177D01*
X008476Y022178D02*
X007899Y022178D01*
X007900Y022179D02*
X008474Y022179D01*
X008472Y022180D02*
X007900Y022180D01*
X007901Y022181D02*
X008469Y022181D01*
X008467Y022182D02*
X007901Y022182D01*
X007901Y022183D02*
X008465Y022183D01*
X008463Y022184D02*
X007902Y022184D01*
X007902Y022185D02*
X008460Y022185D01*
X008458Y022186D02*
X007903Y022186D01*
X007903Y022187D02*
X008456Y022187D01*
X008454Y022188D02*
X007904Y022188D01*
X007904Y022189D02*
X008451Y022189D01*
X008449Y022190D02*
X007904Y022190D01*
X007905Y022191D02*
X008447Y022191D01*
X008444Y022192D02*
X007905Y022192D01*
X007906Y022193D02*
X008442Y022193D01*
X008440Y022194D02*
X007906Y022194D01*
X007907Y022195D02*
X008438Y022195D01*
X008435Y022196D02*
X007907Y022196D01*
X007908Y022197D02*
X008433Y022197D01*
X008431Y022198D02*
X007908Y022198D01*
X007908Y022199D02*
X008429Y022199D01*
X008426Y022200D02*
X007909Y022200D01*
X007909Y022201D02*
X008424Y022201D01*
X008422Y022202D02*
X007910Y022202D01*
X007910Y022203D02*
X008420Y022203D01*
X008417Y022204D02*
X007911Y022204D01*
X007911Y022205D02*
X008415Y022205D01*
X008413Y022206D02*
X007912Y022206D01*
X007912Y022207D02*
X008411Y022207D01*
X008408Y022208D02*
X007912Y022208D01*
X007913Y022209D02*
X008406Y022209D01*
X008404Y022210D02*
X007913Y022210D01*
X007914Y022211D02*
X008401Y022211D01*
X008399Y022212D02*
X007914Y022212D01*
X007915Y022213D02*
X008397Y022213D01*
X008395Y022214D02*
X007915Y022214D01*
X007915Y022215D02*
X008392Y022215D01*
X008390Y022216D02*
X007916Y022216D01*
X007916Y022217D02*
X008388Y022217D01*
X008386Y022218D02*
X007917Y022218D01*
X007917Y022219D02*
X008383Y022219D01*
X008381Y022220D02*
X007918Y022220D01*
X007918Y022221D02*
X008379Y022221D01*
X008377Y022222D02*
X007919Y022222D01*
X007919Y022223D02*
X008374Y022223D01*
X008372Y022224D02*
X007919Y022224D01*
X007920Y022225D02*
X008370Y022225D01*
X008368Y022226D02*
X007920Y022226D01*
X007921Y022227D02*
X008365Y022227D01*
X008363Y022228D02*
X007921Y022228D01*
X007922Y022229D02*
X008361Y022229D01*
X008358Y022230D02*
X007922Y022230D01*
X007923Y022231D02*
X008356Y022231D01*
X008354Y022232D02*
X007923Y022232D01*
X007923Y022233D02*
X008352Y022233D01*
X008349Y022234D02*
X007924Y022234D01*
X007924Y022235D02*
X008347Y022235D01*
X008345Y022236D02*
X007925Y022236D01*
X007925Y022237D02*
X008343Y022237D01*
X008340Y022238D02*
X007926Y022238D01*
X007926Y022239D02*
X008338Y022239D01*
X008336Y022240D02*
X007926Y022240D01*
X007927Y022241D02*
X008334Y022241D01*
X008331Y022242D02*
X007927Y022242D01*
X007928Y022243D02*
X008329Y022243D01*
X008327Y022244D02*
X007928Y022244D01*
X007929Y022245D02*
X008325Y022245D01*
X008322Y022246D02*
X007929Y022246D01*
X007930Y022247D02*
X008320Y022247D01*
X008318Y022248D02*
X007930Y022248D01*
X007930Y022249D02*
X008315Y022249D01*
X008313Y022250D02*
X007931Y022250D01*
X007931Y022251D02*
X008311Y022251D01*
X008309Y022252D02*
X007932Y022252D01*
X007932Y022253D02*
X008306Y022253D01*
X008304Y022254D02*
X007933Y022254D01*
X007933Y022255D02*
X008302Y022255D01*
X008300Y022256D02*
X007933Y022256D01*
X007934Y022257D02*
X008297Y022257D01*
X008295Y022258D02*
X007934Y022258D01*
X007935Y022259D02*
X008293Y022259D01*
X008291Y022260D02*
X007935Y022260D01*
X007936Y022261D02*
X008288Y022261D01*
X008286Y022262D02*
X007936Y022262D01*
X007937Y022263D02*
X008284Y022263D01*
X008282Y022264D02*
X007937Y022264D01*
X007937Y022265D02*
X008279Y022265D01*
X008277Y022266D02*
X007938Y022266D01*
X007938Y022267D02*
X008275Y022267D01*
X008272Y022268D02*
X007939Y022268D01*
X007939Y022269D02*
X008270Y022269D01*
X008268Y022270D02*
X007940Y022270D01*
X007940Y022271D02*
X008266Y022271D01*
X008263Y022272D02*
X007941Y022272D01*
X007941Y022273D02*
X008261Y022273D01*
X008259Y022274D02*
X007941Y022274D01*
X007942Y022275D02*
X008257Y022275D01*
X008254Y022276D02*
X007942Y022276D01*
X007943Y022277D02*
X008252Y022277D01*
X008250Y022278D02*
X007943Y022278D01*
X007944Y022279D02*
X008248Y022279D01*
X008245Y022280D02*
X007944Y022280D01*
X007944Y022281D02*
X008243Y022281D01*
X008241Y022282D02*
X007945Y022282D01*
X007945Y022283D02*
X008238Y022283D01*
X008236Y022284D02*
X007946Y022284D01*
X007946Y022285D02*
X008234Y022285D01*
X008232Y022286D02*
X007947Y022286D01*
X007947Y022287D02*
X008229Y022287D01*
X008227Y022288D02*
X007948Y022288D01*
X007948Y022289D02*
X008225Y022289D01*
X008223Y022290D02*
X007948Y022290D01*
X007949Y022291D02*
X008220Y022291D01*
X008218Y022292D02*
X007949Y022292D01*
X007950Y022293D02*
X008216Y022293D01*
X008214Y022294D02*
X007950Y022294D01*
X007951Y022295D02*
X008211Y022295D01*
X008209Y022296D02*
X007951Y022296D01*
X007952Y022297D02*
X008207Y022297D01*
X008205Y022298D02*
X007952Y022298D01*
X007952Y022299D02*
X008202Y022299D01*
X008200Y022300D02*
X007953Y022300D01*
X007953Y022301D02*
X008198Y022301D01*
X008195Y022302D02*
X007954Y022302D01*
X007954Y022303D02*
X008193Y022303D01*
X008191Y022304D02*
X007955Y022304D01*
X007955Y022305D02*
X008189Y022305D01*
X008186Y022306D02*
X007955Y022306D01*
X007956Y022307D02*
X008184Y022307D01*
X008182Y022308D02*
X007956Y022308D01*
X007957Y022309D02*
X008180Y022309D01*
X008177Y022310D02*
X007957Y022310D01*
X007958Y022311D02*
X008175Y022311D01*
X008173Y022312D02*
X007958Y022312D01*
X007959Y022313D02*
X008171Y022313D01*
X008168Y022314D02*
X007959Y022314D01*
X007959Y022315D02*
X008166Y022315D01*
X008164Y022316D02*
X007960Y022316D01*
X007960Y022317D02*
X008162Y022317D01*
X008159Y022318D02*
X007961Y022318D01*
X007961Y022319D02*
X008157Y022319D01*
X008155Y022320D02*
X007962Y022320D01*
X007962Y022321D02*
X008152Y022321D01*
X008150Y022322D02*
X007963Y022322D01*
X007963Y022323D02*
X008148Y022323D01*
X008146Y022324D02*
X007963Y022324D01*
X007964Y022325D02*
X008143Y022325D01*
X008141Y022326D02*
X007964Y022326D01*
X007965Y022327D02*
X008139Y022327D01*
X008137Y022328D02*
X007965Y022328D01*
X007966Y022329D02*
X008134Y022329D01*
X008132Y022330D02*
X007966Y022330D01*
X007966Y022331D02*
X008130Y022331D01*
X008128Y022332D02*
X007967Y022332D01*
X007967Y022333D02*
X008125Y022333D01*
X008123Y022334D02*
X007968Y022334D01*
X007968Y022335D02*
X008121Y022335D01*
X008119Y022336D02*
X007969Y022336D01*
X007969Y022337D02*
X008116Y022337D01*
X008114Y022338D02*
X007970Y022338D01*
X007970Y022339D02*
X008112Y022339D01*
X008109Y022340D02*
X007970Y022340D01*
X007971Y022341D02*
X008107Y022341D01*
X008105Y022342D02*
X007971Y022342D01*
X007972Y022343D02*
X008103Y022343D01*
X008100Y022344D02*
X007972Y022344D01*
X007973Y022345D02*
X008098Y022345D01*
X008096Y022346D02*
X007973Y022346D01*
X007974Y022347D02*
X008094Y022347D01*
X008091Y022348D02*
X007974Y022348D01*
X007974Y022349D02*
X008089Y022349D01*
X008087Y022350D02*
X007975Y022350D01*
X007975Y022351D02*
X008085Y022351D01*
X008082Y022352D02*
X007976Y022352D01*
X007976Y022353D02*
X008080Y022353D01*
X008078Y022354D02*
X007977Y022354D01*
X007977Y022355D02*
X008076Y022355D01*
X008073Y022356D02*
X007977Y022356D01*
X007978Y022357D02*
X008071Y022357D01*
X008069Y022358D02*
X007978Y022358D01*
X007979Y022359D02*
X008066Y022359D01*
X008064Y022360D02*
X007979Y022360D01*
X007980Y022361D02*
X008062Y022361D01*
X008060Y022362D02*
X007980Y022362D01*
X007981Y022363D02*
X008057Y022363D01*
X008055Y022364D02*
X007981Y022364D01*
X007981Y022365D02*
X008053Y022365D01*
X008051Y022366D02*
X007982Y022366D01*
X007982Y022367D02*
X008048Y022367D01*
X008046Y022368D02*
X007983Y022368D01*
X007983Y022369D02*
X008044Y022369D01*
X008042Y022370D02*
X007984Y022370D01*
X007984Y022371D02*
X008039Y022371D01*
X008037Y022372D02*
X007985Y022372D01*
X007985Y022373D02*
X008035Y022373D01*
X008033Y022374D02*
X007985Y022374D01*
X007986Y022375D02*
X008030Y022375D01*
X008028Y022376D02*
X007986Y022376D01*
X007987Y022377D02*
X008026Y022377D01*
X008023Y022378D02*
X007987Y022378D01*
X007988Y022379D02*
X008021Y022379D01*
X008019Y022380D02*
X007988Y022380D01*
X007988Y022381D02*
X008017Y022381D01*
X008014Y022382D02*
X007989Y022382D01*
X007989Y022383D02*
X008012Y022383D01*
X008010Y022384D02*
X007990Y022384D01*
X007990Y022385D02*
X008008Y022385D01*
X008005Y022386D02*
X007991Y022386D01*
X007991Y022387D02*
X008003Y022387D01*
X008001Y022388D02*
X007992Y022388D01*
X007992Y022389D02*
X007999Y022389D01*
X007996Y022390D02*
X007992Y022390D01*
X007993Y022391D02*
X007994Y022391D01*
X007750Y021839D02*
X009234Y021839D01*
X009232Y021838D02*
X007750Y021838D01*
X007749Y021837D02*
X009229Y021837D01*
X009226Y021836D02*
X007749Y021836D01*
X007748Y021835D02*
X009223Y021835D01*
X009221Y021834D02*
X007748Y021834D01*
X007747Y021833D02*
X009218Y021833D01*
X009215Y021832D02*
X007747Y021832D01*
X007747Y021831D02*
X009212Y021831D01*
X009210Y021830D02*
X007746Y021830D01*
X007746Y021829D02*
X009207Y021829D01*
X009204Y021828D02*
X007745Y021828D01*
X007745Y021827D02*
X009201Y021827D01*
X009199Y021826D02*
X007744Y021826D01*
X007744Y021825D02*
X009196Y021825D01*
X009193Y021824D02*
X007743Y021824D01*
X007743Y021823D02*
X009190Y021823D01*
X009188Y021822D02*
X007743Y021822D01*
X007742Y021821D02*
X009185Y021821D01*
X009182Y021820D02*
X007742Y021820D01*
X007741Y021819D02*
X009179Y021819D01*
X009177Y021818D02*
X007741Y021818D01*
X007740Y021817D02*
X009174Y021817D01*
X009171Y021816D02*
X007740Y021816D01*
X007740Y021815D02*
X009168Y021815D01*
X009166Y021814D02*
X007739Y021814D01*
X007739Y021813D02*
X009163Y021813D01*
X009160Y021812D02*
X007738Y021812D01*
X007738Y021811D02*
X009157Y021811D01*
X009155Y021810D02*
X007737Y021810D01*
X007737Y021809D02*
X009152Y021809D01*
X009149Y021808D02*
X007736Y021808D01*
X007736Y021807D02*
X009146Y021807D01*
X009144Y021806D02*
X007736Y021806D01*
X007735Y021805D02*
X009141Y021805D01*
X009138Y021804D02*
X007735Y021804D01*
X007734Y021803D02*
X009135Y021803D01*
X009133Y021802D02*
X007734Y021802D01*
X007733Y021801D02*
X009130Y021801D01*
X009127Y021800D02*
X007733Y021800D01*
X007732Y021799D02*
X009125Y021799D01*
X009122Y021798D02*
X007732Y021798D01*
X007732Y021797D02*
X009119Y021797D01*
X009116Y021796D02*
X007731Y021796D01*
X007731Y021795D02*
X009114Y021795D01*
X009111Y021794D02*
X007730Y021794D01*
X007730Y021793D02*
X009108Y021793D01*
X009105Y021793D02*
X007729Y021793D01*
X007729Y021792D02*
X009103Y021792D01*
X009100Y021791D02*
X007729Y021791D01*
X007728Y021790D02*
X009097Y021790D01*
X009094Y021789D02*
X007728Y021789D01*
X007727Y021788D02*
X009092Y021788D01*
X009089Y021787D02*
X007727Y021787D01*
X007726Y021786D02*
X009086Y021786D01*
X009083Y021785D02*
X007726Y021785D01*
X007725Y021784D02*
X009081Y021784D01*
X009078Y021783D02*
X007725Y021783D01*
X007725Y021782D02*
X009075Y021782D01*
X009072Y021781D02*
X007724Y021781D01*
X007724Y021780D02*
X009070Y021780D01*
X009067Y021779D02*
X007723Y021779D01*
X007723Y021778D02*
X009064Y021778D01*
X009061Y021777D02*
X007722Y021777D01*
X007722Y021776D02*
X009059Y021776D01*
X009056Y021775D02*
X007721Y021775D01*
X007721Y021774D02*
X009053Y021774D01*
X009050Y021773D02*
X007721Y021773D01*
X007720Y021772D02*
X009048Y021772D01*
X009045Y021771D02*
X007720Y021771D01*
X007719Y021770D02*
X009042Y021770D01*
X009039Y021769D02*
X007719Y021769D01*
X007718Y021768D02*
X009037Y021768D01*
X009034Y021767D02*
X007718Y021767D01*
X007718Y021766D02*
X009031Y021766D01*
X009028Y021765D02*
X007717Y021765D01*
X007717Y021764D02*
X009026Y021764D01*
X009023Y021763D02*
X007716Y021763D01*
X007716Y021762D02*
X009020Y021762D01*
X009017Y021761D02*
X007715Y021761D01*
X007715Y021760D02*
X009015Y021760D01*
X009012Y021759D02*
X007714Y021759D01*
X007714Y021758D02*
X009009Y021758D01*
X009006Y021757D02*
X007714Y021757D01*
X007713Y021756D02*
X009004Y021756D01*
X009001Y021755D02*
X007713Y021755D01*
X007712Y021754D02*
X008998Y021754D01*
X008995Y021753D02*
X007712Y021753D01*
X007711Y021752D02*
X008993Y021752D01*
X008990Y021751D02*
X007711Y021751D01*
X007710Y021750D02*
X008987Y021750D01*
X008985Y021749D02*
X007710Y021749D01*
X007710Y021748D02*
X008982Y021748D01*
X008979Y021747D02*
X007709Y021747D01*
X007709Y021746D02*
X008976Y021746D01*
X008974Y021745D02*
X007708Y021745D01*
X007708Y021744D02*
X008971Y021744D01*
X008968Y021743D02*
X007707Y021743D01*
X007707Y021742D02*
X008965Y021742D01*
X008963Y021741D02*
X007707Y021741D01*
X007706Y021740D02*
X008960Y021740D01*
X008957Y021739D02*
X007706Y021739D01*
X007705Y021738D02*
X008954Y021738D01*
X008952Y021737D02*
X007705Y021737D01*
X007704Y021736D02*
X008949Y021736D01*
X008946Y021735D02*
X007704Y021735D01*
X007703Y021734D02*
X008943Y021734D01*
X008941Y021733D02*
X007703Y021733D01*
X007703Y021732D02*
X008938Y021732D01*
X008935Y021731D02*
X007702Y021731D01*
X007702Y021730D02*
X008932Y021730D01*
X008930Y021729D02*
X007701Y021729D01*
X007701Y021728D02*
X008927Y021728D01*
X008924Y021727D02*
X007700Y021727D01*
X007700Y021726D02*
X008921Y021726D01*
X008919Y021725D02*
X007699Y021725D01*
X007699Y021724D02*
X008916Y021724D01*
X008913Y021723D02*
X007699Y021723D01*
X007698Y021722D02*
X008910Y021722D01*
X008908Y021721D02*
X007698Y021721D01*
X007697Y021720D02*
X008905Y021720D01*
X008902Y021719D02*
X007697Y021719D01*
X007696Y021718D02*
X008899Y021718D01*
X008897Y021717D02*
X007696Y021717D01*
X007696Y021716D02*
X008894Y021716D01*
X008891Y021715D02*
X007695Y021715D01*
X007695Y021714D02*
X008888Y021714D01*
X008886Y021713D02*
X007694Y021713D01*
X007694Y021712D02*
X008883Y021712D01*
X008880Y021711D02*
X007693Y021711D01*
X007693Y021710D02*
X008877Y021710D01*
X008875Y021709D02*
X007692Y021709D01*
X007692Y021708D02*
X008872Y021708D01*
X008869Y021707D02*
X007692Y021707D01*
X007691Y021706D02*
X008866Y021706D01*
X008864Y021705D02*
X007691Y021705D01*
X007690Y021704D02*
X008861Y021704D01*
X008858Y021703D02*
X007690Y021703D01*
X007689Y021702D02*
X008856Y021702D01*
X008853Y021701D02*
X007689Y021701D01*
X007688Y021700D02*
X008850Y021700D01*
X008847Y021699D02*
X007688Y021699D01*
X007688Y021698D02*
X008845Y021698D01*
X008842Y021697D02*
X007687Y021697D01*
X007687Y021696D02*
X008839Y021696D01*
X008836Y021695D02*
X007686Y021695D01*
X007686Y021694D02*
X008834Y021694D01*
X008831Y021693D02*
X007685Y021693D01*
X007685Y021692D02*
X008828Y021692D01*
X008825Y021691D02*
X007685Y021691D01*
X007684Y021690D02*
X008823Y021690D01*
X008820Y021689D02*
X007684Y021689D01*
X007683Y021688D02*
X008817Y021688D01*
X008814Y021687D02*
X007683Y021687D01*
X007682Y021686D02*
X008812Y021686D01*
X008809Y021685D02*
X007682Y021685D01*
X007681Y021684D02*
X008806Y021684D01*
X008803Y021683D02*
X007681Y021683D01*
X007681Y021682D02*
X008801Y021682D01*
X008798Y021681D02*
X007680Y021681D01*
X007680Y021680D02*
X008795Y021680D01*
X008792Y021679D02*
X007679Y021679D01*
X007679Y021678D02*
X008790Y021678D01*
X008787Y021677D02*
X007678Y021677D01*
X007678Y021676D02*
X008784Y021676D01*
X008781Y021675D02*
X007678Y021675D01*
X007677Y021674D02*
X008779Y021674D01*
X008776Y021673D02*
X007677Y021673D01*
X007676Y021672D02*
X008773Y021672D01*
X008770Y021671D02*
X007676Y021671D01*
X007675Y021670D02*
X008768Y021670D01*
X008765Y021669D02*
X007675Y021669D01*
X007674Y021668D02*
X008762Y021668D01*
X008759Y021667D02*
X007674Y021667D01*
X007674Y021666D02*
X008757Y021666D01*
X008754Y021665D02*
X007673Y021665D01*
X007673Y021664D02*
X008751Y021664D01*
X008748Y021663D02*
X007672Y021663D01*
X007672Y021662D02*
X008746Y021662D01*
X008743Y021661D02*
X007671Y021661D01*
X007671Y021660D02*
X008740Y021660D01*
X008737Y021659D02*
X007670Y021659D01*
X007670Y021658D02*
X008735Y021658D01*
X008732Y021657D02*
X007670Y021657D01*
X007669Y021656D02*
X008729Y021656D01*
X008727Y021655D02*
X007669Y021655D01*
X007668Y021654D02*
X008724Y021654D01*
X008721Y021653D02*
X007668Y021653D01*
X007667Y021652D02*
X008718Y021652D01*
X008716Y021651D02*
X007667Y021651D01*
X007667Y021650D02*
X008713Y021650D01*
X008710Y021649D02*
X007666Y021649D01*
X007666Y021648D02*
X008707Y021648D01*
X008705Y021647D02*
X007665Y021647D01*
X007665Y021646D02*
X008702Y021646D01*
X008699Y021645D02*
X007664Y021645D01*
X007664Y021644D02*
X008696Y021644D01*
X008694Y021643D02*
X007663Y021643D01*
X007663Y021642D02*
X008691Y021642D01*
X008688Y021641D02*
X007663Y021641D01*
X007662Y021640D02*
X008685Y021640D01*
X008683Y021639D02*
X007662Y021639D01*
X007661Y021638D02*
X008680Y021638D01*
X008677Y021637D02*
X007661Y021637D01*
X007660Y021636D02*
X008674Y021636D01*
X008672Y021635D02*
X007660Y021635D01*
X007659Y021634D02*
X008669Y021634D01*
X008666Y021633D02*
X007659Y021633D01*
X007659Y021632D02*
X008663Y021632D01*
X008661Y021631D02*
X007658Y021631D01*
X007658Y021630D02*
X008658Y021630D01*
X008655Y021629D02*
X007657Y021629D01*
X007657Y021628D02*
X008652Y021628D01*
X008650Y021627D02*
X007656Y021627D01*
X007656Y021626D02*
X008647Y021626D01*
X008644Y021625D02*
X007656Y021625D01*
X007655Y021624D02*
X008641Y021624D01*
X008639Y021623D02*
X007655Y021623D01*
X007654Y021622D02*
X008636Y021622D01*
X008633Y021621D02*
X007654Y021621D01*
X007653Y021620D02*
X008630Y021620D01*
X008628Y021619D02*
X007653Y021619D01*
X007652Y021618D02*
X008625Y021618D01*
X008622Y021617D02*
X007652Y021617D01*
X007652Y021616D02*
X008619Y021616D01*
X008617Y021615D02*
X007651Y021615D01*
X007651Y021614D02*
X008614Y021614D01*
X008611Y021613D02*
X007650Y021613D01*
X007650Y021612D02*
X008608Y021612D01*
X008606Y021611D02*
X007649Y021611D01*
X007649Y021610D02*
X008603Y021610D01*
X008600Y021609D02*
X007648Y021609D01*
X007648Y021608D02*
X008598Y021608D01*
X008595Y021607D02*
X007648Y021607D01*
X007647Y021606D02*
X008592Y021606D01*
X008589Y021605D02*
X007647Y021605D01*
X007646Y021604D02*
X008587Y021604D01*
X008584Y021603D02*
X007646Y021603D01*
X007645Y021602D02*
X008581Y021602D01*
X008578Y021601D02*
X007645Y021601D01*
X007645Y021600D02*
X008576Y021600D01*
X008573Y021599D02*
X007644Y021599D01*
X007644Y021598D02*
X008570Y021598D01*
X008567Y021597D02*
X007643Y021597D01*
X007643Y021596D02*
X008565Y021596D01*
X008562Y021595D02*
X007642Y021595D01*
X007642Y021594D02*
X008559Y021594D01*
X008556Y021593D02*
X007641Y021593D01*
X007641Y021592D02*
X008554Y021592D01*
X008551Y021591D02*
X007641Y021591D01*
X007640Y021590D02*
X008548Y021590D01*
X008545Y021589D02*
X007640Y021589D01*
X007639Y021588D02*
X008543Y021588D01*
X008540Y021587D02*
X007639Y021587D01*
X007638Y021586D02*
X008537Y021586D01*
X008534Y021585D02*
X007638Y021585D01*
X007637Y021584D02*
X008532Y021584D01*
X008529Y021583D02*
X007637Y021583D01*
X007637Y021582D02*
X008526Y021582D01*
X008523Y021581D02*
X007636Y021581D01*
X007636Y021580D02*
X008521Y021580D01*
X008518Y021579D02*
X007635Y021579D01*
X007635Y021578D02*
X008515Y021578D01*
X008512Y021577D02*
X007634Y021577D01*
X007634Y021576D02*
X008510Y021576D01*
X008507Y021575D02*
X007634Y021575D01*
X007633Y021574D02*
X008504Y021574D01*
X008501Y021573D02*
X007633Y021573D01*
X007632Y021572D02*
X008499Y021572D01*
X008496Y021571D02*
X007632Y021571D01*
X007631Y021570D02*
X008493Y021570D01*
X008490Y021569D02*
X007631Y021569D01*
X007630Y021568D02*
X008488Y021568D01*
X008485Y021567D02*
X007630Y021567D01*
X007630Y021566D02*
X008482Y021566D01*
X008479Y021565D02*
X007629Y021565D01*
X007629Y021564D02*
X008477Y021564D01*
X008474Y021563D02*
X007628Y021563D01*
X007628Y021562D02*
X008471Y021562D01*
X008469Y021561D02*
X007627Y021561D01*
X007627Y021560D02*
X008466Y021560D01*
X008463Y021559D02*
X007626Y021559D01*
X007626Y021558D02*
X008460Y021558D01*
X008458Y021557D02*
X007626Y021557D01*
X007625Y021556D02*
X008455Y021556D01*
X008452Y021555D02*
X007625Y021555D01*
X007624Y021554D02*
X008449Y021554D01*
X008447Y021553D02*
X007624Y021553D01*
X007623Y021552D02*
X008444Y021552D01*
X008441Y021551D02*
X007623Y021551D01*
X007623Y021550D02*
X008438Y021550D01*
X008436Y021549D02*
X007622Y021549D01*
X007622Y021548D02*
X008433Y021548D01*
X008430Y021547D02*
X007621Y021547D01*
X007621Y021546D02*
X008427Y021546D01*
X008425Y021545D02*
X007620Y021545D01*
X007620Y021544D02*
X008422Y021544D01*
X008419Y021543D02*
X007619Y021543D01*
X007619Y021542D02*
X008416Y021542D01*
X008414Y021541D02*
X007619Y021541D01*
X007618Y021540D02*
X008411Y021540D01*
X008408Y021539D02*
X007618Y021539D01*
X007617Y021538D02*
X008405Y021538D01*
X008403Y021537D02*
X007617Y021537D01*
X007616Y021536D02*
X008400Y021536D01*
X008397Y021535D02*
X007616Y021535D01*
X007615Y021534D02*
X008394Y021534D01*
X008392Y021533D02*
X007615Y021533D01*
X007615Y021532D02*
X008389Y021532D01*
X008386Y021531D02*
X007614Y021531D01*
X007614Y021530D02*
X008383Y021530D01*
X008381Y021529D02*
X007613Y021529D01*
X007613Y021528D02*
X008378Y021528D01*
X008375Y021527D02*
X007612Y021527D01*
X007612Y021526D02*
X008372Y021526D01*
X008370Y021525D02*
X007612Y021525D01*
X007611Y021524D02*
X008367Y021524D01*
X008364Y021523D02*
X007611Y021523D01*
X007610Y021522D02*
X008361Y021522D01*
X008359Y021521D02*
X007610Y021521D01*
X007609Y021520D02*
X008356Y021520D01*
X008353Y021519D02*
X007609Y021519D01*
X007608Y021518D02*
X008350Y021518D01*
X008348Y021517D02*
X007608Y021517D01*
X007608Y021516D02*
X008345Y021516D01*
X008342Y021515D02*
X007607Y021515D01*
X007607Y021514D02*
X008339Y021514D01*
X008337Y021513D02*
X007606Y021513D01*
X007606Y021512D02*
X008334Y021512D01*
X008331Y021511D02*
X007605Y021511D01*
X007605Y021510D02*
X008329Y021510D01*
X008326Y021509D02*
X007604Y021509D01*
X007604Y021508D02*
X008323Y021508D01*
X008320Y021507D02*
X007604Y021507D01*
X007603Y021506D02*
X008318Y021506D01*
X008315Y021505D02*
X007603Y021505D01*
X007602Y021504D02*
X008312Y021504D01*
X008309Y021503D02*
X007602Y021503D01*
X007601Y021502D02*
X008307Y021502D01*
X008304Y021501D02*
X007601Y021501D01*
X007601Y021500D02*
X008301Y021500D01*
X008298Y021499D02*
X007600Y021499D01*
X007600Y021498D02*
X008296Y021498D01*
X008293Y021497D02*
X007599Y021497D01*
X007599Y021496D02*
X008290Y021496D01*
X008287Y021495D02*
X007598Y021495D01*
X007598Y021494D02*
X008285Y021494D01*
X008282Y021493D02*
X007597Y021493D01*
X007597Y021492D02*
X008279Y021492D01*
X008276Y021491D02*
X007597Y021491D01*
X007596Y021490D02*
X008274Y021490D01*
X008271Y021489D02*
X007596Y021489D01*
X007595Y021488D02*
X008268Y021488D01*
X008265Y021487D02*
X007595Y021487D01*
X007594Y021486D02*
X008263Y021486D01*
X008260Y021485D02*
X007594Y021485D01*
X007593Y021484D02*
X008257Y021484D01*
X008254Y021483D02*
X007593Y021483D01*
X007593Y021482D02*
X008252Y021482D01*
X008249Y021481D02*
X007592Y021481D01*
X007592Y021480D02*
X008246Y021480D01*
X008243Y021479D02*
X007591Y021479D01*
X007591Y021478D02*
X008241Y021478D01*
X008238Y021477D02*
X007590Y021477D01*
X007590Y021476D02*
X008235Y021476D01*
X008232Y021475D02*
X007590Y021475D01*
X007589Y021474D02*
X008230Y021474D01*
X008227Y021473D02*
X007589Y021473D01*
X007588Y021472D02*
X008224Y021472D01*
X008221Y021471D02*
X007588Y021471D01*
X007587Y021470D02*
X008219Y021470D01*
X008216Y021469D02*
X007587Y021469D01*
X007586Y021468D02*
X008213Y021468D01*
X008210Y021467D02*
X007586Y021467D01*
X007586Y021466D02*
X008208Y021466D01*
X008205Y021465D02*
X007585Y021465D01*
X007585Y021464D02*
X008202Y021464D01*
X008200Y021463D02*
X007584Y021463D01*
X007584Y021462D02*
X008197Y021462D01*
X008194Y021461D02*
X007583Y021461D01*
X007583Y021460D02*
X008191Y021460D01*
X008189Y021459D02*
X007582Y021459D01*
X007582Y021458D02*
X008186Y021458D01*
X008183Y021457D02*
X007582Y021457D01*
X007581Y021456D02*
X008180Y021456D01*
X008178Y021455D02*
X007581Y021455D01*
X007580Y021454D02*
X008175Y021454D01*
X008172Y021453D02*
X007580Y021453D01*
X007579Y021452D02*
X008169Y021452D01*
X008167Y021451D02*
X007579Y021451D01*
X007579Y021450D02*
X008164Y021450D01*
X008161Y021449D02*
X007578Y021449D01*
X007578Y021448D02*
X008158Y021448D01*
X008156Y021447D02*
X007577Y021447D01*
X007577Y021446D02*
X008153Y021446D01*
X008150Y021445D02*
X007576Y021445D01*
X007576Y021444D02*
X008147Y021444D01*
X008145Y021443D02*
X007575Y021443D01*
X007575Y021442D02*
X008142Y021442D01*
X008139Y021441D02*
X007575Y021441D01*
X007574Y021440D02*
X008136Y021440D01*
X008134Y021439D02*
X007574Y021439D01*
X007573Y021438D02*
X008131Y021438D01*
X008128Y021437D02*
X007573Y021437D01*
X007572Y021436D02*
X008125Y021436D01*
X008123Y021435D02*
X007572Y021435D01*
X007571Y021434D02*
X008120Y021434D01*
X008117Y021433D02*
X007571Y021433D01*
X007571Y021432D02*
X008114Y021432D01*
X008112Y021431D02*
X007570Y021431D01*
X007570Y021430D02*
X008109Y021430D01*
X008106Y021429D02*
X007569Y021429D01*
X007569Y021428D02*
X008103Y021428D01*
X008101Y021427D02*
X007568Y021427D01*
X007568Y021426D02*
X008098Y021426D01*
X008095Y021425D02*
X007568Y021425D01*
X007567Y021424D02*
X008092Y021424D01*
X008090Y021423D02*
X007567Y021423D01*
X007566Y021422D02*
X008087Y021422D01*
X008084Y021421D02*
X007566Y021421D01*
X007565Y021420D02*
X008081Y021420D01*
X008079Y021419D02*
X007565Y021419D01*
X007564Y021418D02*
X008076Y021418D01*
X008073Y021417D02*
X007564Y021417D01*
X007564Y021416D02*
X008071Y021416D01*
X008068Y021415D02*
X007563Y021415D01*
X007563Y021414D02*
X008065Y021414D01*
X008062Y021413D02*
X007562Y021413D01*
X007562Y021412D02*
X008060Y021412D01*
X008057Y021411D02*
X007561Y021411D01*
X007561Y021410D02*
X008054Y021410D01*
X008051Y021409D02*
X007560Y021409D01*
X007560Y021408D02*
X008049Y021408D01*
X008046Y021407D02*
X007560Y021407D01*
X007559Y021406D02*
X008043Y021406D01*
X008040Y021405D02*
X007559Y021405D01*
X007558Y021404D02*
X008038Y021404D01*
X008035Y021403D02*
X007558Y021403D01*
X007557Y021402D02*
X008032Y021402D01*
X008029Y021401D02*
X007557Y021401D01*
X007557Y021400D02*
X008027Y021400D01*
X008024Y021399D02*
X007556Y021399D01*
X007556Y021398D02*
X008021Y021398D01*
X008018Y021397D02*
X007555Y021397D01*
X007555Y021396D02*
X008016Y021396D01*
X008013Y021395D02*
X007554Y021395D01*
X007554Y021394D02*
X008010Y021394D01*
X008007Y021393D02*
X007553Y021393D01*
X007553Y021392D02*
X008005Y021392D01*
X008002Y021391D02*
X007553Y021391D01*
X007552Y021390D02*
X007999Y021390D01*
X007996Y021389D02*
X007552Y021389D01*
X007551Y021388D02*
X007994Y021388D01*
X007991Y021387D02*
X007551Y021387D01*
X007550Y021386D02*
X007988Y021386D01*
X007985Y021385D02*
X007550Y021385D01*
X007550Y021384D02*
X007983Y021384D01*
X007980Y021383D02*
X007549Y021383D01*
X007549Y021382D02*
X007977Y021382D01*
X007974Y021381D02*
X007548Y021381D01*
X007548Y021380D02*
X007972Y021380D01*
X007969Y021379D02*
X007547Y021379D01*
X007547Y021378D02*
X007966Y021378D01*
X007963Y021377D02*
X007546Y021377D01*
X007546Y021376D02*
X007961Y021376D01*
X007958Y021375D02*
X007546Y021375D01*
X007545Y021374D02*
X007955Y021374D01*
X007952Y021373D02*
X007545Y021373D01*
X007544Y021372D02*
X007950Y021372D01*
X007947Y021371D02*
X007544Y021371D01*
X007543Y021370D02*
X007944Y021370D01*
X007942Y021369D02*
X007543Y021369D01*
X007542Y021368D02*
X007939Y021368D01*
X007936Y021367D02*
X007542Y021367D01*
X007542Y021366D02*
X007933Y021366D01*
X007931Y021365D02*
X007541Y021365D01*
X007541Y021364D02*
X007928Y021364D01*
X007925Y021363D02*
X007540Y021363D01*
X007540Y021362D02*
X007922Y021362D01*
X007920Y021361D02*
X007539Y021361D01*
X007539Y021360D02*
X007917Y021360D01*
X007914Y021359D02*
X007539Y021359D01*
X007538Y021358D02*
X007911Y021358D01*
X007909Y021357D02*
X007538Y021357D01*
X007537Y021356D02*
X007906Y021356D01*
X007903Y021355D02*
X007537Y021355D01*
X007536Y021354D02*
X007900Y021354D01*
X007898Y021353D02*
X007536Y021353D01*
X007535Y021352D02*
X007895Y021352D01*
X007892Y021351D02*
X007535Y021351D01*
X007535Y021350D02*
X007889Y021350D01*
X007887Y021349D02*
X007534Y021349D01*
X007534Y021348D02*
X007884Y021348D01*
X007881Y021347D02*
X007533Y021347D01*
X007533Y021346D02*
X007878Y021346D01*
X007876Y021345D02*
X007532Y021345D01*
X007532Y021344D02*
X007873Y021344D01*
X007870Y021343D02*
X007531Y021343D01*
X007531Y021342D02*
X007867Y021342D01*
X007865Y021341D02*
X007531Y021341D01*
X007530Y021340D02*
X007862Y021340D01*
X007859Y021339D02*
X007530Y021339D01*
X007529Y021338D02*
X007856Y021338D01*
X007854Y021337D02*
X007529Y021337D01*
X007528Y021336D02*
X007851Y021336D01*
X007848Y021335D02*
X007528Y021335D01*
X007528Y021334D02*
X007845Y021334D01*
X007843Y021333D02*
X007527Y021333D01*
X007527Y021332D02*
X007840Y021332D01*
X007837Y021331D02*
X007526Y021331D01*
X007526Y021330D02*
X007834Y021330D01*
X007832Y021329D02*
X007525Y021329D01*
X007525Y021328D02*
X007829Y021328D01*
X007826Y021327D02*
X007524Y021327D01*
X007524Y021326D02*
X007823Y021326D01*
X007821Y021325D02*
X007524Y021325D01*
X007523Y021324D02*
X007818Y021324D01*
X007815Y021323D02*
X007523Y021323D01*
X007522Y021322D02*
X007812Y021322D01*
X007810Y021321D02*
X007522Y021321D01*
X007521Y021320D02*
X007807Y021320D01*
X007804Y021319D02*
X007521Y021319D01*
X007520Y021318D02*
X007802Y021318D01*
X007799Y021317D02*
X007520Y021317D01*
X007520Y021316D02*
X007796Y021316D01*
X007793Y021315D02*
X007519Y021315D01*
X007519Y021314D02*
X007791Y021314D01*
X007788Y021313D02*
X007518Y021313D01*
X007518Y021312D02*
X007785Y021312D01*
X007782Y021311D02*
X007517Y021311D01*
X007517Y021310D02*
X007780Y021310D01*
X007777Y021309D02*
X007517Y021309D01*
X007516Y021308D02*
X007774Y021308D01*
X007771Y021307D02*
X007516Y021307D01*
X007515Y021306D02*
X007769Y021306D01*
X007766Y021305D02*
X007515Y021305D01*
X007514Y021304D02*
X007763Y021304D01*
X007760Y021303D02*
X007514Y021303D01*
X007513Y021302D02*
X007758Y021302D01*
X007755Y021301D02*
X007513Y021301D01*
X007513Y021300D02*
X007752Y021300D01*
X007749Y021299D02*
X007512Y021299D01*
X007512Y021298D02*
X007747Y021298D01*
X007744Y021297D02*
X007511Y021297D01*
X007511Y021296D02*
X007741Y021296D01*
X007738Y021295D02*
X007510Y021295D01*
X007510Y021294D02*
X007736Y021294D01*
X007733Y021293D02*
X007509Y021293D01*
X007509Y021292D02*
X007730Y021292D01*
X007727Y021291D02*
X007509Y021291D01*
X007508Y021290D02*
X007725Y021290D01*
X007722Y021289D02*
X007508Y021289D01*
X007507Y021288D02*
X007719Y021288D01*
X007716Y021287D02*
X007507Y021287D01*
X007506Y021286D02*
X007714Y021286D01*
X007711Y021285D02*
X007506Y021285D01*
X007506Y021284D02*
X007708Y021284D01*
X007705Y021283D02*
X007505Y021283D01*
X007505Y021282D02*
X007703Y021282D01*
X007700Y021281D02*
X007504Y021281D01*
X007504Y021280D02*
X007697Y021280D01*
X007694Y021279D02*
X007503Y021279D01*
X007503Y021278D02*
X007692Y021278D01*
X007689Y021277D02*
X007502Y021277D01*
X007502Y021276D02*
X007686Y021276D01*
X007683Y021275D02*
X007502Y021275D01*
X007501Y021274D02*
X007681Y021274D01*
X007678Y021273D02*
X007501Y021273D01*
X007500Y021272D02*
X007675Y021272D01*
X007673Y021271D02*
X007500Y021271D01*
X007499Y021270D02*
X007670Y021270D01*
X007667Y021269D02*
X007499Y021269D01*
X007498Y021268D02*
X007664Y021268D01*
X007662Y021267D02*
X007498Y021267D01*
X007498Y021266D02*
X007659Y021266D01*
X007656Y021265D02*
X007497Y021265D01*
X007497Y021264D02*
X007653Y021264D01*
X007651Y021263D02*
X007496Y021263D01*
X007496Y021262D02*
X007648Y021262D01*
X007645Y021261D02*
X007495Y021261D01*
X007495Y021260D02*
X007642Y021260D01*
X007640Y021259D02*
X007495Y021259D01*
X007494Y021258D02*
X007637Y021258D01*
X007634Y021257D02*
X007494Y021257D01*
X007493Y021256D02*
X007631Y021256D01*
X007629Y021255D02*
X007493Y021255D01*
X007492Y021254D02*
X007626Y021254D01*
X007623Y021253D02*
X007492Y021253D01*
X007491Y021252D02*
X007620Y021252D01*
X007618Y021251D02*
X007491Y021251D01*
X007491Y021250D02*
X007615Y021250D01*
X007612Y021249D02*
X007490Y021249D01*
X007490Y021248D02*
X007609Y021248D01*
X007607Y021247D02*
X007489Y021247D01*
X007489Y021246D02*
X007604Y021246D01*
X007601Y021245D02*
X007488Y021245D01*
X007488Y021244D02*
X007598Y021244D01*
X007596Y021243D02*
X007487Y021243D01*
X007487Y021242D02*
X007593Y021242D01*
X007590Y021241D02*
X007487Y021241D01*
X007486Y021240D02*
X007587Y021240D01*
X007585Y021239D02*
X007486Y021239D01*
X007485Y021238D02*
X007582Y021238D01*
X007579Y021237D02*
X007485Y021237D01*
X007484Y021236D02*
X007576Y021236D01*
X007574Y021235D02*
X007484Y021235D01*
X007484Y021234D02*
X007571Y021234D01*
X007568Y021233D02*
X007483Y021233D01*
X007483Y021232D02*
X007565Y021232D01*
X007563Y021231D02*
X007482Y021231D01*
X007482Y021230D02*
X007560Y021230D01*
X007557Y021229D02*
X007481Y021229D01*
X007481Y021228D02*
X007554Y021228D01*
X007552Y021227D02*
X007480Y021227D01*
X007480Y021226D02*
X007549Y021226D01*
X007546Y021225D02*
X007480Y021225D01*
X007479Y021224D02*
X007544Y021224D01*
X007541Y021223D02*
X007479Y021223D01*
X007478Y021222D02*
X007538Y021222D01*
X007535Y021221D02*
X007478Y021221D01*
X007477Y021220D02*
X007533Y021220D01*
X007530Y021219D02*
X007477Y021219D01*
X007476Y021218D02*
X007527Y021218D01*
X007524Y021217D02*
X007476Y021217D01*
X007476Y021216D02*
X007522Y021216D01*
X007519Y021215D02*
X007475Y021215D01*
X007475Y021214D02*
X007516Y021214D01*
X007513Y021213D02*
X007474Y021213D01*
X007474Y021212D02*
X007511Y021212D01*
X007508Y021211D02*
X007473Y021211D01*
X007473Y021210D02*
X007505Y021210D01*
X007502Y021209D02*
X007473Y021209D01*
X007472Y021208D02*
X007500Y021208D01*
X007497Y021207D02*
X007472Y021207D01*
X007471Y021206D02*
X007494Y021206D01*
X007491Y021205D02*
X007471Y021205D01*
X007470Y021204D02*
X007489Y021204D01*
X007486Y021203D02*
X007470Y021203D01*
X007469Y021202D02*
X007483Y021202D01*
X007480Y021201D02*
X007469Y021201D01*
X007469Y021200D02*
X007478Y021200D01*
X007475Y021199D02*
X007468Y021199D01*
X007468Y021198D02*
X007472Y021198D01*
X007469Y021197D02*
X007467Y021197D01*
D14*
X007836Y020637D03*
X008450Y018963D03*
X009050Y017963D03*
X009400Y019463D03*
X010950Y021363D03*
X011250Y019863D03*
X011250Y018263D03*
X010750Y016763D03*
X010650Y016163D03*
X009950Y016063D03*
X007450Y016563D03*
X007350Y016063D03*
X005450Y015963D03*
X006150Y013563D03*
X007036Y012637D03*
X005450Y012163D03*
X006736Y009937D03*
X005850Y009363D03*
X005950Y007613D03*
X006450Y005163D03*
X006900Y004563D03*
X007400Y004313D03*
X007750Y003963D03*
X007900Y005863D03*
X009550Y007263D03*
X009350Y008763D03*
X009350Y010263D03*
X010150Y010363D03*
X010950Y009463D03*
X011150Y007463D03*
X011000Y006163D03*
X012450Y004663D03*
X012100Y004313D03*
X011750Y003963D03*
X012800Y005163D03*
X013500Y005513D03*
X013536Y007237D03*
X012750Y009563D03*
X012750Y010263D03*
X012750Y011113D03*
X012750Y011563D03*
X013836Y010237D03*
X015336Y010837D03*
X014350Y012763D03*
X013950Y012663D03*
X013900Y016563D03*
X014350Y016563D03*
X012950Y017863D03*
X013550Y019463D03*
X017136Y020337D03*
X016836Y024237D03*
X015536Y025837D03*
X012136Y025937D03*
X009350Y022163D03*
X009450Y021663D03*
X008336Y023637D03*
X008636Y025937D03*
X005536Y022837D03*
X005036Y020237D03*
X002700Y019263D03*
X002050Y019463D03*
X001836Y018437D03*
X001950Y014963D03*
X002400Y014963D03*
X002300Y013563D03*
X001750Y013363D03*
X003000Y013563D03*
X001350Y007163D03*
X000750Y006863D03*
X002036Y005137D03*
X001136Y001437D03*
X004936Y004837D03*
X005536Y002937D03*
X009550Y011863D03*
X016536Y006137D03*
X016536Y004037D03*
X016650Y002663D03*
X018736Y004337D03*
X018336Y011637D03*
X018036Y015337D03*
X001836Y024337D03*
M02*
